M48
; DRILL file {KiCad 9.0.4} date 2025-09-24T11:56:26+0200
; FORMAT={-:-/ absolute / metric / decimal}
; #@! TF.CreationDate,2025-09-24T11:56:26+02:00
; #@! TF.GenerationSoftware,Kicad,Pcbnew,9.0.4
; #@! TF.FileFunction,Plated,1,4,PTH
FMAT,2
METRIC
; #@! TA.AperFunction,Plated,PTH,ViaDrill
T1C0.200
; #@! TA.AperFunction,Plated,PTH,ComponentDrill
T2C0.600
; #@! TA.AperFunction,Plated,PTH,ComponentDrill
T3C0.950
; #@! TA.AperFunction,Plated,PTH,ComponentDrill
T4C1.000
%
G90
G05
T1
X107.0Y-80.0
X107.0Y-82.5
X107.0Y-85.0
X107.0Y-89.5
X108.0Y-103.5
X108.0Y-107.0
X112.5Y-108.0
X113.5Y-109.2
X113.9Y-99.9
X114.4Y-99.5
X118.7Y-82.228
X118.8Y-89.2
X119.0Y-85.0
X119.5Y-79.5
X120.087Y-83.487
X120.6Y-84.4
X122.0Y-85.0
X122.0Y-89.0
X123.4Y-83.9
X124.4Y-86.6
X128.1Y-101.1
X128.5Y-93.0
X128.8Y-84.2
X129.15Y-87.35
X129.15Y-87.8
X129.15Y-88.25
X129.5Y-89.5
X130.023Y-90.618
X130.2Y-85.4
X130.5Y-99.0
X130.5Y-105.0
X130.7Y-85.4
X131.099Y-90.19
X131.2Y-85.4
X132.5Y-99.0
X133.9Y-84.6
X133.9Y-85.2
X133.9Y-100.51
X134.3Y-102.5
X134.3Y-104.5
X134.5Y-70.8
X134.718Y-87.809
X134.8Y-87.2
X134.8Y-89.6
X134.8Y-92.8
X134.946Y-94.092
X135.0Y-70.8
X135.1Y-86.5
X135.11Y-93.567
X135.3Y-106.1
X135.5Y-70.8
X136.5Y-87.5
X136.7Y-94.8
X137.5Y-93.0
X138.7Y-86.4
X138.8Y-94.8
X139.25Y-86.4
X139.5Y-116.0
X139.501Y-84.099
X140.0Y-93.0
X140.3Y-74.0
X140.3Y-84.1
X140.7Y-94.9
X140.751Y-83.649
X140.77Y-90.62
X141.224Y-84.683
X142.0Y-87.5
X142.5Y-79.5
X142.5Y-116.0
X143.1Y-90.0
X143.2Y-87.2
X143.2Y-91.2
X143.2Y-93.2
X143.3Y-89.2
X143.5Y-98.0
X143.8Y-83.5
X143.8Y-84.52
X144.0Y-96.5
X144.0Y-116.0
X144.649Y-86.049
X144.71Y-89.71
X145.0Y-91.3
X145.001Y-91.901
X145.099Y-87.398
X145.1Y-87.948
X145.1Y-86.848
X145.3Y-74.0
X145.4Y-125.274
X145.5Y-79.5
X145.5Y-116.0
X146.0Y-97.0
X146.6Y-84.49
X147.5Y-83.5
X147.6Y-91.0
X147.8Y-86.6
X148.0Y-116.0
X148.5Y-112.5
X148.732Y-108.285
X148.9Y-93.2
X149.38Y-104.08
X149.832Y-103.685
X150.0Y-96.5
X150.0Y-99.0
X150.05Y-108.2
X150.21Y-103.3
X151.0Y-116.4
X151.865Y-113.8
X152.3Y-108.2
X152.5Y-110.5
X152.8Y-115.8
X154.0Y-85.5
X154.2Y-111.4
X154.8Y-111.4
X155.4Y-111.4
X156.0Y-109.5
X156.35Y-115.75
X157.0Y-113.8
X157.85Y-107.7
X157.85Y-108.2
X161.0Y-85.5
X163.0Y-106.0
X163.0Y-108.0
X173.677Y-95.8
X175.0Y-94.2
X177.0Y-111.401
X177.4Y-110.951
X178.0Y-113.5
X178.0Y-116.0
X180.2Y-113.2
X181.0Y-110.0
X184.05Y-95.85
X185.5Y-110.0
X186.0Y-94.2
T3
X169.0Y-73.919
X171.5Y-73.919
X174.0Y-73.919
X180.0Y-73.919
X182.5Y-73.919
X185.0Y-73.919
T4
X104.475Y-78.7
X104.475Y-81.24
X104.475Y-83.78
X104.475Y-86.32
X104.475Y-88.86
X104.475Y-91.4
X104.475Y-93.94
X104.475Y-96.48
X104.475Y-99.02
X104.475Y-101.56
X104.475Y-104.1
X104.475Y-106.64
X104.475Y-109.18
X104.475Y-111.72
X108.72Y-95.18
X108.72Y-97.72
X108.72Y-100.26
X111.26Y-95.18
X111.26Y-97.72
X111.26Y-100.26
X151.4Y-82.06
X151.4Y-84.6
X151.4Y-87.14
T2
G00X182.645Y-106.48
M15
G01X183.745Y-106.48
M16
G05
G00X182.645Y-115.12
M15
G01X183.745Y-115.12
M16
G05
G00X186.975Y-106.48
M15
G01X187.775Y-106.48
M16
G05
G00X186.975Y-115.12
M15
G01X187.775Y-115.12
M16
G05
M30
