%TF.GenerationSoftware,KiCad,Pcbnew,9.0.4*%
%TF.CreationDate,2025-09-24T11:56:23+02:00*%
%TF.ProjectId,blocky_breakout_pcb,626c6f63-6b79-45f6-9272-65616b6f7574,rev?*%
%TF.SameCoordinates,Original*%
%TF.FileFunction,AssemblyDrawing,Bot*%
%FSLAX46Y46*%
G04 Gerber Fmt 4.6, Leading zero omitted, Abs format (unit mm)*
G04 Created by KiCad (PCBNEW 9.0.4) date 2025-09-24 11:56:23*
%MOMM*%
%LPD*%
G01*
G04 APERTURE LIST*
%ADD10C,0.150000*%
%ADD11C,0.100000*%
G04 APERTURE END LIST*
D10*
X134266666Y-120562295D02*
X134266666Y-121133723D01*
X134266666Y-121133723D02*
X134304761Y-121248009D01*
X134304761Y-121248009D02*
X134380952Y-121324200D01*
X134380952Y-121324200D02*
X134495237Y-121362295D01*
X134495237Y-121362295D02*
X134571428Y-121362295D01*
X133542856Y-120828961D02*
X133542856Y-121362295D01*
X133733332Y-120524200D02*
X133923809Y-121095628D01*
X133923809Y-121095628D02*
X133428570Y-121095628D01*
X142233332Y-93386104D02*
X142271428Y-93424200D01*
X142271428Y-93424200D02*
X142385713Y-93462295D01*
X142385713Y-93462295D02*
X142461904Y-93462295D01*
X142461904Y-93462295D02*
X142576190Y-93424200D01*
X142576190Y-93424200D02*
X142652380Y-93348009D01*
X142652380Y-93348009D02*
X142690475Y-93271819D01*
X142690475Y-93271819D02*
X142728571Y-93119438D01*
X142728571Y-93119438D02*
X142728571Y-93005152D01*
X142728571Y-93005152D02*
X142690475Y-92852771D01*
X142690475Y-92852771D02*
X142652380Y-92776580D01*
X142652380Y-92776580D02*
X142576190Y-92700390D01*
X142576190Y-92700390D02*
X142461904Y-92662295D01*
X142461904Y-92662295D02*
X142385713Y-92662295D01*
X142385713Y-92662295D02*
X142271428Y-92700390D01*
X142271428Y-92700390D02*
X142233332Y-92738485D01*
X141852380Y-93462295D02*
X141699999Y-93462295D01*
X141699999Y-93462295D02*
X141623809Y-93424200D01*
X141623809Y-93424200D02*
X141585713Y-93386104D01*
X141585713Y-93386104D02*
X141509523Y-93271819D01*
X141509523Y-93271819D02*
X141471428Y-93119438D01*
X141471428Y-93119438D02*
X141471428Y-92814676D01*
X141471428Y-92814676D02*
X141509523Y-92738485D01*
X141509523Y-92738485D02*
X141547618Y-92700390D01*
X141547618Y-92700390D02*
X141623809Y-92662295D01*
X141623809Y-92662295D02*
X141776190Y-92662295D01*
X141776190Y-92662295D02*
X141852380Y-92700390D01*
X141852380Y-92700390D02*
X141890475Y-92738485D01*
X141890475Y-92738485D02*
X141928571Y-92814676D01*
X141928571Y-92814676D02*
X141928571Y-93005152D01*
X141928571Y-93005152D02*
X141890475Y-93081342D01*
X141890475Y-93081342D02*
X141852380Y-93119438D01*
X141852380Y-93119438D02*
X141776190Y-93157533D01*
X141776190Y-93157533D02*
X141623809Y-93157533D01*
X141623809Y-93157533D02*
X141547618Y-93119438D01*
X141547618Y-93119438D02*
X141509523Y-93081342D01*
X141509523Y-93081342D02*
X141471428Y-93005152D01*
X140986104Y-93305714D02*
X141024200Y-93267618D01*
X141024200Y-93267618D02*
X141062295Y-93153333D01*
X141062295Y-93153333D02*
X141062295Y-93077142D01*
X141062295Y-93077142D02*
X141024200Y-92962856D01*
X141024200Y-92962856D02*
X140948009Y-92886666D01*
X140948009Y-92886666D02*
X140871819Y-92848571D01*
X140871819Y-92848571D02*
X140719438Y-92810475D01*
X140719438Y-92810475D02*
X140605152Y-92810475D01*
X140605152Y-92810475D02*
X140452771Y-92848571D01*
X140452771Y-92848571D02*
X140376580Y-92886666D01*
X140376580Y-92886666D02*
X140300390Y-92962856D01*
X140300390Y-92962856D02*
X140262295Y-93077142D01*
X140262295Y-93077142D02*
X140262295Y-93153333D01*
X140262295Y-93153333D02*
X140300390Y-93267618D01*
X140300390Y-93267618D02*
X140338485Y-93305714D01*
X141062295Y-94067618D02*
X141062295Y-93610475D01*
X141062295Y-93839047D02*
X140262295Y-93839047D01*
X140262295Y-93839047D02*
X140376580Y-93762856D01*
X140376580Y-93762856D02*
X140452771Y-93686666D01*
X140452771Y-93686666D02*
X140490866Y-93610475D01*
X140262295Y-94562857D02*
X140262295Y-94639047D01*
X140262295Y-94639047D02*
X140300390Y-94715238D01*
X140300390Y-94715238D02*
X140338485Y-94753333D01*
X140338485Y-94753333D02*
X140414676Y-94791428D01*
X140414676Y-94791428D02*
X140567057Y-94829523D01*
X140567057Y-94829523D02*
X140757533Y-94829523D01*
X140757533Y-94829523D02*
X140909914Y-94791428D01*
X140909914Y-94791428D02*
X140986104Y-94753333D01*
X140986104Y-94753333D02*
X141024200Y-94715238D01*
X141024200Y-94715238D02*
X141062295Y-94639047D01*
X141062295Y-94639047D02*
X141062295Y-94562857D01*
X141062295Y-94562857D02*
X141024200Y-94486666D01*
X141024200Y-94486666D02*
X140986104Y-94448571D01*
X140986104Y-94448571D02*
X140909914Y-94410476D01*
X140909914Y-94410476D02*
X140757533Y-94372380D01*
X140757533Y-94372380D02*
X140567057Y-94372380D01*
X140567057Y-94372380D02*
X140414676Y-94410476D01*
X140414676Y-94410476D02*
X140338485Y-94448571D01*
X140338485Y-94448571D02*
X140300390Y-94486666D01*
X140300390Y-94486666D02*
X140262295Y-94562857D01*
X138133332Y-87486104D02*
X138171428Y-87524200D01*
X138171428Y-87524200D02*
X138285713Y-87562295D01*
X138285713Y-87562295D02*
X138361904Y-87562295D01*
X138361904Y-87562295D02*
X138476190Y-87524200D01*
X138476190Y-87524200D02*
X138552380Y-87448009D01*
X138552380Y-87448009D02*
X138590475Y-87371819D01*
X138590475Y-87371819D02*
X138628571Y-87219438D01*
X138628571Y-87219438D02*
X138628571Y-87105152D01*
X138628571Y-87105152D02*
X138590475Y-86952771D01*
X138590475Y-86952771D02*
X138552380Y-86876580D01*
X138552380Y-86876580D02*
X138476190Y-86800390D01*
X138476190Y-86800390D02*
X138361904Y-86762295D01*
X138361904Y-86762295D02*
X138285713Y-86762295D01*
X138285713Y-86762295D02*
X138171428Y-86800390D01*
X138171428Y-86800390D02*
X138133332Y-86838485D01*
X137409523Y-86762295D02*
X137790475Y-86762295D01*
X137790475Y-86762295D02*
X137828571Y-87143247D01*
X137828571Y-87143247D02*
X137790475Y-87105152D01*
X137790475Y-87105152D02*
X137714285Y-87067057D01*
X137714285Y-87067057D02*
X137523809Y-87067057D01*
X137523809Y-87067057D02*
X137447618Y-87105152D01*
X137447618Y-87105152D02*
X137409523Y-87143247D01*
X137409523Y-87143247D02*
X137371428Y-87219438D01*
X137371428Y-87219438D02*
X137371428Y-87409914D01*
X137371428Y-87409914D02*
X137409523Y-87486104D01*
X137409523Y-87486104D02*
X137447618Y-87524200D01*
X137447618Y-87524200D02*
X137523809Y-87562295D01*
X137523809Y-87562295D02*
X137714285Y-87562295D01*
X137714285Y-87562295D02*
X137790475Y-87524200D01*
X137790475Y-87524200D02*
X137828571Y-87486104D01*
X136414285Y-92486104D02*
X136452381Y-92524200D01*
X136452381Y-92524200D02*
X136566666Y-92562295D01*
X136566666Y-92562295D02*
X136642857Y-92562295D01*
X136642857Y-92562295D02*
X136757143Y-92524200D01*
X136757143Y-92524200D02*
X136833333Y-92448009D01*
X136833333Y-92448009D02*
X136871428Y-92371819D01*
X136871428Y-92371819D02*
X136909524Y-92219438D01*
X136909524Y-92219438D02*
X136909524Y-92105152D01*
X136909524Y-92105152D02*
X136871428Y-91952771D01*
X136871428Y-91952771D02*
X136833333Y-91876580D01*
X136833333Y-91876580D02*
X136757143Y-91800390D01*
X136757143Y-91800390D02*
X136642857Y-91762295D01*
X136642857Y-91762295D02*
X136566666Y-91762295D01*
X136566666Y-91762295D02*
X136452381Y-91800390D01*
X136452381Y-91800390D02*
X136414285Y-91838485D01*
X135652381Y-92562295D02*
X136109524Y-92562295D01*
X135880952Y-92562295D02*
X135880952Y-91762295D01*
X135880952Y-91762295D02*
X135957143Y-91876580D01*
X135957143Y-91876580D02*
X136033333Y-91952771D01*
X136033333Y-91952771D02*
X136109524Y-91990866D01*
X135385714Y-91762295D02*
X134890476Y-91762295D01*
X134890476Y-91762295D02*
X135157142Y-92067057D01*
X135157142Y-92067057D02*
X135042857Y-92067057D01*
X135042857Y-92067057D02*
X134966666Y-92105152D01*
X134966666Y-92105152D02*
X134928571Y-92143247D01*
X134928571Y-92143247D02*
X134890476Y-92219438D01*
X134890476Y-92219438D02*
X134890476Y-92409914D01*
X134890476Y-92409914D02*
X134928571Y-92486104D01*
X134928571Y-92486104D02*
X134966666Y-92524200D01*
X134966666Y-92524200D02*
X135042857Y-92562295D01*
X135042857Y-92562295D02*
X135271428Y-92562295D01*
X135271428Y-92562295D02*
X135347619Y-92524200D01*
X135347619Y-92524200D02*
X135385714Y-92486104D01*
X138986104Y-93686667D02*
X139024200Y-93648571D01*
X139024200Y-93648571D02*
X139062295Y-93534286D01*
X139062295Y-93534286D02*
X139062295Y-93458095D01*
X139062295Y-93458095D02*
X139024200Y-93343809D01*
X139024200Y-93343809D02*
X138948009Y-93267619D01*
X138948009Y-93267619D02*
X138871819Y-93229524D01*
X138871819Y-93229524D02*
X138719438Y-93191428D01*
X138719438Y-93191428D02*
X138605152Y-93191428D01*
X138605152Y-93191428D02*
X138452771Y-93229524D01*
X138452771Y-93229524D02*
X138376580Y-93267619D01*
X138376580Y-93267619D02*
X138300390Y-93343809D01*
X138300390Y-93343809D02*
X138262295Y-93458095D01*
X138262295Y-93458095D02*
X138262295Y-93534286D01*
X138262295Y-93534286D02*
X138300390Y-93648571D01*
X138300390Y-93648571D02*
X138338485Y-93686667D01*
X138262295Y-93953333D02*
X138262295Y-94448571D01*
X138262295Y-94448571D02*
X138567057Y-94181905D01*
X138567057Y-94181905D02*
X138567057Y-94296190D01*
X138567057Y-94296190D02*
X138605152Y-94372381D01*
X138605152Y-94372381D02*
X138643247Y-94410476D01*
X138643247Y-94410476D02*
X138719438Y-94448571D01*
X138719438Y-94448571D02*
X138909914Y-94448571D01*
X138909914Y-94448571D02*
X138986104Y-94410476D01*
X138986104Y-94410476D02*
X139024200Y-94372381D01*
X139024200Y-94372381D02*
X139062295Y-94296190D01*
X139062295Y-94296190D02*
X139062295Y-94067619D01*
X139062295Y-94067619D02*
X139024200Y-93991428D01*
X139024200Y-93991428D02*
X138986104Y-93953333D01*
X140133332Y-87486104D02*
X140171428Y-87524200D01*
X140171428Y-87524200D02*
X140285713Y-87562295D01*
X140285713Y-87562295D02*
X140361904Y-87562295D01*
X140361904Y-87562295D02*
X140476190Y-87524200D01*
X140476190Y-87524200D02*
X140552380Y-87448009D01*
X140552380Y-87448009D02*
X140590475Y-87371819D01*
X140590475Y-87371819D02*
X140628571Y-87219438D01*
X140628571Y-87219438D02*
X140628571Y-87105152D01*
X140628571Y-87105152D02*
X140590475Y-86952771D01*
X140590475Y-86952771D02*
X140552380Y-86876580D01*
X140552380Y-86876580D02*
X140476190Y-86800390D01*
X140476190Y-86800390D02*
X140361904Y-86762295D01*
X140361904Y-86762295D02*
X140285713Y-86762295D01*
X140285713Y-86762295D02*
X140171428Y-86800390D01*
X140171428Y-86800390D02*
X140133332Y-86838485D01*
X139866666Y-86762295D02*
X139333332Y-86762295D01*
X139333332Y-86762295D02*
X139676190Y-87562295D01*
X136986104Y-93285714D02*
X137024200Y-93247618D01*
X137024200Y-93247618D02*
X137062295Y-93133333D01*
X137062295Y-93133333D02*
X137062295Y-93057142D01*
X137062295Y-93057142D02*
X137024200Y-92942856D01*
X137024200Y-92942856D02*
X136948009Y-92866666D01*
X136948009Y-92866666D02*
X136871819Y-92828571D01*
X136871819Y-92828571D02*
X136719438Y-92790475D01*
X136719438Y-92790475D02*
X136605152Y-92790475D01*
X136605152Y-92790475D02*
X136452771Y-92828571D01*
X136452771Y-92828571D02*
X136376580Y-92866666D01*
X136376580Y-92866666D02*
X136300390Y-92942856D01*
X136300390Y-92942856D02*
X136262295Y-93057142D01*
X136262295Y-93057142D02*
X136262295Y-93133333D01*
X136262295Y-93133333D02*
X136300390Y-93247618D01*
X136300390Y-93247618D02*
X136338485Y-93285714D01*
X137062295Y-94047618D02*
X137062295Y-93590475D01*
X137062295Y-93819047D02*
X136262295Y-93819047D01*
X136262295Y-93819047D02*
X136376580Y-93742856D01*
X136376580Y-93742856D02*
X136452771Y-93666666D01*
X136452771Y-93666666D02*
X136490866Y-93590475D01*
X137062295Y-94809523D02*
X137062295Y-94352380D01*
X137062295Y-94580952D02*
X136262295Y-94580952D01*
X136262295Y-94580952D02*
X136376580Y-94504761D01*
X136376580Y-94504761D02*
X136452771Y-94428571D01*
X136452771Y-94428571D02*
X136490866Y-94352380D01*
X105609523Y-72362295D02*
X105609523Y-71562295D01*
X105609523Y-71943247D02*
X105152380Y-71943247D01*
X105152380Y-72362295D02*
X105152380Y-71562295D01*
X104809524Y-71638485D02*
X104771428Y-71600390D01*
X104771428Y-71600390D02*
X104695238Y-71562295D01*
X104695238Y-71562295D02*
X104504762Y-71562295D01*
X104504762Y-71562295D02*
X104428571Y-71600390D01*
X104428571Y-71600390D02*
X104390476Y-71638485D01*
X104390476Y-71638485D02*
X104352381Y-71714676D01*
X104352381Y-71714676D02*
X104352381Y-71790866D01*
X104352381Y-71790866D02*
X104390476Y-71905152D01*
X104390476Y-71905152D02*
X104847619Y-72362295D01*
X104847619Y-72362295D02*
X104352381Y-72362295D01*
X105609523Y-121362295D02*
X105609523Y-120562295D01*
X105609523Y-120943247D02*
X105152380Y-120943247D01*
X105152380Y-121362295D02*
X105152380Y-120562295D01*
X104428571Y-120828961D02*
X104428571Y-121362295D01*
X104619047Y-120524200D02*
X104809524Y-121095628D01*
X104809524Y-121095628D02*
X104314285Y-121095628D01*
X142133332Y-91486104D02*
X142171428Y-91524200D01*
X142171428Y-91524200D02*
X142285713Y-91562295D01*
X142285713Y-91562295D02*
X142361904Y-91562295D01*
X142361904Y-91562295D02*
X142476190Y-91524200D01*
X142476190Y-91524200D02*
X142552380Y-91448009D01*
X142552380Y-91448009D02*
X142590475Y-91371819D01*
X142590475Y-91371819D02*
X142628571Y-91219438D01*
X142628571Y-91219438D02*
X142628571Y-91105152D01*
X142628571Y-91105152D02*
X142590475Y-90952771D01*
X142590475Y-90952771D02*
X142552380Y-90876580D01*
X142552380Y-90876580D02*
X142476190Y-90800390D01*
X142476190Y-90800390D02*
X142361904Y-90762295D01*
X142361904Y-90762295D02*
X142285713Y-90762295D01*
X142285713Y-90762295D02*
X142171428Y-90800390D01*
X142171428Y-90800390D02*
X142133332Y-90838485D01*
X141447618Y-90762295D02*
X141599999Y-90762295D01*
X141599999Y-90762295D02*
X141676190Y-90800390D01*
X141676190Y-90800390D02*
X141714285Y-90838485D01*
X141714285Y-90838485D02*
X141790475Y-90952771D01*
X141790475Y-90952771D02*
X141828571Y-91105152D01*
X141828571Y-91105152D02*
X141828571Y-91409914D01*
X141828571Y-91409914D02*
X141790475Y-91486104D01*
X141790475Y-91486104D02*
X141752380Y-91524200D01*
X141752380Y-91524200D02*
X141676190Y-91562295D01*
X141676190Y-91562295D02*
X141523809Y-91562295D01*
X141523809Y-91562295D02*
X141447618Y-91524200D01*
X141447618Y-91524200D02*
X141409523Y-91486104D01*
X141409523Y-91486104D02*
X141371428Y-91409914D01*
X141371428Y-91409914D02*
X141371428Y-91219438D01*
X141371428Y-91219438D02*
X141409523Y-91143247D01*
X141409523Y-91143247D02*
X141447618Y-91105152D01*
X141447618Y-91105152D02*
X141523809Y-91067057D01*
X141523809Y-91067057D02*
X141676190Y-91067057D01*
X141676190Y-91067057D02*
X141752380Y-91105152D01*
X141752380Y-91105152D02*
X141790475Y-91143247D01*
X141790475Y-91143247D02*
X141828571Y-91219438D01*
X163609523Y-72362295D02*
X163609523Y-71562295D01*
X163609523Y-71943247D02*
X163152380Y-71943247D01*
X163152380Y-72362295D02*
X163152380Y-71562295D01*
X162847619Y-71562295D02*
X162352381Y-71562295D01*
X162352381Y-71562295D02*
X162619047Y-71867057D01*
X162619047Y-71867057D02*
X162504762Y-71867057D01*
X162504762Y-71867057D02*
X162428571Y-71905152D01*
X162428571Y-71905152D02*
X162390476Y-71943247D01*
X162390476Y-71943247D02*
X162352381Y-72019438D01*
X162352381Y-72019438D02*
X162352381Y-72209914D01*
X162352381Y-72209914D02*
X162390476Y-72286104D01*
X162390476Y-72286104D02*
X162428571Y-72324200D01*
X162428571Y-72324200D02*
X162504762Y-72362295D01*
X162504762Y-72362295D02*
X162733333Y-72362295D01*
X162733333Y-72362295D02*
X162809524Y-72324200D01*
X162809524Y-72324200D02*
X162847619Y-72286104D01*
X142133332Y-90286104D02*
X142171428Y-90324200D01*
X142171428Y-90324200D02*
X142285713Y-90362295D01*
X142285713Y-90362295D02*
X142361904Y-90362295D01*
X142361904Y-90362295D02*
X142476190Y-90324200D01*
X142476190Y-90324200D02*
X142552380Y-90248009D01*
X142552380Y-90248009D02*
X142590475Y-90171819D01*
X142590475Y-90171819D02*
X142628571Y-90019438D01*
X142628571Y-90019438D02*
X142628571Y-89905152D01*
X142628571Y-89905152D02*
X142590475Y-89752771D01*
X142590475Y-89752771D02*
X142552380Y-89676580D01*
X142552380Y-89676580D02*
X142476190Y-89600390D01*
X142476190Y-89600390D02*
X142361904Y-89562295D01*
X142361904Y-89562295D02*
X142285713Y-89562295D01*
X142285713Y-89562295D02*
X142171428Y-89600390D01*
X142171428Y-89600390D02*
X142133332Y-89638485D01*
X141447618Y-89828961D02*
X141447618Y-90362295D01*
X141638094Y-89524200D02*
X141828571Y-90095628D01*
X141828571Y-90095628D02*
X141333332Y-90095628D01*
X136514285Y-89886104D02*
X136552381Y-89924200D01*
X136552381Y-89924200D02*
X136666666Y-89962295D01*
X136666666Y-89962295D02*
X136742857Y-89962295D01*
X136742857Y-89962295D02*
X136857143Y-89924200D01*
X136857143Y-89924200D02*
X136933333Y-89848009D01*
X136933333Y-89848009D02*
X136971428Y-89771819D01*
X136971428Y-89771819D02*
X137009524Y-89619438D01*
X137009524Y-89619438D02*
X137009524Y-89505152D01*
X137009524Y-89505152D02*
X136971428Y-89352771D01*
X136971428Y-89352771D02*
X136933333Y-89276580D01*
X136933333Y-89276580D02*
X136857143Y-89200390D01*
X136857143Y-89200390D02*
X136742857Y-89162295D01*
X136742857Y-89162295D02*
X136666666Y-89162295D01*
X136666666Y-89162295D02*
X136552381Y-89200390D01*
X136552381Y-89200390D02*
X136514285Y-89238485D01*
X135752381Y-89962295D02*
X136209524Y-89962295D01*
X135980952Y-89962295D02*
X135980952Y-89162295D01*
X135980952Y-89162295D02*
X136057143Y-89276580D01*
X136057143Y-89276580D02*
X136133333Y-89352771D01*
X136133333Y-89352771D02*
X136209524Y-89390866D01*
X135447619Y-89238485D02*
X135409523Y-89200390D01*
X135409523Y-89200390D02*
X135333333Y-89162295D01*
X135333333Y-89162295D02*
X135142857Y-89162295D01*
X135142857Y-89162295D02*
X135066666Y-89200390D01*
X135066666Y-89200390D02*
X135028571Y-89238485D01*
X135028571Y-89238485D02*
X134990476Y-89314676D01*
X134990476Y-89314676D02*
X134990476Y-89390866D01*
X134990476Y-89390866D02*
X135028571Y-89505152D01*
X135028571Y-89505152D02*
X135485714Y-89962295D01*
X135485714Y-89962295D02*
X134990476Y-89962295D01*
X163609523Y-121362295D02*
X163609523Y-120562295D01*
X163609523Y-120943247D02*
X163152380Y-120943247D01*
X163152380Y-121362295D02*
X163152380Y-120562295D01*
X162352381Y-121362295D02*
X162809524Y-121362295D01*
X162580952Y-121362295D02*
X162580952Y-120562295D01*
X162580952Y-120562295D02*
X162657143Y-120676580D01*
X162657143Y-120676580D02*
X162733333Y-120752771D01*
X162733333Y-120752771D02*
X162809524Y-120790866D01*
X135786104Y-87285714D02*
X135824200Y-87247618D01*
X135824200Y-87247618D02*
X135862295Y-87133333D01*
X135862295Y-87133333D02*
X135862295Y-87057142D01*
X135862295Y-87057142D02*
X135824200Y-86942856D01*
X135824200Y-86942856D02*
X135748009Y-86866666D01*
X135748009Y-86866666D02*
X135671819Y-86828571D01*
X135671819Y-86828571D02*
X135519438Y-86790475D01*
X135519438Y-86790475D02*
X135405152Y-86790475D01*
X135405152Y-86790475D02*
X135252771Y-86828571D01*
X135252771Y-86828571D02*
X135176580Y-86866666D01*
X135176580Y-86866666D02*
X135100390Y-86942856D01*
X135100390Y-86942856D02*
X135062295Y-87057142D01*
X135062295Y-87057142D02*
X135062295Y-87133333D01*
X135062295Y-87133333D02*
X135100390Y-87247618D01*
X135100390Y-87247618D02*
X135138485Y-87285714D01*
X135862295Y-88047618D02*
X135862295Y-87590475D01*
X135862295Y-87819047D02*
X135062295Y-87819047D01*
X135062295Y-87819047D02*
X135176580Y-87742856D01*
X135176580Y-87742856D02*
X135252771Y-87666666D01*
X135252771Y-87666666D02*
X135290866Y-87590475D01*
X135328961Y-88733333D02*
X135862295Y-88733333D01*
X135024200Y-88542857D02*
X135595628Y-88352380D01*
X135595628Y-88352380D02*
X135595628Y-88847619D01*
D11*
%TO.C,J4*%
X108600000Y-118460000D02*
X108600000Y-123540000D01*
X108600000Y-123540000D02*
X159400000Y-123540000D01*
X109550000Y-117080000D02*
X109550000Y-118460000D01*
X109550000Y-123540000D02*
X109550000Y-124920000D01*
X109550000Y-124920000D02*
X110190000Y-124920000D01*
X110190000Y-117080000D02*
X109550000Y-117080000D01*
X110190000Y-118460000D02*
X110190000Y-117080000D01*
X110190000Y-124920000D02*
X110190000Y-123540000D01*
X112090000Y-117080000D02*
X112090000Y-118460000D01*
X112090000Y-123540000D02*
X112090000Y-124920000D01*
X112090000Y-124920000D02*
X112730000Y-124920000D01*
X112730000Y-117080000D02*
X112090000Y-117080000D01*
X112730000Y-118460000D02*
X112730000Y-117080000D01*
X112730000Y-124920000D02*
X112730000Y-123540000D01*
X114630000Y-117080000D02*
X114630000Y-118460000D01*
X114630000Y-123540000D02*
X114630000Y-124920000D01*
X114630000Y-124920000D02*
X115270000Y-124920000D01*
X115270000Y-117080000D02*
X114630000Y-117080000D01*
X115270000Y-118460000D02*
X115270000Y-117080000D01*
X115270000Y-124920000D02*
X115270000Y-123540000D01*
X117170000Y-117080000D02*
X117170000Y-118460000D01*
X117170000Y-123540000D02*
X117170000Y-124920000D01*
X117170000Y-124920000D02*
X117810000Y-124920000D01*
X117810000Y-117080000D02*
X117170000Y-117080000D01*
X117810000Y-118460000D02*
X117810000Y-117080000D01*
X117810000Y-124920000D02*
X117810000Y-123540000D01*
X119710000Y-117080000D02*
X119710000Y-118460000D01*
X119710000Y-123540000D02*
X119710000Y-124920000D01*
X119710000Y-124920000D02*
X120350000Y-124920000D01*
X120350000Y-117080000D02*
X119710000Y-117080000D01*
X120350000Y-118460000D02*
X120350000Y-117080000D01*
X120350000Y-124920000D02*
X120350000Y-123540000D01*
X122250000Y-117080000D02*
X122250000Y-118460000D01*
X122250000Y-123540000D02*
X122250000Y-124920000D01*
X122250000Y-124920000D02*
X122890000Y-124920000D01*
X122890000Y-117080000D02*
X122250000Y-117080000D01*
X122890000Y-118460000D02*
X122890000Y-117080000D01*
X122890000Y-124920000D02*
X122890000Y-123540000D01*
X124790000Y-117080000D02*
X124790000Y-118460000D01*
X124790000Y-123540000D02*
X124790000Y-124920000D01*
X124790000Y-124920000D02*
X125430000Y-124920000D01*
X125430000Y-117080000D02*
X124790000Y-117080000D01*
X125430000Y-118460000D02*
X125430000Y-117080000D01*
X125430000Y-124920000D02*
X125430000Y-123540000D01*
X127330000Y-117080000D02*
X127330000Y-118460000D01*
X127330000Y-123540000D02*
X127330000Y-124920000D01*
X127330000Y-124920000D02*
X127970000Y-124920000D01*
X127970000Y-117080000D02*
X127330000Y-117080000D01*
X127970000Y-118460000D02*
X127970000Y-117080000D01*
X127970000Y-124920000D02*
X127970000Y-123540000D01*
X129870000Y-117080000D02*
X129870000Y-118460000D01*
X129870000Y-123540000D02*
X129870000Y-124920000D01*
X129870000Y-124920000D02*
X130510000Y-124920000D01*
X130510000Y-117080000D02*
X129870000Y-117080000D01*
X130510000Y-118460000D02*
X130510000Y-117080000D01*
X130510000Y-124920000D02*
X130510000Y-123540000D01*
X132410000Y-117080000D02*
X132410000Y-118460000D01*
X132410000Y-123540000D02*
X132410000Y-124920000D01*
X132410000Y-124920000D02*
X133050000Y-124920000D01*
X133050000Y-117080000D02*
X132410000Y-117080000D01*
X133050000Y-118460000D02*
X133050000Y-117080000D01*
X133050000Y-124920000D02*
X133050000Y-123540000D01*
X134950000Y-117080000D02*
X134950000Y-118460000D01*
X134950000Y-123540000D02*
X134950000Y-124920000D01*
X134950000Y-124920000D02*
X135590000Y-124920000D01*
X135590000Y-117080000D02*
X134950000Y-117080000D01*
X135590000Y-118460000D02*
X135590000Y-117080000D01*
X135590000Y-124920000D02*
X135590000Y-123540000D01*
X137490000Y-117080000D02*
X137490000Y-118460000D01*
X137490000Y-123540000D02*
X137490000Y-124920000D01*
X137490000Y-124920000D02*
X138130000Y-124920000D01*
X138130000Y-117080000D02*
X137490000Y-117080000D01*
X138130000Y-118460000D02*
X138130000Y-117080000D01*
X138130000Y-124920000D02*
X138130000Y-123540000D01*
X140030000Y-117080000D02*
X140030000Y-118460000D01*
X140030000Y-123540000D02*
X140030000Y-124920000D01*
X140030000Y-124920000D02*
X140670000Y-124920000D01*
X140670000Y-117080000D02*
X140030000Y-117080000D01*
X140670000Y-118460000D02*
X140670000Y-117080000D01*
X140670000Y-124920000D02*
X140670000Y-123540000D01*
X142570000Y-117080000D02*
X142570000Y-118460000D01*
X142570000Y-123540000D02*
X142570000Y-124920000D01*
X142570000Y-124920000D02*
X143210000Y-124920000D01*
X143210000Y-117080000D02*
X142570000Y-117080000D01*
X143210000Y-118460000D02*
X143210000Y-117080000D01*
X143210000Y-124920000D02*
X143210000Y-123540000D01*
X145110000Y-117080000D02*
X145110000Y-118460000D01*
X145110000Y-123540000D02*
X145110000Y-124920000D01*
X145110000Y-124920000D02*
X145750000Y-124920000D01*
X145750000Y-117080000D02*
X145110000Y-117080000D01*
X145750000Y-118460000D02*
X145750000Y-117080000D01*
X145750000Y-124920000D02*
X145750000Y-123540000D01*
X147650000Y-117080000D02*
X147650000Y-118460000D01*
X147650000Y-123540000D02*
X147650000Y-124920000D01*
X147650000Y-124920000D02*
X148290000Y-124920000D01*
X148290000Y-117080000D02*
X147650000Y-117080000D01*
X148290000Y-118460000D02*
X148290000Y-117080000D01*
X148290000Y-124920000D02*
X148290000Y-123540000D01*
X150190000Y-117080000D02*
X150190000Y-118460000D01*
X150190000Y-123540000D02*
X150190000Y-124920000D01*
X150190000Y-124920000D02*
X150830000Y-124920000D01*
X150830000Y-117080000D02*
X150190000Y-117080000D01*
X150830000Y-118460000D02*
X150830000Y-117080000D01*
X150830000Y-124920000D02*
X150830000Y-123540000D01*
X152730000Y-117080000D02*
X152730000Y-118460000D01*
X152730000Y-123540000D02*
X152730000Y-124920000D01*
X152730000Y-124920000D02*
X153370000Y-124920000D01*
X153370000Y-117080000D02*
X152730000Y-117080000D01*
X153370000Y-118460000D02*
X153370000Y-117080000D01*
X153370000Y-124920000D02*
X153370000Y-123540000D01*
X155270000Y-117080000D02*
X155270000Y-118460000D01*
X155270000Y-123540000D02*
X155270000Y-124920000D01*
X155270000Y-124920000D02*
X155910000Y-124920000D01*
X155910000Y-117080000D02*
X155270000Y-117080000D01*
X155910000Y-118460000D02*
X155910000Y-117080000D01*
X155910000Y-124920000D02*
X155910000Y-123540000D01*
X157810000Y-117080000D02*
X157810000Y-118460000D01*
X157810000Y-123540000D02*
X157810000Y-124920000D01*
X157810000Y-124920000D02*
X158450000Y-124920000D01*
X158400000Y-118460000D02*
X108600000Y-118460000D01*
X158450000Y-117080000D02*
X157810000Y-117080000D01*
X158450000Y-118460000D02*
X158450000Y-117080000D01*
X158450000Y-124920000D02*
X158450000Y-123540000D01*
X159400000Y-119460000D02*
X158400000Y-118460000D01*
X159400000Y-123540000D02*
X159400000Y-119460000D01*
%TO.C,C9*%
X141600000Y-92850000D02*
X141600000Y-93350000D01*
X141600000Y-93350000D02*
X142600000Y-93350000D01*
X142600000Y-92850000D02*
X141600000Y-92850000D01*
X142600000Y-93350000D02*
X142600000Y-92850000D01*
%TO.C,C10*%
X140450000Y-93320000D02*
X140450000Y-94320000D01*
X140450000Y-94320000D02*
X140950000Y-94320000D01*
X140950000Y-93320000D02*
X140450000Y-93320000D01*
X140950000Y-94320000D02*
X140950000Y-93320000D01*
%TO.C,C5*%
X137500000Y-86950000D02*
X137500000Y-87450000D01*
X137500000Y-87450000D02*
X138500000Y-87450000D01*
X138500000Y-86950000D02*
X137500000Y-86950000D01*
X138500000Y-87450000D02*
X138500000Y-86950000D01*
%TO.C,C13*%
X135400000Y-91950000D02*
X135400000Y-92450000D01*
X135400000Y-92450000D02*
X136400000Y-92450000D01*
X136400000Y-91950000D02*
X135400000Y-91950000D01*
X136400000Y-92450000D02*
X136400000Y-91950000D01*
%TO.C,C3*%
X138450000Y-93320000D02*
X138450000Y-94320000D01*
X138450000Y-94320000D02*
X138950000Y-94320000D01*
X138950000Y-93320000D02*
X138450000Y-93320000D01*
X138950000Y-94320000D02*
X138950000Y-93320000D01*
%TO.C,C7*%
X139500000Y-86950000D02*
X139500000Y-87450000D01*
X139500000Y-87450000D02*
X140500000Y-87450000D01*
X140500000Y-86950000D02*
X139500000Y-86950000D01*
X140500000Y-87450000D02*
X140500000Y-86950000D01*
%TO.C,C11*%
X136450000Y-93300000D02*
X136450000Y-94300000D01*
X136450000Y-94300000D02*
X136950000Y-94300000D01*
X136950000Y-93300000D02*
X136450000Y-93300000D01*
X136950000Y-94300000D02*
X136950000Y-93300000D01*
%TO.C,C6*%
X141500000Y-90950000D02*
X141500000Y-91450000D01*
X141500000Y-91450000D02*
X142500000Y-91450000D01*
X142500000Y-90950000D02*
X141500000Y-90950000D01*
X142500000Y-91450000D02*
X142500000Y-90950000D01*
%TO.C,C4*%
X141500000Y-89750000D02*
X141500000Y-90250000D01*
X141500000Y-90250000D02*
X142500000Y-90250000D01*
X142500000Y-89750000D02*
X141500000Y-89750000D01*
X142500000Y-90250000D02*
X142500000Y-89750000D01*
%TO.C,C12*%
X135500000Y-89350000D02*
X135500000Y-89850000D01*
X135500000Y-89850000D02*
X136500000Y-89850000D01*
X136500000Y-89350000D02*
X135500000Y-89350000D01*
X136500000Y-89850000D02*
X136500000Y-89350000D01*
%TO.C,C14*%
X135250000Y-87300000D02*
X135250000Y-88300000D01*
X135250000Y-88300000D02*
X135750000Y-88300000D01*
X135750000Y-87300000D02*
X135250000Y-87300000D01*
X135750000Y-88300000D02*
X135750000Y-87300000D01*
%TD*%
M02*
