%TF.GenerationSoftware,KiCad,Pcbnew,9.0.3*%
%TF.CreationDate,2025-08-19T15:48:34+02:00*%
%TF.ProjectId,blocky_breakout_pcb,626c6f63-6b79-45f6-9272-65616b6f7574,rev?*%
%TF.SameCoordinates,Original*%
%TF.FileFunction,Legend,Top*%
%TF.FilePolarity,Positive*%
%FSLAX46Y46*%
G04 Gerber Fmt 4.6, Leading zero omitted, Abs format (unit mm)*
G04 Created by KiCad (PCBNEW 9.0.3) date 2025-08-19 15:48:34*
%MOMM*%
%LPD*%
G01*
G04 APERTURE LIST*
%ADD10C,0.200000*%
%ADD11C,0.300000*%
%ADD12C,0.150000*%
%ADD13C,0.120000*%
G04 APERTURE END LIST*
D10*
X124447780Y-126330326D02*
X124447780Y-125854136D01*
X124447780Y-125854136D02*
X123971590Y-125806517D01*
X123971590Y-125806517D02*
X124019209Y-125854136D01*
X124019209Y-125854136D02*
X124066828Y-125949374D01*
X124066828Y-125949374D02*
X124066828Y-126187469D01*
X124066828Y-126187469D02*
X124019209Y-126282707D01*
X124019209Y-126282707D02*
X123971590Y-126330326D01*
X123971590Y-126330326D02*
X123876352Y-126377945D01*
X123876352Y-126377945D02*
X123638257Y-126377945D01*
X123638257Y-126377945D02*
X123543019Y-126330326D01*
X123543019Y-126330326D02*
X123495400Y-126282707D01*
X123495400Y-126282707D02*
X123447780Y-126187469D01*
X123447780Y-126187469D02*
X123447780Y-125949374D01*
X123447780Y-125949374D02*
X123495400Y-125854136D01*
X123495400Y-125854136D02*
X123543019Y-125806517D01*
X155379400Y-123996993D02*
X155331780Y-124139850D01*
X155331780Y-124139850D02*
X155331780Y-124377945D01*
X155331780Y-124377945D02*
X155379400Y-124473183D01*
X155379400Y-124473183D02*
X155427019Y-124520802D01*
X155427019Y-124520802D02*
X155522257Y-124568421D01*
X155522257Y-124568421D02*
X155617495Y-124568421D01*
X155617495Y-124568421D02*
X155712733Y-124520802D01*
X155712733Y-124520802D02*
X155760352Y-124473183D01*
X155760352Y-124473183D02*
X155807971Y-124377945D01*
X155807971Y-124377945D02*
X155855590Y-124187469D01*
X155855590Y-124187469D02*
X155903209Y-124092231D01*
X155903209Y-124092231D02*
X155950828Y-124044612D01*
X155950828Y-124044612D02*
X156046066Y-123996993D01*
X156046066Y-123996993D02*
X156141304Y-123996993D01*
X156141304Y-123996993D02*
X156236542Y-124044612D01*
X156236542Y-124044612D02*
X156284161Y-124092231D01*
X156284161Y-124092231D02*
X156331780Y-124187469D01*
X156331780Y-124187469D02*
X156331780Y-124425564D01*
X156331780Y-124425564D02*
X156284161Y-124568421D01*
X155427019Y-125568421D02*
X155379400Y-125520802D01*
X155379400Y-125520802D02*
X155331780Y-125377945D01*
X155331780Y-125377945D02*
X155331780Y-125282707D01*
X155331780Y-125282707D02*
X155379400Y-125139850D01*
X155379400Y-125139850D02*
X155474638Y-125044612D01*
X155474638Y-125044612D02*
X155569876Y-124996993D01*
X155569876Y-124996993D02*
X155760352Y-124949374D01*
X155760352Y-124949374D02*
X155903209Y-124949374D01*
X155903209Y-124949374D02*
X156093685Y-124996993D01*
X156093685Y-124996993D02*
X156188923Y-125044612D01*
X156188923Y-125044612D02*
X156284161Y-125139850D01*
X156284161Y-125139850D02*
X156331780Y-125282707D01*
X156331780Y-125282707D02*
X156331780Y-125377945D01*
X156331780Y-125377945D02*
X156284161Y-125520802D01*
X156284161Y-125520802D02*
X156236542Y-125568421D01*
X155331780Y-126473183D02*
X155331780Y-125996993D01*
X155331780Y-125996993D02*
X156331780Y-125996993D01*
X139847780Y-66474435D02*
X139847780Y-67093482D01*
X139847780Y-67093482D02*
X139466828Y-66760149D01*
X139466828Y-66760149D02*
X139466828Y-66903006D01*
X139466828Y-66903006D02*
X139419209Y-66998244D01*
X139419209Y-66998244D02*
X139371590Y-67045863D01*
X139371590Y-67045863D02*
X139276352Y-67093482D01*
X139276352Y-67093482D02*
X139038257Y-67093482D01*
X139038257Y-67093482D02*
X138943019Y-67045863D01*
X138943019Y-67045863D02*
X138895400Y-66998244D01*
X138895400Y-66998244D02*
X138847780Y-66903006D01*
X138847780Y-66903006D02*
X138847780Y-66617292D01*
X138847780Y-66617292D02*
X138895400Y-66522054D01*
X138895400Y-66522054D02*
X138943019Y-66474435D01*
X138943019Y-67522054D02*
X138895400Y-67569673D01*
X138895400Y-67569673D02*
X138847780Y-67522054D01*
X138847780Y-67522054D02*
X138895400Y-67474435D01*
X138895400Y-67474435D02*
X138943019Y-67522054D01*
X138943019Y-67522054D02*
X138847780Y-67522054D01*
X139847780Y-67903006D02*
X139847780Y-68522053D01*
X139847780Y-68522053D02*
X139466828Y-68188720D01*
X139466828Y-68188720D02*
X139466828Y-68331577D01*
X139466828Y-68331577D02*
X139419209Y-68426815D01*
X139419209Y-68426815D02*
X139371590Y-68474434D01*
X139371590Y-68474434D02*
X139276352Y-68522053D01*
X139276352Y-68522053D02*
X139038257Y-68522053D01*
X139038257Y-68522053D02*
X138943019Y-68474434D01*
X138943019Y-68474434D02*
X138895400Y-68426815D01*
X138895400Y-68426815D02*
X138847780Y-68331577D01*
X138847780Y-68331577D02*
X138847780Y-68045863D01*
X138847780Y-68045863D02*
X138895400Y-67950625D01*
X138895400Y-67950625D02*
X138943019Y-67903006D01*
X139847780Y-68807768D02*
X138847780Y-69141101D01*
X138847780Y-69141101D02*
X139847780Y-69474434D01*
X116233495Y-66522054D02*
X116233495Y-66998244D01*
X115947780Y-66426816D02*
X116947780Y-66760149D01*
X116947780Y-66760149D02*
X115947780Y-67093482D01*
X116947780Y-67331578D02*
X116947780Y-67950625D01*
X116947780Y-67950625D02*
X116566828Y-67617292D01*
X116566828Y-67617292D02*
X116566828Y-67760149D01*
X116566828Y-67760149D02*
X116519209Y-67855387D01*
X116519209Y-67855387D02*
X116471590Y-67903006D01*
X116471590Y-67903006D02*
X116376352Y-67950625D01*
X116376352Y-67950625D02*
X116138257Y-67950625D01*
X116138257Y-67950625D02*
X116043019Y-67903006D01*
X116043019Y-67903006D02*
X115995400Y-67855387D01*
X115995400Y-67855387D02*
X115947780Y-67760149D01*
X115947780Y-67760149D02*
X115947780Y-67474435D01*
X115947780Y-67474435D02*
X115995400Y-67379197D01*
X115995400Y-67379197D02*
X116043019Y-67331578D01*
X111133495Y-66522054D02*
X111133495Y-66998244D01*
X110847780Y-66426816D02*
X111847780Y-66760149D01*
X111847780Y-66760149D02*
X110847780Y-67093482D01*
X111847780Y-67903006D02*
X111847780Y-67426816D01*
X111847780Y-67426816D02*
X111371590Y-67379197D01*
X111371590Y-67379197D02*
X111419209Y-67426816D01*
X111419209Y-67426816D02*
X111466828Y-67522054D01*
X111466828Y-67522054D02*
X111466828Y-67760149D01*
X111466828Y-67760149D02*
X111419209Y-67855387D01*
X111419209Y-67855387D02*
X111371590Y-67903006D01*
X111371590Y-67903006D02*
X111276352Y-67950625D01*
X111276352Y-67950625D02*
X111038257Y-67950625D01*
X111038257Y-67950625D02*
X110943019Y-67903006D01*
X110943019Y-67903006D02*
X110895400Y-67855387D01*
X110895400Y-67855387D02*
X110847780Y-67760149D01*
X110847780Y-67760149D02*
X110847780Y-67522054D01*
X110847780Y-67522054D02*
X110895400Y-67426816D01*
X110895400Y-67426816D02*
X110943019Y-67379197D01*
X141147780Y-67141101D02*
X141623971Y-66807768D01*
X141147780Y-66569673D02*
X142147780Y-66569673D01*
X142147780Y-66569673D02*
X142147780Y-66950625D01*
X142147780Y-66950625D02*
X142100161Y-67045863D01*
X142100161Y-67045863D02*
X142052542Y-67093482D01*
X142052542Y-67093482D02*
X141957304Y-67141101D01*
X141957304Y-67141101D02*
X141814447Y-67141101D01*
X141814447Y-67141101D02*
X141719209Y-67093482D01*
X141719209Y-67093482D02*
X141671590Y-67045863D01*
X141671590Y-67045863D02*
X141623971Y-66950625D01*
X141623971Y-66950625D02*
X141623971Y-66569673D01*
X141195400Y-67522054D02*
X141147780Y-67664911D01*
X141147780Y-67664911D02*
X141147780Y-67903006D01*
X141147780Y-67903006D02*
X141195400Y-67998244D01*
X141195400Y-67998244D02*
X141243019Y-68045863D01*
X141243019Y-68045863D02*
X141338257Y-68093482D01*
X141338257Y-68093482D02*
X141433495Y-68093482D01*
X141433495Y-68093482D02*
X141528733Y-68045863D01*
X141528733Y-68045863D02*
X141576352Y-67998244D01*
X141576352Y-67998244D02*
X141623971Y-67903006D01*
X141623971Y-67903006D02*
X141671590Y-67712530D01*
X141671590Y-67712530D02*
X141719209Y-67617292D01*
X141719209Y-67617292D02*
X141766828Y-67569673D01*
X141766828Y-67569673D02*
X141862066Y-67522054D01*
X141862066Y-67522054D02*
X141957304Y-67522054D01*
X141957304Y-67522054D02*
X142052542Y-67569673D01*
X142052542Y-67569673D02*
X142100161Y-67617292D01*
X142100161Y-67617292D02*
X142147780Y-67712530D01*
X142147780Y-67712530D02*
X142147780Y-67950625D01*
X142147780Y-67950625D02*
X142100161Y-68093482D01*
X142147780Y-68379197D02*
X142147780Y-68950625D01*
X141147780Y-68664911D02*
X142147780Y-68664911D01*
X137247780Y-67045863D02*
X137247780Y-66569673D01*
X137247780Y-66569673D02*
X136771590Y-66522054D01*
X136771590Y-66522054D02*
X136819209Y-66569673D01*
X136819209Y-66569673D02*
X136866828Y-66664911D01*
X136866828Y-66664911D02*
X136866828Y-66903006D01*
X136866828Y-66903006D02*
X136819209Y-66998244D01*
X136819209Y-66998244D02*
X136771590Y-67045863D01*
X136771590Y-67045863D02*
X136676352Y-67093482D01*
X136676352Y-67093482D02*
X136438257Y-67093482D01*
X136438257Y-67093482D02*
X136343019Y-67045863D01*
X136343019Y-67045863D02*
X136295400Y-66998244D01*
X136295400Y-66998244D02*
X136247780Y-66903006D01*
X136247780Y-66903006D02*
X136247780Y-66664911D01*
X136247780Y-66664911D02*
X136295400Y-66569673D01*
X136295400Y-66569673D02*
X136343019Y-66522054D01*
X137247780Y-67379197D02*
X136247780Y-67712530D01*
X136247780Y-67712530D02*
X137247780Y-68045863D01*
D11*
X156211653Y-80800828D02*
X155711653Y-80086542D01*
X155354510Y-80800828D02*
X155354510Y-79300828D01*
X155354510Y-79300828D02*
X155925939Y-79300828D01*
X155925939Y-79300828D02*
X156068796Y-79372257D01*
X156068796Y-79372257D02*
X156140225Y-79443685D01*
X156140225Y-79443685D02*
X156211653Y-79586542D01*
X156211653Y-79586542D02*
X156211653Y-79800828D01*
X156211653Y-79800828D02*
X156140225Y-79943685D01*
X156140225Y-79943685D02*
X156068796Y-80015114D01*
X156068796Y-80015114D02*
X155925939Y-80086542D01*
X155925939Y-80086542D02*
X155354510Y-80086542D01*
X156854510Y-79300828D02*
X156854510Y-80515114D01*
X156854510Y-80515114D02*
X156925939Y-80657971D01*
X156925939Y-80657971D02*
X156997368Y-80729400D01*
X156997368Y-80729400D02*
X157140225Y-80800828D01*
X157140225Y-80800828D02*
X157425939Y-80800828D01*
X157425939Y-80800828D02*
X157568796Y-80729400D01*
X157568796Y-80729400D02*
X157640225Y-80657971D01*
X157640225Y-80657971D02*
X157711653Y-80515114D01*
X157711653Y-80515114D02*
X157711653Y-79300828D01*
X158425939Y-80800828D02*
X158425939Y-79300828D01*
X158425939Y-79300828D02*
X159283082Y-80800828D01*
X159283082Y-80800828D02*
X159283082Y-79300828D01*
D10*
X148784161Y-124282707D02*
X148831780Y-124187469D01*
X148831780Y-124187469D02*
X148831780Y-124044612D01*
X148831780Y-124044612D02*
X148784161Y-123901755D01*
X148784161Y-123901755D02*
X148688923Y-123806517D01*
X148688923Y-123806517D02*
X148593685Y-123758898D01*
X148593685Y-123758898D02*
X148403209Y-123711279D01*
X148403209Y-123711279D02*
X148260352Y-123711279D01*
X148260352Y-123711279D02*
X148069876Y-123758898D01*
X148069876Y-123758898D02*
X147974638Y-123806517D01*
X147974638Y-123806517D02*
X147879400Y-123901755D01*
X147879400Y-123901755D02*
X147831780Y-124044612D01*
X147831780Y-124044612D02*
X147831780Y-124139850D01*
X147831780Y-124139850D02*
X147879400Y-124282707D01*
X147879400Y-124282707D02*
X147927019Y-124330326D01*
X147927019Y-124330326D02*
X148260352Y-124330326D01*
X148260352Y-124330326D02*
X148260352Y-124139850D01*
X147831780Y-124758898D02*
X148831780Y-124758898D01*
X148831780Y-124758898D02*
X147831780Y-125330326D01*
X147831780Y-125330326D02*
X148831780Y-125330326D01*
X147831780Y-125806517D02*
X148831780Y-125806517D01*
X148831780Y-125806517D02*
X148831780Y-126044612D01*
X148831780Y-126044612D02*
X148784161Y-126187469D01*
X148784161Y-126187469D02*
X148688923Y-126282707D01*
X148688923Y-126282707D02*
X148593685Y-126330326D01*
X148593685Y-126330326D02*
X148403209Y-126377945D01*
X148403209Y-126377945D02*
X148260352Y-126377945D01*
X148260352Y-126377945D02*
X148069876Y-126330326D01*
X148069876Y-126330326D02*
X147974638Y-126282707D01*
X147974638Y-126282707D02*
X147879400Y-126187469D01*
X147879400Y-126187469D02*
X147831780Y-126044612D01*
X147831780Y-126044612D02*
X147831780Y-125806517D01*
X126847780Y-126282707D02*
X126847780Y-126092231D01*
X126847780Y-126092231D02*
X126800161Y-125996993D01*
X126800161Y-125996993D02*
X126752542Y-125949374D01*
X126752542Y-125949374D02*
X126609685Y-125854136D01*
X126609685Y-125854136D02*
X126419209Y-125806517D01*
X126419209Y-125806517D02*
X126038257Y-125806517D01*
X126038257Y-125806517D02*
X125943019Y-125854136D01*
X125943019Y-125854136D02*
X125895400Y-125901755D01*
X125895400Y-125901755D02*
X125847780Y-125996993D01*
X125847780Y-125996993D02*
X125847780Y-126187469D01*
X125847780Y-126187469D02*
X125895400Y-126282707D01*
X125895400Y-126282707D02*
X125943019Y-126330326D01*
X125943019Y-126330326D02*
X126038257Y-126377945D01*
X126038257Y-126377945D02*
X126276352Y-126377945D01*
X126276352Y-126377945D02*
X126371590Y-126330326D01*
X126371590Y-126330326D02*
X126419209Y-126282707D01*
X126419209Y-126282707D02*
X126466828Y-126187469D01*
X126466828Y-126187469D02*
X126466828Y-125996993D01*
X126466828Y-125996993D02*
X126419209Y-125901755D01*
X126419209Y-125901755D02*
X126371590Y-125854136D01*
X126371590Y-125854136D02*
X126276352Y-125806517D01*
X118833495Y-66522054D02*
X118833495Y-66998244D01*
X118547780Y-66426816D02*
X119547780Y-66760149D01*
X119547780Y-66760149D02*
X118547780Y-67093482D01*
X119452542Y-67379197D02*
X119500161Y-67426816D01*
X119500161Y-67426816D02*
X119547780Y-67522054D01*
X119547780Y-67522054D02*
X119547780Y-67760149D01*
X119547780Y-67760149D02*
X119500161Y-67855387D01*
X119500161Y-67855387D02*
X119452542Y-67903006D01*
X119452542Y-67903006D02*
X119357304Y-67950625D01*
X119357304Y-67950625D02*
X119262066Y-67950625D01*
X119262066Y-67950625D02*
X119119209Y-67903006D01*
X119119209Y-67903006D02*
X118547780Y-67331578D01*
X118547780Y-67331578D02*
X118547780Y-67950625D01*
X129647780Y-125758898D02*
X129647780Y-126425564D01*
X129647780Y-126425564D02*
X128647780Y-125996993D01*
X113347780Y-126377945D02*
X113347780Y-125806517D01*
X113347780Y-126092231D02*
X114347780Y-126092231D01*
X114347780Y-126092231D02*
X114204923Y-125996993D01*
X114204923Y-125996993D02*
X114109685Y-125901755D01*
X114109685Y-125901755D02*
X114062066Y-125806517D01*
X137831780Y-125425564D02*
X137831780Y-124854136D01*
X137831780Y-125139850D02*
X138831780Y-125139850D01*
X138831780Y-125139850D02*
X138688923Y-125044612D01*
X138688923Y-125044612D02*
X138593685Y-124949374D01*
X138593685Y-124949374D02*
X138546066Y-124854136D01*
X138831780Y-126044612D02*
X138831780Y-126139850D01*
X138831780Y-126139850D02*
X138784161Y-126235088D01*
X138784161Y-126235088D02*
X138736542Y-126282707D01*
X138736542Y-126282707D02*
X138641304Y-126330326D01*
X138641304Y-126330326D02*
X138450828Y-126377945D01*
X138450828Y-126377945D02*
X138212733Y-126377945D01*
X138212733Y-126377945D02*
X138022257Y-126330326D01*
X138022257Y-126330326D02*
X137927019Y-126282707D01*
X137927019Y-126282707D02*
X137879400Y-126235088D01*
X137879400Y-126235088D02*
X137831780Y-126139850D01*
X137831780Y-126139850D02*
X137831780Y-126044612D01*
X137831780Y-126044612D02*
X137879400Y-125949374D01*
X137879400Y-125949374D02*
X137927019Y-125901755D01*
X137927019Y-125901755D02*
X138022257Y-125854136D01*
X138022257Y-125854136D02*
X138212733Y-125806517D01*
X138212733Y-125806517D02*
X138450828Y-125806517D01*
X138450828Y-125806517D02*
X138641304Y-125854136D01*
X138641304Y-125854136D02*
X138736542Y-125901755D01*
X138736542Y-125901755D02*
X138784161Y-125949374D01*
X138784161Y-125949374D02*
X138831780Y-126044612D01*
X121714447Y-126282707D02*
X121047780Y-126282707D01*
X122095400Y-126044612D02*
X121381114Y-125806517D01*
X121381114Y-125806517D02*
X121381114Y-126425564D01*
X140231780Y-125425564D02*
X140231780Y-124854136D01*
X140231780Y-125139850D02*
X141231780Y-125139850D01*
X141231780Y-125139850D02*
X141088923Y-125044612D01*
X141088923Y-125044612D02*
X140993685Y-124949374D01*
X140993685Y-124949374D02*
X140946066Y-124854136D01*
X140231780Y-126377945D02*
X140231780Y-125806517D01*
X140231780Y-126092231D02*
X141231780Y-126092231D01*
X141231780Y-126092231D02*
X141088923Y-125996993D01*
X141088923Y-125996993D02*
X140993685Y-125901755D01*
X140993685Y-125901755D02*
X140946066Y-125806517D01*
X152979400Y-123949374D02*
X152931780Y-124092231D01*
X152931780Y-124092231D02*
X152931780Y-124330326D01*
X152931780Y-124330326D02*
X152979400Y-124425564D01*
X152979400Y-124425564D02*
X153027019Y-124473183D01*
X153027019Y-124473183D02*
X153122257Y-124520802D01*
X153122257Y-124520802D02*
X153217495Y-124520802D01*
X153217495Y-124520802D02*
X153312733Y-124473183D01*
X153312733Y-124473183D02*
X153360352Y-124425564D01*
X153360352Y-124425564D02*
X153407971Y-124330326D01*
X153407971Y-124330326D02*
X153455590Y-124139850D01*
X153455590Y-124139850D02*
X153503209Y-124044612D01*
X153503209Y-124044612D02*
X153550828Y-123996993D01*
X153550828Y-123996993D02*
X153646066Y-123949374D01*
X153646066Y-123949374D02*
X153741304Y-123949374D01*
X153741304Y-123949374D02*
X153836542Y-123996993D01*
X153836542Y-123996993D02*
X153884161Y-124044612D01*
X153884161Y-124044612D02*
X153931780Y-124139850D01*
X153931780Y-124139850D02*
X153931780Y-124377945D01*
X153931780Y-124377945D02*
X153884161Y-124520802D01*
X152931780Y-124949374D02*
X153931780Y-124949374D01*
X153931780Y-124949374D02*
X153931780Y-125187469D01*
X153931780Y-125187469D02*
X153884161Y-125330326D01*
X153884161Y-125330326D02*
X153788923Y-125425564D01*
X153788923Y-125425564D02*
X153693685Y-125473183D01*
X153693685Y-125473183D02*
X153503209Y-125520802D01*
X153503209Y-125520802D02*
X153360352Y-125520802D01*
X153360352Y-125520802D02*
X153169876Y-125473183D01*
X153169876Y-125473183D02*
X153074638Y-125425564D01*
X153074638Y-125425564D02*
X152979400Y-125330326D01*
X152979400Y-125330326D02*
X152931780Y-125187469D01*
X152931780Y-125187469D02*
X152931780Y-124949374D01*
X153217495Y-125901755D02*
X153217495Y-126377945D01*
X152931780Y-125806517D02*
X153931780Y-126139850D01*
X153931780Y-126139850D02*
X152931780Y-126473183D01*
X116852542Y-125806517D02*
X116900161Y-125854136D01*
X116900161Y-125854136D02*
X116947780Y-125949374D01*
X116947780Y-125949374D02*
X116947780Y-126187469D01*
X116947780Y-126187469D02*
X116900161Y-126282707D01*
X116900161Y-126282707D02*
X116852542Y-126330326D01*
X116852542Y-126330326D02*
X116757304Y-126377945D01*
X116757304Y-126377945D02*
X116662066Y-126377945D01*
X116662066Y-126377945D02*
X116519209Y-126330326D01*
X116519209Y-126330326D02*
X115947780Y-125758898D01*
X115947780Y-125758898D02*
X115947780Y-126377945D01*
X145431780Y-125425564D02*
X145431780Y-124854136D01*
X145431780Y-125139850D02*
X146431780Y-125139850D01*
X146431780Y-125139850D02*
X146288923Y-125044612D01*
X146288923Y-125044612D02*
X146193685Y-124949374D01*
X146193685Y-124949374D02*
X146146066Y-124854136D01*
X146431780Y-125758898D02*
X146431780Y-126377945D01*
X146431780Y-126377945D02*
X146050828Y-126044612D01*
X146050828Y-126044612D02*
X146050828Y-126187469D01*
X146050828Y-126187469D02*
X146003209Y-126282707D01*
X146003209Y-126282707D02*
X145955590Y-126330326D01*
X145955590Y-126330326D02*
X145860352Y-126377945D01*
X145860352Y-126377945D02*
X145622257Y-126377945D01*
X145622257Y-126377945D02*
X145527019Y-126330326D01*
X145527019Y-126330326D02*
X145479400Y-126282707D01*
X145479400Y-126282707D02*
X145431780Y-126187469D01*
X145431780Y-126187469D02*
X145431780Y-125901755D01*
X145431780Y-125901755D02*
X145479400Y-125806517D01*
X145479400Y-125806517D02*
X145527019Y-125758898D01*
X133303209Y-125996993D02*
X133350828Y-125901755D01*
X133350828Y-125901755D02*
X133398447Y-125854136D01*
X133398447Y-125854136D02*
X133493685Y-125806517D01*
X133493685Y-125806517D02*
X133541304Y-125806517D01*
X133541304Y-125806517D02*
X133636542Y-125854136D01*
X133636542Y-125854136D02*
X133684161Y-125901755D01*
X133684161Y-125901755D02*
X133731780Y-125996993D01*
X133731780Y-125996993D02*
X133731780Y-126187469D01*
X133731780Y-126187469D02*
X133684161Y-126282707D01*
X133684161Y-126282707D02*
X133636542Y-126330326D01*
X133636542Y-126330326D02*
X133541304Y-126377945D01*
X133541304Y-126377945D02*
X133493685Y-126377945D01*
X133493685Y-126377945D02*
X133398447Y-126330326D01*
X133398447Y-126330326D02*
X133350828Y-126282707D01*
X133350828Y-126282707D02*
X133303209Y-126187469D01*
X133303209Y-126187469D02*
X133303209Y-125996993D01*
X133303209Y-125996993D02*
X133255590Y-125901755D01*
X133255590Y-125901755D02*
X133207971Y-125854136D01*
X133207971Y-125854136D02*
X133112733Y-125806517D01*
X133112733Y-125806517D02*
X132922257Y-125806517D01*
X132922257Y-125806517D02*
X132827019Y-125854136D01*
X132827019Y-125854136D02*
X132779400Y-125901755D01*
X132779400Y-125901755D02*
X132731780Y-125996993D01*
X132731780Y-125996993D02*
X132731780Y-126187469D01*
X132731780Y-126187469D02*
X132779400Y-126282707D01*
X132779400Y-126282707D02*
X132827019Y-126330326D01*
X132827019Y-126330326D02*
X132922257Y-126377945D01*
X132922257Y-126377945D02*
X133112733Y-126377945D01*
X133112733Y-126377945D02*
X133207971Y-126330326D01*
X133207971Y-126330326D02*
X133255590Y-126282707D01*
X133255590Y-126282707D02*
X133303209Y-126187469D01*
X134600161Y-67093482D02*
X134647780Y-66998244D01*
X134647780Y-66998244D02*
X134647780Y-66855387D01*
X134647780Y-66855387D02*
X134600161Y-66712530D01*
X134600161Y-66712530D02*
X134504923Y-66617292D01*
X134504923Y-66617292D02*
X134409685Y-66569673D01*
X134409685Y-66569673D02*
X134219209Y-66522054D01*
X134219209Y-66522054D02*
X134076352Y-66522054D01*
X134076352Y-66522054D02*
X133885876Y-66569673D01*
X133885876Y-66569673D02*
X133790638Y-66617292D01*
X133790638Y-66617292D02*
X133695400Y-66712530D01*
X133695400Y-66712530D02*
X133647780Y-66855387D01*
X133647780Y-66855387D02*
X133647780Y-66950625D01*
X133647780Y-66950625D02*
X133695400Y-67093482D01*
X133695400Y-67093482D02*
X133743019Y-67141101D01*
X133743019Y-67141101D02*
X134076352Y-67141101D01*
X134076352Y-67141101D02*
X134076352Y-66950625D01*
X133647780Y-67569673D02*
X134647780Y-67569673D01*
X134647780Y-67569673D02*
X133647780Y-68141101D01*
X133647780Y-68141101D02*
X134647780Y-68141101D01*
X133647780Y-68617292D02*
X134647780Y-68617292D01*
X134647780Y-68617292D02*
X134647780Y-68855387D01*
X134647780Y-68855387D02*
X134600161Y-68998244D01*
X134600161Y-68998244D02*
X134504923Y-69093482D01*
X134504923Y-69093482D02*
X134409685Y-69141101D01*
X134409685Y-69141101D02*
X134219209Y-69188720D01*
X134219209Y-69188720D02*
X134076352Y-69188720D01*
X134076352Y-69188720D02*
X133885876Y-69141101D01*
X133885876Y-69141101D02*
X133790638Y-69093482D01*
X133790638Y-69093482D02*
X133695400Y-68998244D01*
X133695400Y-68998244D02*
X133647780Y-68855387D01*
X133647780Y-68855387D02*
X133647780Y-68617292D01*
D11*
X126264285Y-108792614D02*
X126478571Y-108864042D01*
X126478571Y-108864042D02*
X126550000Y-108935471D01*
X126550000Y-108935471D02*
X126621428Y-109078328D01*
X126621428Y-109078328D02*
X126621428Y-109292614D01*
X126621428Y-109292614D02*
X126550000Y-109435471D01*
X126550000Y-109435471D02*
X126478571Y-109506900D01*
X126478571Y-109506900D02*
X126335714Y-109578328D01*
X126335714Y-109578328D02*
X125764285Y-109578328D01*
X125764285Y-109578328D02*
X125764285Y-108078328D01*
X125764285Y-108078328D02*
X126264285Y-108078328D01*
X126264285Y-108078328D02*
X126407143Y-108149757D01*
X126407143Y-108149757D02*
X126478571Y-108221185D01*
X126478571Y-108221185D02*
X126550000Y-108364042D01*
X126550000Y-108364042D02*
X126550000Y-108506900D01*
X126550000Y-108506900D02*
X126478571Y-108649757D01*
X126478571Y-108649757D02*
X126407143Y-108721185D01*
X126407143Y-108721185D02*
X126264285Y-108792614D01*
X126264285Y-108792614D02*
X125764285Y-108792614D01*
X127550000Y-108078328D02*
X127835714Y-108078328D01*
X127835714Y-108078328D02*
X127978571Y-108149757D01*
X127978571Y-108149757D02*
X128121428Y-108292614D01*
X128121428Y-108292614D02*
X128192857Y-108578328D01*
X128192857Y-108578328D02*
X128192857Y-109078328D01*
X128192857Y-109078328D02*
X128121428Y-109364042D01*
X128121428Y-109364042D02*
X127978571Y-109506900D01*
X127978571Y-109506900D02*
X127835714Y-109578328D01*
X127835714Y-109578328D02*
X127550000Y-109578328D01*
X127550000Y-109578328D02*
X127407143Y-109506900D01*
X127407143Y-109506900D02*
X127264285Y-109364042D01*
X127264285Y-109364042D02*
X127192857Y-109078328D01*
X127192857Y-109078328D02*
X127192857Y-108578328D01*
X127192857Y-108578328D02*
X127264285Y-108292614D01*
X127264285Y-108292614D02*
X127407143Y-108149757D01*
X127407143Y-108149757D02*
X127550000Y-108078328D01*
X129121429Y-108078328D02*
X129407143Y-108078328D01*
X129407143Y-108078328D02*
X129550000Y-108149757D01*
X129550000Y-108149757D02*
X129692857Y-108292614D01*
X129692857Y-108292614D02*
X129764286Y-108578328D01*
X129764286Y-108578328D02*
X129764286Y-109078328D01*
X129764286Y-109078328D02*
X129692857Y-109364042D01*
X129692857Y-109364042D02*
X129550000Y-109506900D01*
X129550000Y-109506900D02*
X129407143Y-109578328D01*
X129407143Y-109578328D02*
X129121429Y-109578328D01*
X129121429Y-109578328D02*
X128978572Y-109506900D01*
X128978572Y-109506900D02*
X128835714Y-109364042D01*
X128835714Y-109364042D02*
X128764286Y-109078328D01*
X128764286Y-109078328D02*
X128764286Y-108578328D01*
X128764286Y-108578328D02*
X128835714Y-108292614D01*
X128835714Y-108292614D02*
X128978572Y-108149757D01*
X128978572Y-108149757D02*
X129121429Y-108078328D01*
X130192858Y-108078328D02*
X131050001Y-108078328D01*
X130621429Y-109578328D02*
X130621429Y-108078328D01*
X131478572Y-109506900D02*
X131692858Y-109578328D01*
X131692858Y-109578328D02*
X132050000Y-109578328D01*
X132050000Y-109578328D02*
X132192858Y-109506900D01*
X132192858Y-109506900D02*
X132264286Y-109435471D01*
X132264286Y-109435471D02*
X132335715Y-109292614D01*
X132335715Y-109292614D02*
X132335715Y-109149757D01*
X132335715Y-109149757D02*
X132264286Y-109006900D01*
X132264286Y-109006900D02*
X132192858Y-108935471D01*
X132192858Y-108935471D02*
X132050000Y-108864042D01*
X132050000Y-108864042D02*
X131764286Y-108792614D01*
X131764286Y-108792614D02*
X131621429Y-108721185D01*
X131621429Y-108721185D02*
X131550000Y-108649757D01*
X131550000Y-108649757D02*
X131478572Y-108506900D01*
X131478572Y-108506900D02*
X131478572Y-108364042D01*
X131478572Y-108364042D02*
X131550000Y-108221185D01*
X131550000Y-108221185D02*
X131621429Y-108149757D01*
X131621429Y-108149757D02*
X131764286Y-108078328D01*
X131764286Y-108078328D02*
X132121429Y-108078328D01*
X132121429Y-108078328D02*
X132335715Y-108149757D01*
X132978571Y-108792614D02*
X133478571Y-108792614D01*
X133692857Y-109578328D02*
X132978571Y-109578328D01*
X132978571Y-109578328D02*
X132978571Y-108078328D01*
X132978571Y-108078328D02*
X133692857Y-108078328D01*
X135050000Y-109578328D02*
X134335714Y-109578328D01*
X134335714Y-109578328D02*
X134335714Y-108078328D01*
D10*
X132100161Y-67093482D02*
X132147780Y-66998244D01*
X132147780Y-66998244D02*
X132147780Y-66855387D01*
X132147780Y-66855387D02*
X132100161Y-66712530D01*
X132100161Y-66712530D02*
X132004923Y-66617292D01*
X132004923Y-66617292D02*
X131909685Y-66569673D01*
X131909685Y-66569673D02*
X131719209Y-66522054D01*
X131719209Y-66522054D02*
X131576352Y-66522054D01*
X131576352Y-66522054D02*
X131385876Y-66569673D01*
X131385876Y-66569673D02*
X131290638Y-66617292D01*
X131290638Y-66617292D02*
X131195400Y-66712530D01*
X131195400Y-66712530D02*
X131147780Y-66855387D01*
X131147780Y-66855387D02*
X131147780Y-66950625D01*
X131147780Y-66950625D02*
X131195400Y-67093482D01*
X131195400Y-67093482D02*
X131243019Y-67141101D01*
X131243019Y-67141101D02*
X131576352Y-67141101D01*
X131576352Y-67141101D02*
X131576352Y-66950625D01*
X131147780Y-67569673D02*
X132147780Y-67569673D01*
X132147780Y-67569673D02*
X131147780Y-68141101D01*
X131147780Y-68141101D02*
X132147780Y-68141101D01*
X131147780Y-68617292D02*
X132147780Y-68617292D01*
X132147780Y-68617292D02*
X132147780Y-68855387D01*
X132147780Y-68855387D02*
X132100161Y-68998244D01*
X132100161Y-68998244D02*
X132004923Y-69093482D01*
X132004923Y-69093482D02*
X131909685Y-69141101D01*
X131909685Y-69141101D02*
X131719209Y-69188720D01*
X131719209Y-69188720D02*
X131576352Y-69188720D01*
X131576352Y-69188720D02*
X131385876Y-69141101D01*
X131385876Y-69141101D02*
X131290638Y-69093482D01*
X131290638Y-69093482D02*
X131195400Y-68998244D01*
X131195400Y-68998244D02*
X131147780Y-68855387D01*
X131147780Y-68855387D02*
X131147780Y-68617292D01*
X113933495Y-66522054D02*
X113933495Y-66998244D01*
X113647780Y-66426816D02*
X114647780Y-66760149D01*
X114647780Y-66760149D02*
X113647780Y-67093482D01*
X114314447Y-67855387D02*
X113647780Y-67855387D01*
X114695400Y-67617292D02*
X113981114Y-67379197D01*
X113981114Y-67379197D02*
X113981114Y-67998244D01*
X111947780Y-126044612D02*
X111947780Y-126139850D01*
X111947780Y-126139850D02*
X111900161Y-126235088D01*
X111900161Y-126235088D02*
X111852542Y-126282707D01*
X111852542Y-126282707D02*
X111757304Y-126330326D01*
X111757304Y-126330326D02*
X111566828Y-126377945D01*
X111566828Y-126377945D02*
X111328733Y-126377945D01*
X111328733Y-126377945D02*
X111138257Y-126330326D01*
X111138257Y-126330326D02*
X111043019Y-126282707D01*
X111043019Y-126282707D02*
X110995400Y-126235088D01*
X110995400Y-126235088D02*
X110947780Y-126139850D01*
X110947780Y-126139850D02*
X110947780Y-126044612D01*
X110947780Y-126044612D02*
X110995400Y-125949374D01*
X110995400Y-125949374D02*
X111043019Y-125901755D01*
X111043019Y-125901755D02*
X111138257Y-125854136D01*
X111138257Y-125854136D02*
X111328733Y-125806517D01*
X111328733Y-125806517D02*
X111566828Y-125806517D01*
X111566828Y-125806517D02*
X111757304Y-125854136D01*
X111757304Y-125854136D02*
X111852542Y-125901755D01*
X111852542Y-125901755D02*
X111900161Y-125949374D01*
X111900161Y-125949374D02*
X111947780Y-126044612D01*
X129447780Y-66426816D02*
X128447780Y-66760149D01*
X128447780Y-66760149D02*
X129447780Y-67093482D01*
X128447780Y-67426816D02*
X129447780Y-67426816D01*
X128447780Y-67903006D02*
X129447780Y-67903006D01*
X129447780Y-67903006D02*
X128447780Y-68474434D01*
X128447780Y-68474434D02*
X129447780Y-68474434D01*
X150817495Y-123139850D02*
X150817495Y-123616040D01*
X150531780Y-123044612D02*
X151531780Y-123377945D01*
X151531780Y-123377945D02*
X150531780Y-123711278D01*
X150531780Y-124616040D02*
X151007971Y-124282707D01*
X150531780Y-124044612D02*
X151531780Y-124044612D01*
X151531780Y-124044612D02*
X151531780Y-124425564D01*
X151531780Y-124425564D02*
X151484161Y-124520802D01*
X151484161Y-124520802D02*
X151436542Y-124568421D01*
X151436542Y-124568421D02*
X151341304Y-124616040D01*
X151341304Y-124616040D02*
X151198447Y-124616040D01*
X151198447Y-124616040D02*
X151103209Y-124568421D01*
X151103209Y-124568421D02*
X151055590Y-124520802D01*
X151055590Y-124520802D02*
X151007971Y-124425564D01*
X151007971Y-124425564D02*
X151007971Y-124044612D01*
X151055590Y-125044612D02*
X151055590Y-125377945D01*
X150531780Y-125520802D02*
X150531780Y-125044612D01*
X150531780Y-125044612D02*
X151531780Y-125044612D01*
X151531780Y-125044612D02*
X151531780Y-125520802D01*
X151055590Y-126282707D02*
X151055590Y-125949374D01*
X150531780Y-125949374D02*
X151531780Y-125949374D01*
X151531780Y-125949374D02*
X151531780Y-126425564D01*
X123833495Y-66522054D02*
X123833495Y-66998244D01*
X123547780Y-66426816D02*
X124547780Y-66760149D01*
X124547780Y-66760149D02*
X123547780Y-67093482D01*
X124547780Y-67617292D02*
X124547780Y-67712530D01*
X124547780Y-67712530D02*
X124500161Y-67807768D01*
X124500161Y-67807768D02*
X124452542Y-67855387D01*
X124452542Y-67855387D02*
X124357304Y-67903006D01*
X124357304Y-67903006D02*
X124166828Y-67950625D01*
X124166828Y-67950625D02*
X123928733Y-67950625D01*
X123928733Y-67950625D02*
X123738257Y-67903006D01*
X123738257Y-67903006D02*
X123643019Y-67855387D01*
X123643019Y-67855387D02*
X123595400Y-67807768D01*
X123595400Y-67807768D02*
X123547780Y-67712530D01*
X123547780Y-67712530D02*
X123547780Y-67617292D01*
X123547780Y-67617292D02*
X123595400Y-67522054D01*
X123595400Y-67522054D02*
X123643019Y-67474435D01*
X123643019Y-67474435D02*
X123738257Y-67426816D01*
X123738257Y-67426816D02*
X123928733Y-67379197D01*
X123928733Y-67379197D02*
X124166828Y-67379197D01*
X124166828Y-67379197D02*
X124357304Y-67426816D01*
X124357304Y-67426816D02*
X124452542Y-67474435D01*
X124452542Y-67474435D02*
X124500161Y-67522054D01*
X124500161Y-67522054D02*
X124547780Y-67617292D01*
X142631780Y-125425564D02*
X142631780Y-124854136D01*
X142631780Y-125139850D02*
X143631780Y-125139850D01*
X143631780Y-125139850D02*
X143488923Y-125044612D01*
X143488923Y-125044612D02*
X143393685Y-124949374D01*
X143393685Y-124949374D02*
X143346066Y-124854136D01*
X143536542Y-125806517D02*
X143584161Y-125854136D01*
X143584161Y-125854136D02*
X143631780Y-125949374D01*
X143631780Y-125949374D02*
X143631780Y-126187469D01*
X143631780Y-126187469D02*
X143584161Y-126282707D01*
X143584161Y-126282707D02*
X143536542Y-126330326D01*
X143536542Y-126330326D02*
X143441304Y-126377945D01*
X143441304Y-126377945D02*
X143346066Y-126377945D01*
X143346066Y-126377945D02*
X143203209Y-126330326D01*
X143203209Y-126330326D02*
X142631780Y-125758898D01*
X142631780Y-125758898D02*
X142631780Y-126377945D01*
X135131780Y-125901755D02*
X135131780Y-126092231D01*
X135131780Y-126092231D02*
X135179400Y-126187469D01*
X135179400Y-126187469D02*
X135227019Y-126235088D01*
X135227019Y-126235088D02*
X135369876Y-126330326D01*
X135369876Y-126330326D02*
X135560352Y-126377945D01*
X135560352Y-126377945D02*
X135941304Y-126377945D01*
X135941304Y-126377945D02*
X136036542Y-126330326D01*
X136036542Y-126330326D02*
X136084161Y-126282707D01*
X136084161Y-126282707D02*
X136131780Y-126187469D01*
X136131780Y-126187469D02*
X136131780Y-125996993D01*
X136131780Y-125996993D02*
X136084161Y-125901755D01*
X136084161Y-125901755D02*
X136036542Y-125854136D01*
X136036542Y-125854136D02*
X135941304Y-125806517D01*
X135941304Y-125806517D02*
X135703209Y-125806517D01*
X135703209Y-125806517D02*
X135607971Y-125854136D01*
X135607971Y-125854136D02*
X135560352Y-125901755D01*
X135560352Y-125901755D02*
X135512733Y-125996993D01*
X135512733Y-125996993D02*
X135512733Y-126187469D01*
X135512733Y-126187469D02*
X135560352Y-126282707D01*
X135560352Y-126282707D02*
X135607971Y-126330326D01*
X135607971Y-126330326D02*
X135703209Y-126377945D01*
X121333495Y-66522054D02*
X121333495Y-66998244D01*
X121047780Y-66426816D02*
X122047780Y-66760149D01*
X122047780Y-66760149D02*
X121047780Y-67093482D01*
X121047780Y-67950625D02*
X121047780Y-67379197D01*
X121047780Y-67664911D02*
X122047780Y-67664911D01*
X122047780Y-67664911D02*
X121904923Y-67569673D01*
X121904923Y-67569673D02*
X121809685Y-67474435D01*
X121809685Y-67474435D02*
X121762066Y-67379197D01*
X119347780Y-125758898D02*
X119347780Y-126377945D01*
X119347780Y-126377945D02*
X118966828Y-126044612D01*
X118966828Y-126044612D02*
X118966828Y-126187469D01*
X118966828Y-126187469D02*
X118919209Y-126282707D01*
X118919209Y-126282707D02*
X118871590Y-126330326D01*
X118871590Y-126330326D02*
X118776352Y-126377945D01*
X118776352Y-126377945D02*
X118538257Y-126377945D01*
X118538257Y-126377945D02*
X118443019Y-126330326D01*
X118443019Y-126330326D02*
X118395400Y-126282707D01*
X118395400Y-126282707D02*
X118347780Y-126187469D01*
X118347780Y-126187469D02*
X118347780Y-125901755D01*
X118347780Y-125901755D02*
X118395400Y-125806517D01*
X118395400Y-125806517D02*
X118443019Y-125758898D01*
X143747780Y-66569673D02*
X144747780Y-66569673D01*
X144747780Y-67236339D02*
X144747780Y-67426815D01*
X144747780Y-67426815D02*
X144700161Y-67522053D01*
X144700161Y-67522053D02*
X144604923Y-67617291D01*
X144604923Y-67617291D02*
X144414447Y-67664910D01*
X144414447Y-67664910D02*
X144081114Y-67664910D01*
X144081114Y-67664910D02*
X143890638Y-67617291D01*
X143890638Y-67617291D02*
X143795400Y-67522053D01*
X143795400Y-67522053D02*
X143747780Y-67426815D01*
X143747780Y-67426815D02*
X143747780Y-67236339D01*
X143747780Y-67236339D02*
X143795400Y-67141101D01*
X143795400Y-67141101D02*
X143890638Y-67045863D01*
X143890638Y-67045863D02*
X144081114Y-66998244D01*
X144081114Y-66998244D02*
X144414447Y-66998244D01*
X144414447Y-66998244D02*
X144604923Y-67045863D01*
X144604923Y-67045863D02*
X144700161Y-67141101D01*
X144700161Y-67141101D02*
X144747780Y-67236339D01*
X143747780Y-68664910D02*
X144223971Y-68331577D01*
X143747780Y-68093482D02*
X144747780Y-68093482D01*
X144747780Y-68093482D02*
X144747780Y-68474434D01*
X144747780Y-68474434D02*
X144700161Y-68569672D01*
X144700161Y-68569672D02*
X144652542Y-68617291D01*
X144652542Y-68617291D02*
X144557304Y-68664910D01*
X144557304Y-68664910D02*
X144414447Y-68664910D01*
X144414447Y-68664910D02*
X144319209Y-68617291D01*
X144319209Y-68617291D02*
X144271590Y-68569672D01*
X144271590Y-68569672D02*
X144223971Y-68474434D01*
X144223971Y-68474434D02*
X144223971Y-68093482D01*
X144271590Y-69093482D02*
X144271590Y-69426815D01*
X143747780Y-69569672D02*
X143747780Y-69093482D01*
X143747780Y-69093482D02*
X144747780Y-69093482D01*
X144747780Y-69093482D02*
X144747780Y-69569672D01*
X144271590Y-70331577D02*
X144271590Y-69998244D01*
X143747780Y-69998244D02*
X144747780Y-69998244D01*
X144747780Y-69998244D02*
X144747780Y-70474434D01*
D12*
X156485714Y-110886104D02*
X156447618Y-110924200D01*
X156447618Y-110924200D02*
X156333333Y-110962295D01*
X156333333Y-110962295D02*
X156257142Y-110962295D01*
X156257142Y-110962295D02*
X156142856Y-110924200D01*
X156142856Y-110924200D02*
X156066666Y-110848009D01*
X156066666Y-110848009D02*
X156028571Y-110771819D01*
X156028571Y-110771819D02*
X155990475Y-110619438D01*
X155990475Y-110619438D02*
X155990475Y-110505152D01*
X155990475Y-110505152D02*
X156028571Y-110352771D01*
X156028571Y-110352771D02*
X156066666Y-110276580D01*
X156066666Y-110276580D02*
X156142856Y-110200390D01*
X156142856Y-110200390D02*
X156257142Y-110162295D01*
X156257142Y-110162295D02*
X156333333Y-110162295D01*
X156333333Y-110162295D02*
X156447618Y-110200390D01*
X156447618Y-110200390D02*
X156485714Y-110238485D01*
X156790475Y-110238485D02*
X156828571Y-110200390D01*
X156828571Y-110200390D02*
X156904761Y-110162295D01*
X156904761Y-110162295D02*
X157095237Y-110162295D01*
X157095237Y-110162295D02*
X157171428Y-110200390D01*
X157171428Y-110200390D02*
X157209523Y-110238485D01*
X157209523Y-110238485D02*
X157247618Y-110314676D01*
X157247618Y-110314676D02*
X157247618Y-110390866D01*
X157247618Y-110390866D02*
X157209523Y-110505152D01*
X157209523Y-110505152D02*
X156752380Y-110962295D01*
X156752380Y-110962295D02*
X157247618Y-110962295D01*
X157933333Y-110162295D02*
X157780952Y-110162295D01*
X157780952Y-110162295D02*
X157704761Y-110200390D01*
X157704761Y-110200390D02*
X157666666Y-110238485D01*
X157666666Y-110238485D02*
X157590476Y-110352771D01*
X157590476Y-110352771D02*
X157552380Y-110505152D01*
X157552380Y-110505152D02*
X157552380Y-110809914D01*
X157552380Y-110809914D02*
X157590476Y-110886104D01*
X157590476Y-110886104D02*
X157628571Y-110924200D01*
X157628571Y-110924200D02*
X157704761Y-110962295D01*
X157704761Y-110962295D02*
X157857142Y-110962295D01*
X157857142Y-110962295D02*
X157933333Y-110924200D01*
X157933333Y-110924200D02*
X157971428Y-110886104D01*
X157971428Y-110886104D02*
X158009523Y-110809914D01*
X158009523Y-110809914D02*
X158009523Y-110619438D01*
X158009523Y-110619438D02*
X157971428Y-110543247D01*
X157971428Y-110543247D02*
X157933333Y-110505152D01*
X157933333Y-110505152D02*
X157857142Y-110467057D01*
X157857142Y-110467057D02*
X157704761Y-110467057D01*
X157704761Y-110467057D02*
X157628571Y-110505152D01*
X157628571Y-110505152D02*
X157590476Y-110543247D01*
X157590476Y-110543247D02*
X157552380Y-110619438D01*
X146585714Y-109562295D02*
X146319047Y-109181342D01*
X146128571Y-109562295D02*
X146128571Y-108762295D01*
X146128571Y-108762295D02*
X146433333Y-108762295D01*
X146433333Y-108762295D02*
X146509523Y-108800390D01*
X146509523Y-108800390D02*
X146547618Y-108838485D01*
X146547618Y-108838485D02*
X146585714Y-108914676D01*
X146585714Y-108914676D02*
X146585714Y-109028961D01*
X146585714Y-109028961D02*
X146547618Y-109105152D01*
X146547618Y-109105152D02*
X146509523Y-109143247D01*
X146509523Y-109143247D02*
X146433333Y-109181342D01*
X146433333Y-109181342D02*
X146128571Y-109181342D01*
X147347618Y-109562295D02*
X146890475Y-109562295D01*
X147119047Y-109562295D02*
X147119047Y-108762295D01*
X147119047Y-108762295D02*
X147042856Y-108876580D01*
X147042856Y-108876580D02*
X146966666Y-108952771D01*
X146966666Y-108952771D02*
X146890475Y-108990866D01*
X147652380Y-108838485D02*
X147690476Y-108800390D01*
X147690476Y-108800390D02*
X147766666Y-108762295D01*
X147766666Y-108762295D02*
X147957142Y-108762295D01*
X147957142Y-108762295D02*
X148033333Y-108800390D01*
X148033333Y-108800390D02*
X148071428Y-108838485D01*
X148071428Y-108838485D02*
X148109523Y-108914676D01*
X148109523Y-108914676D02*
X148109523Y-108990866D01*
X148109523Y-108990866D02*
X148071428Y-109105152D01*
X148071428Y-109105152D02*
X147614285Y-109562295D01*
X147614285Y-109562295D02*
X148109523Y-109562295D01*
X143286104Y-82433332D02*
X143324200Y-82471428D01*
X143324200Y-82471428D02*
X143362295Y-82585713D01*
X143362295Y-82585713D02*
X143362295Y-82661904D01*
X143362295Y-82661904D02*
X143324200Y-82776190D01*
X143324200Y-82776190D02*
X143248009Y-82852380D01*
X143248009Y-82852380D02*
X143171819Y-82890475D01*
X143171819Y-82890475D02*
X143019438Y-82928571D01*
X143019438Y-82928571D02*
X142905152Y-82928571D01*
X142905152Y-82928571D02*
X142752771Y-82890475D01*
X142752771Y-82890475D02*
X142676580Y-82852380D01*
X142676580Y-82852380D02*
X142600390Y-82776190D01*
X142600390Y-82776190D02*
X142562295Y-82661904D01*
X142562295Y-82661904D02*
X142562295Y-82585713D01*
X142562295Y-82585713D02*
X142600390Y-82471428D01*
X142600390Y-82471428D02*
X142638485Y-82433332D01*
X142905152Y-81976190D02*
X142867057Y-82052380D01*
X142867057Y-82052380D02*
X142828961Y-82090475D01*
X142828961Y-82090475D02*
X142752771Y-82128571D01*
X142752771Y-82128571D02*
X142714676Y-82128571D01*
X142714676Y-82128571D02*
X142638485Y-82090475D01*
X142638485Y-82090475D02*
X142600390Y-82052380D01*
X142600390Y-82052380D02*
X142562295Y-81976190D01*
X142562295Y-81976190D02*
X142562295Y-81823809D01*
X142562295Y-81823809D02*
X142600390Y-81747618D01*
X142600390Y-81747618D02*
X142638485Y-81709523D01*
X142638485Y-81709523D02*
X142714676Y-81671428D01*
X142714676Y-81671428D02*
X142752771Y-81671428D01*
X142752771Y-81671428D02*
X142828961Y-81709523D01*
X142828961Y-81709523D02*
X142867057Y-81747618D01*
X142867057Y-81747618D02*
X142905152Y-81823809D01*
X142905152Y-81823809D02*
X142905152Y-81976190D01*
X142905152Y-81976190D02*
X142943247Y-82052380D01*
X142943247Y-82052380D02*
X142981342Y-82090475D01*
X142981342Y-82090475D02*
X143057533Y-82128571D01*
X143057533Y-82128571D02*
X143209914Y-82128571D01*
X143209914Y-82128571D02*
X143286104Y-82090475D01*
X143286104Y-82090475D02*
X143324200Y-82052380D01*
X143324200Y-82052380D02*
X143362295Y-81976190D01*
X143362295Y-81976190D02*
X143362295Y-81823809D01*
X143362295Y-81823809D02*
X143324200Y-81747618D01*
X143324200Y-81747618D02*
X143286104Y-81709523D01*
X143286104Y-81709523D02*
X143209914Y-81671428D01*
X143209914Y-81671428D02*
X143057533Y-81671428D01*
X143057533Y-81671428D02*
X142981342Y-81709523D01*
X142981342Y-81709523D02*
X142943247Y-81747618D01*
X142943247Y-81747618D02*
X142905152Y-81823809D01*
X129690476Y-95362295D02*
X129690476Y-96009914D01*
X129690476Y-96009914D02*
X129728571Y-96086104D01*
X129728571Y-96086104D02*
X129766666Y-96124200D01*
X129766666Y-96124200D02*
X129842857Y-96162295D01*
X129842857Y-96162295D02*
X129995238Y-96162295D01*
X129995238Y-96162295D02*
X130071428Y-96124200D01*
X130071428Y-96124200D02*
X130109523Y-96086104D01*
X130109523Y-96086104D02*
X130147619Y-96009914D01*
X130147619Y-96009914D02*
X130147619Y-95362295D01*
X130947618Y-96162295D02*
X130490475Y-96162295D01*
X130719047Y-96162295D02*
X130719047Y-95362295D01*
X130719047Y-95362295D02*
X130642856Y-95476580D01*
X130642856Y-95476580D02*
X130566666Y-95552771D01*
X130566666Y-95552771D02*
X130490475Y-95590866D01*
X116585714Y-109286104D02*
X116547618Y-109324200D01*
X116547618Y-109324200D02*
X116433333Y-109362295D01*
X116433333Y-109362295D02*
X116357142Y-109362295D01*
X116357142Y-109362295D02*
X116242856Y-109324200D01*
X116242856Y-109324200D02*
X116166666Y-109248009D01*
X116166666Y-109248009D02*
X116128571Y-109171819D01*
X116128571Y-109171819D02*
X116090475Y-109019438D01*
X116090475Y-109019438D02*
X116090475Y-108905152D01*
X116090475Y-108905152D02*
X116128571Y-108752771D01*
X116128571Y-108752771D02*
X116166666Y-108676580D01*
X116166666Y-108676580D02*
X116242856Y-108600390D01*
X116242856Y-108600390D02*
X116357142Y-108562295D01*
X116357142Y-108562295D02*
X116433333Y-108562295D01*
X116433333Y-108562295D02*
X116547618Y-108600390D01*
X116547618Y-108600390D02*
X116585714Y-108638485D01*
X116890475Y-108638485D02*
X116928571Y-108600390D01*
X116928571Y-108600390D02*
X117004761Y-108562295D01*
X117004761Y-108562295D02*
X117195237Y-108562295D01*
X117195237Y-108562295D02*
X117271428Y-108600390D01*
X117271428Y-108600390D02*
X117309523Y-108638485D01*
X117309523Y-108638485D02*
X117347618Y-108714676D01*
X117347618Y-108714676D02*
X117347618Y-108790866D01*
X117347618Y-108790866D02*
X117309523Y-108905152D01*
X117309523Y-108905152D02*
X116852380Y-109362295D01*
X116852380Y-109362295D02*
X117347618Y-109362295D01*
X117804761Y-108905152D02*
X117728571Y-108867057D01*
X117728571Y-108867057D02*
X117690476Y-108828961D01*
X117690476Y-108828961D02*
X117652380Y-108752771D01*
X117652380Y-108752771D02*
X117652380Y-108714676D01*
X117652380Y-108714676D02*
X117690476Y-108638485D01*
X117690476Y-108638485D02*
X117728571Y-108600390D01*
X117728571Y-108600390D02*
X117804761Y-108562295D01*
X117804761Y-108562295D02*
X117957142Y-108562295D01*
X117957142Y-108562295D02*
X118033333Y-108600390D01*
X118033333Y-108600390D02*
X118071428Y-108638485D01*
X118071428Y-108638485D02*
X118109523Y-108714676D01*
X118109523Y-108714676D02*
X118109523Y-108752771D01*
X118109523Y-108752771D02*
X118071428Y-108828961D01*
X118071428Y-108828961D02*
X118033333Y-108867057D01*
X118033333Y-108867057D02*
X117957142Y-108905152D01*
X117957142Y-108905152D02*
X117804761Y-108905152D01*
X117804761Y-108905152D02*
X117728571Y-108943247D01*
X117728571Y-108943247D02*
X117690476Y-108981342D01*
X117690476Y-108981342D02*
X117652380Y-109057533D01*
X117652380Y-109057533D02*
X117652380Y-109209914D01*
X117652380Y-109209914D02*
X117690476Y-109286104D01*
X117690476Y-109286104D02*
X117728571Y-109324200D01*
X117728571Y-109324200D02*
X117804761Y-109362295D01*
X117804761Y-109362295D02*
X117957142Y-109362295D01*
X117957142Y-109362295D02*
X118033333Y-109324200D01*
X118033333Y-109324200D02*
X118071428Y-109286104D01*
X118071428Y-109286104D02*
X118109523Y-109209914D01*
X118109523Y-109209914D02*
X118109523Y-109057533D01*
X118109523Y-109057533D02*
X118071428Y-108981342D01*
X118071428Y-108981342D02*
X118033333Y-108943247D01*
X118033333Y-108943247D02*
X117957142Y-108905152D01*
X155286104Y-116914285D02*
X155324200Y-116952381D01*
X155324200Y-116952381D02*
X155362295Y-117066666D01*
X155362295Y-117066666D02*
X155362295Y-117142857D01*
X155362295Y-117142857D02*
X155324200Y-117257143D01*
X155324200Y-117257143D02*
X155248009Y-117333333D01*
X155248009Y-117333333D02*
X155171819Y-117371428D01*
X155171819Y-117371428D02*
X155019438Y-117409524D01*
X155019438Y-117409524D02*
X154905152Y-117409524D01*
X154905152Y-117409524D02*
X154752771Y-117371428D01*
X154752771Y-117371428D02*
X154676580Y-117333333D01*
X154676580Y-117333333D02*
X154600390Y-117257143D01*
X154600390Y-117257143D02*
X154562295Y-117142857D01*
X154562295Y-117142857D02*
X154562295Y-117066666D01*
X154562295Y-117066666D02*
X154600390Y-116952381D01*
X154600390Y-116952381D02*
X154638485Y-116914285D01*
X154638485Y-116609524D02*
X154600390Y-116571428D01*
X154600390Y-116571428D02*
X154562295Y-116495238D01*
X154562295Y-116495238D02*
X154562295Y-116304762D01*
X154562295Y-116304762D02*
X154600390Y-116228571D01*
X154600390Y-116228571D02*
X154638485Y-116190476D01*
X154638485Y-116190476D02*
X154714676Y-116152381D01*
X154714676Y-116152381D02*
X154790866Y-116152381D01*
X154790866Y-116152381D02*
X154905152Y-116190476D01*
X154905152Y-116190476D02*
X155362295Y-116647619D01*
X155362295Y-116647619D02*
X155362295Y-116152381D01*
X154562295Y-115428571D02*
X154562295Y-115809523D01*
X154562295Y-115809523D02*
X154943247Y-115847619D01*
X154943247Y-115847619D02*
X154905152Y-115809523D01*
X154905152Y-115809523D02*
X154867057Y-115733333D01*
X154867057Y-115733333D02*
X154867057Y-115542857D01*
X154867057Y-115542857D02*
X154905152Y-115466666D01*
X154905152Y-115466666D02*
X154943247Y-115428571D01*
X154943247Y-115428571D02*
X155019438Y-115390476D01*
X155019438Y-115390476D02*
X155209914Y-115390476D01*
X155209914Y-115390476D02*
X155286104Y-115428571D01*
X155286104Y-115428571D02*
X155324200Y-115466666D01*
X155324200Y-115466666D02*
X155362295Y-115542857D01*
X155362295Y-115542857D02*
X155362295Y-115733333D01*
X155362295Y-115733333D02*
X155324200Y-115809523D01*
X155324200Y-115809523D02*
X155286104Y-115847619D01*
X134962295Y-80126785D02*
X134581342Y-80393452D01*
X134962295Y-80583928D02*
X134162295Y-80583928D01*
X134162295Y-80583928D02*
X134162295Y-80279166D01*
X134162295Y-80279166D02*
X134200390Y-80202976D01*
X134200390Y-80202976D02*
X134238485Y-80164881D01*
X134238485Y-80164881D02*
X134314676Y-80126785D01*
X134314676Y-80126785D02*
X134428961Y-80126785D01*
X134428961Y-80126785D02*
X134505152Y-80164881D01*
X134505152Y-80164881D02*
X134543247Y-80202976D01*
X134543247Y-80202976D02*
X134581342Y-80279166D01*
X134581342Y-80279166D02*
X134581342Y-80583928D01*
X134962295Y-79364881D02*
X134962295Y-79822024D01*
X134962295Y-79593452D02*
X134162295Y-79593452D01*
X134162295Y-79593452D02*
X134276580Y-79669643D01*
X134276580Y-79669643D02*
X134352771Y-79745833D01*
X134352771Y-79745833D02*
X134390866Y-79822024D01*
X134962295Y-78983928D02*
X134962295Y-78831547D01*
X134962295Y-78831547D02*
X134924200Y-78755357D01*
X134924200Y-78755357D02*
X134886104Y-78717261D01*
X134886104Y-78717261D02*
X134771819Y-78641071D01*
X134771819Y-78641071D02*
X134619438Y-78602976D01*
X134619438Y-78602976D02*
X134314676Y-78602976D01*
X134314676Y-78602976D02*
X134238485Y-78641071D01*
X134238485Y-78641071D02*
X134200390Y-78679166D01*
X134200390Y-78679166D02*
X134162295Y-78755357D01*
X134162295Y-78755357D02*
X134162295Y-78907738D01*
X134162295Y-78907738D02*
X134200390Y-78983928D01*
X134200390Y-78983928D02*
X134238485Y-79022023D01*
X134238485Y-79022023D02*
X134314676Y-79060119D01*
X134314676Y-79060119D02*
X134505152Y-79060119D01*
X134505152Y-79060119D02*
X134581342Y-79022023D01*
X134581342Y-79022023D02*
X134619438Y-78983928D01*
X134619438Y-78983928D02*
X134657533Y-78907738D01*
X134657533Y-78907738D02*
X134657533Y-78755357D01*
X134657533Y-78755357D02*
X134619438Y-78679166D01*
X134619438Y-78679166D02*
X134581342Y-78641071D01*
X134581342Y-78641071D02*
X134505152Y-78602976D01*
X158042295Y-90404285D02*
X157661342Y-90670952D01*
X158042295Y-90861428D02*
X157242295Y-90861428D01*
X157242295Y-90861428D02*
X157242295Y-90556666D01*
X157242295Y-90556666D02*
X157280390Y-90480476D01*
X157280390Y-90480476D02*
X157318485Y-90442381D01*
X157318485Y-90442381D02*
X157394676Y-90404285D01*
X157394676Y-90404285D02*
X157508961Y-90404285D01*
X157508961Y-90404285D02*
X157585152Y-90442381D01*
X157585152Y-90442381D02*
X157623247Y-90480476D01*
X157623247Y-90480476D02*
X157661342Y-90556666D01*
X157661342Y-90556666D02*
X157661342Y-90861428D01*
X157318485Y-90099524D02*
X157280390Y-90061428D01*
X157280390Y-90061428D02*
X157242295Y-89985238D01*
X157242295Y-89985238D02*
X157242295Y-89794762D01*
X157242295Y-89794762D02*
X157280390Y-89718571D01*
X157280390Y-89718571D02*
X157318485Y-89680476D01*
X157318485Y-89680476D02*
X157394676Y-89642381D01*
X157394676Y-89642381D02*
X157470866Y-89642381D01*
X157470866Y-89642381D02*
X157585152Y-89680476D01*
X157585152Y-89680476D02*
X158042295Y-90137619D01*
X158042295Y-90137619D02*
X158042295Y-89642381D01*
X157318485Y-89337619D02*
X157280390Y-89299523D01*
X157280390Y-89299523D02*
X157242295Y-89223333D01*
X157242295Y-89223333D02*
X157242295Y-89032857D01*
X157242295Y-89032857D02*
X157280390Y-88956666D01*
X157280390Y-88956666D02*
X157318485Y-88918571D01*
X157318485Y-88918571D02*
X157394676Y-88880476D01*
X157394676Y-88880476D02*
X157470866Y-88880476D01*
X157470866Y-88880476D02*
X157585152Y-88918571D01*
X157585152Y-88918571D02*
X158042295Y-89375714D01*
X158042295Y-89375714D02*
X158042295Y-88880476D01*
X147966667Y-86462295D02*
X147700000Y-86081342D01*
X147509524Y-86462295D02*
X147509524Y-85662295D01*
X147509524Y-85662295D02*
X147814286Y-85662295D01*
X147814286Y-85662295D02*
X147890476Y-85700390D01*
X147890476Y-85700390D02*
X147928571Y-85738485D01*
X147928571Y-85738485D02*
X147966667Y-85814676D01*
X147966667Y-85814676D02*
X147966667Y-85928961D01*
X147966667Y-85928961D02*
X147928571Y-86005152D01*
X147928571Y-86005152D02*
X147890476Y-86043247D01*
X147890476Y-86043247D02*
X147814286Y-86081342D01*
X147814286Y-86081342D02*
X147509524Y-86081342D01*
X148690476Y-85662295D02*
X148309524Y-85662295D01*
X148309524Y-85662295D02*
X148271428Y-86043247D01*
X148271428Y-86043247D02*
X148309524Y-86005152D01*
X148309524Y-86005152D02*
X148385714Y-85967057D01*
X148385714Y-85967057D02*
X148576190Y-85967057D01*
X148576190Y-85967057D02*
X148652381Y-86005152D01*
X148652381Y-86005152D02*
X148690476Y-86043247D01*
X148690476Y-86043247D02*
X148728571Y-86119438D01*
X148728571Y-86119438D02*
X148728571Y-86309914D01*
X148728571Y-86309914D02*
X148690476Y-86386104D01*
X148690476Y-86386104D02*
X148652381Y-86424200D01*
X148652381Y-86424200D02*
X148576190Y-86462295D01*
X148576190Y-86462295D02*
X148385714Y-86462295D01*
X148385714Y-86462295D02*
X148309524Y-86424200D01*
X148309524Y-86424200D02*
X148271428Y-86386104D01*
X126324200Y-106166667D02*
X126362295Y-106052381D01*
X126362295Y-106052381D02*
X126362295Y-105861905D01*
X126362295Y-105861905D02*
X126324200Y-105785714D01*
X126324200Y-105785714D02*
X126286104Y-105747619D01*
X126286104Y-105747619D02*
X126209914Y-105709524D01*
X126209914Y-105709524D02*
X126133723Y-105709524D01*
X126133723Y-105709524D02*
X126057533Y-105747619D01*
X126057533Y-105747619D02*
X126019438Y-105785714D01*
X126019438Y-105785714D02*
X125981342Y-105861905D01*
X125981342Y-105861905D02*
X125943247Y-106014286D01*
X125943247Y-106014286D02*
X125905152Y-106090476D01*
X125905152Y-106090476D02*
X125867057Y-106128571D01*
X125867057Y-106128571D02*
X125790866Y-106166667D01*
X125790866Y-106166667D02*
X125714676Y-106166667D01*
X125714676Y-106166667D02*
X125638485Y-106128571D01*
X125638485Y-106128571D02*
X125600390Y-106090476D01*
X125600390Y-106090476D02*
X125562295Y-106014286D01*
X125562295Y-106014286D02*
X125562295Y-105823809D01*
X125562295Y-105823809D02*
X125600390Y-105709524D01*
X125562295Y-105442857D02*
X126362295Y-105252381D01*
X126362295Y-105252381D02*
X125790866Y-105100000D01*
X125790866Y-105100000D02*
X126362295Y-104947619D01*
X126362295Y-104947619D02*
X125562295Y-104757143D01*
X126362295Y-104033333D02*
X126362295Y-104490476D01*
X126362295Y-104261904D02*
X125562295Y-104261904D01*
X125562295Y-104261904D02*
X125676580Y-104338095D01*
X125676580Y-104338095D02*
X125752771Y-104414285D01*
X125752771Y-104414285D02*
X125790866Y-104490476D01*
X177923809Y-98038485D02*
X177847619Y-98000390D01*
X177847619Y-98000390D02*
X177771428Y-97924200D01*
X177771428Y-97924200D02*
X177657142Y-97809914D01*
X177657142Y-97809914D02*
X177580952Y-97771819D01*
X177580952Y-97771819D02*
X177504761Y-97771819D01*
X177542857Y-97962295D02*
X177466666Y-97924200D01*
X177466666Y-97924200D02*
X177390476Y-97848009D01*
X177390476Y-97848009D02*
X177352380Y-97695628D01*
X177352380Y-97695628D02*
X177352380Y-97428961D01*
X177352380Y-97428961D02*
X177390476Y-97276580D01*
X177390476Y-97276580D02*
X177466666Y-97200390D01*
X177466666Y-97200390D02*
X177542857Y-97162295D01*
X177542857Y-97162295D02*
X177695238Y-97162295D01*
X177695238Y-97162295D02*
X177771428Y-97200390D01*
X177771428Y-97200390D02*
X177847619Y-97276580D01*
X177847619Y-97276580D02*
X177885714Y-97428961D01*
X177885714Y-97428961D02*
X177885714Y-97695628D01*
X177885714Y-97695628D02*
X177847619Y-97848009D01*
X177847619Y-97848009D02*
X177771428Y-97924200D01*
X177771428Y-97924200D02*
X177695238Y-97962295D01*
X177695238Y-97962295D02*
X177542857Y-97962295D01*
X178190475Y-97238485D02*
X178228571Y-97200390D01*
X178228571Y-97200390D02*
X178304761Y-97162295D01*
X178304761Y-97162295D02*
X178495237Y-97162295D01*
X178495237Y-97162295D02*
X178571428Y-97200390D01*
X178571428Y-97200390D02*
X178609523Y-97238485D01*
X178609523Y-97238485D02*
X178647618Y-97314676D01*
X178647618Y-97314676D02*
X178647618Y-97390866D01*
X178647618Y-97390866D02*
X178609523Y-97505152D01*
X178609523Y-97505152D02*
X178152380Y-97962295D01*
X178152380Y-97962295D02*
X178647618Y-97962295D01*
X126833333Y-89062295D02*
X126833333Y-89633723D01*
X126833333Y-89633723D02*
X126795238Y-89748009D01*
X126795238Y-89748009D02*
X126719047Y-89824200D01*
X126719047Y-89824200D02*
X126604762Y-89862295D01*
X126604762Y-89862295D02*
X126528571Y-89862295D01*
X127214286Y-89862295D02*
X127214286Y-89062295D01*
X127214286Y-89062295D02*
X127519048Y-89062295D01*
X127519048Y-89062295D02*
X127595238Y-89100390D01*
X127595238Y-89100390D02*
X127633333Y-89138485D01*
X127633333Y-89138485D02*
X127671429Y-89214676D01*
X127671429Y-89214676D02*
X127671429Y-89328961D01*
X127671429Y-89328961D02*
X127633333Y-89405152D01*
X127633333Y-89405152D02*
X127595238Y-89443247D01*
X127595238Y-89443247D02*
X127519048Y-89481342D01*
X127519048Y-89481342D02*
X127214286Y-89481342D01*
X127976190Y-89138485D02*
X128014286Y-89100390D01*
X128014286Y-89100390D02*
X128090476Y-89062295D01*
X128090476Y-89062295D02*
X128280952Y-89062295D01*
X128280952Y-89062295D02*
X128357143Y-89100390D01*
X128357143Y-89100390D02*
X128395238Y-89138485D01*
X128395238Y-89138485D02*
X128433333Y-89214676D01*
X128433333Y-89214676D02*
X128433333Y-89290866D01*
X128433333Y-89290866D02*
X128395238Y-89405152D01*
X128395238Y-89405152D02*
X127938095Y-89862295D01*
X127938095Y-89862295D02*
X128433333Y-89862295D01*
X153462295Y-113309523D02*
X154109914Y-113309523D01*
X154109914Y-113309523D02*
X154186104Y-113271428D01*
X154186104Y-113271428D02*
X154224200Y-113233333D01*
X154224200Y-113233333D02*
X154262295Y-113157142D01*
X154262295Y-113157142D02*
X154262295Y-113004761D01*
X154262295Y-113004761D02*
X154224200Y-112928571D01*
X154224200Y-112928571D02*
X154186104Y-112890476D01*
X154186104Y-112890476D02*
X154109914Y-112852380D01*
X154109914Y-112852380D02*
X153462295Y-112852380D01*
X153462295Y-112090476D02*
X153462295Y-112471428D01*
X153462295Y-112471428D02*
X153843247Y-112509524D01*
X153843247Y-112509524D02*
X153805152Y-112471428D01*
X153805152Y-112471428D02*
X153767057Y-112395238D01*
X153767057Y-112395238D02*
X153767057Y-112204762D01*
X153767057Y-112204762D02*
X153805152Y-112128571D01*
X153805152Y-112128571D02*
X153843247Y-112090476D01*
X153843247Y-112090476D02*
X153919438Y-112052381D01*
X153919438Y-112052381D02*
X154109914Y-112052381D01*
X154109914Y-112052381D02*
X154186104Y-112090476D01*
X154186104Y-112090476D02*
X154224200Y-112128571D01*
X154224200Y-112128571D02*
X154262295Y-112204762D01*
X154262295Y-112204762D02*
X154262295Y-112395238D01*
X154262295Y-112395238D02*
X154224200Y-112471428D01*
X154224200Y-112471428D02*
X154186104Y-112509524D01*
X158562295Y-113409523D02*
X159209914Y-113409523D01*
X159209914Y-113409523D02*
X159286104Y-113371428D01*
X159286104Y-113371428D02*
X159324200Y-113333333D01*
X159324200Y-113333333D02*
X159362295Y-113257142D01*
X159362295Y-113257142D02*
X159362295Y-113104761D01*
X159362295Y-113104761D02*
X159324200Y-113028571D01*
X159324200Y-113028571D02*
X159286104Y-112990476D01*
X159286104Y-112990476D02*
X159209914Y-112952380D01*
X159209914Y-112952380D02*
X158562295Y-112952380D01*
X158562295Y-112647619D02*
X158562295Y-112114285D01*
X158562295Y-112114285D02*
X159362295Y-112457143D01*
X179909524Y-97512295D02*
X179909524Y-96712295D01*
X179909524Y-96712295D02*
X180100000Y-96712295D01*
X180100000Y-96712295D02*
X180214286Y-96750390D01*
X180214286Y-96750390D02*
X180290476Y-96826580D01*
X180290476Y-96826580D02*
X180328571Y-96902771D01*
X180328571Y-96902771D02*
X180366667Y-97055152D01*
X180366667Y-97055152D02*
X180366667Y-97169438D01*
X180366667Y-97169438D02*
X180328571Y-97321819D01*
X180328571Y-97321819D02*
X180290476Y-97398009D01*
X180290476Y-97398009D02*
X180214286Y-97474200D01*
X180214286Y-97474200D02*
X180100000Y-97512295D01*
X180100000Y-97512295D02*
X179909524Y-97512295D01*
X180633333Y-96712295D02*
X181128571Y-96712295D01*
X181128571Y-96712295D02*
X180861905Y-97017057D01*
X180861905Y-97017057D02*
X180976190Y-97017057D01*
X180976190Y-97017057D02*
X181052381Y-97055152D01*
X181052381Y-97055152D02*
X181090476Y-97093247D01*
X181090476Y-97093247D02*
X181128571Y-97169438D01*
X181128571Y-97169438D02*
X181128571Y-97359914D01*
X181128571Y-97359914D02*
X181090476Y-97436104D01*
X181090476Y-97436104D02*
X181052381Y-97474200D01*
X181052381Y-97474200D02*
X180976190Y-97512295D01*
X180976190Y-97512295D02*
X180747619Y-97512295D01*
X180747619Y-97512295D02*
X180671428Y-97474200D01*
X180671428Y-97474200D02*
X180633333Y-97436104D01*
X122286104Y-100733332D02*
X122324200Y-100771428D01*
X122324200Y-100771428D02*
X122362295Y-100885713D01*
X122362295Y-100885713D02*
X122362295Y-100961904D01*
X122362295Y-100961904D02*
X122324200Y-101076190D01*
X122324200Y-101076190D02*
X122248009Y-101152380D01*
X122248009Y-101152380D02*
X122171819Y-101190475D01*
X122171819Y-101190475D02*
X122019438Y-101228571D01*
X122019438Y-101228571D02*
X121905152Y-101228571D01*
X121905152Y-101228571D02*
X121752771Y-101190475D01*
X121752771Y-101190475D02*
X121676580Y-101152380D01*
X121676580Y-101152380D02*
X121600390Y-101076190D01*
X121600390Y-101076190D02*
X121562295Y-100961904D01*
X121562295Y-100961904D02*
X121562295Y-100885713D01*
X121562295Y-100885713D02*
X121600390Y-100771428D01*
X121600390Y-100771428D02*
X121638485Y-100733332D01*
X122362295Y-99971428D02*
X122362295Y-100428571D01*
X122362295Y-100199999D02*
X121562295Y-100199999D01*
X121562295Y-100199999D02*
X121676580Y-100276190D01*
X121676580Y-100276190D02*
X121752771Y-100352380D01*
X121752771Y-100352380D02*
X121790866Y-100428571D01*
X130462295Y-83133332D02*
X130081342Y-83399999D01*
X130462295Y-83590475D02*
X129662295Y-83590475D01*
X129662295Y-83590475D02*
X129662295Y-83285713D01*
X129662295Y-83285713D02*
X129700390Y-83209523D01*
X129700390Y-83209523D02*
X129738485Y-83171428D01*
X129738485Y-83171428D02*
X129814676Y-83133332D01*
X129814676Y-83133332D02*
X129928961Y-83133332D01*
X129928961Y-83133332D02*
X130005152Y-83171428D01*
X130005152Y-83171428D02*
X130043247Y-83209523D01*
X130043247Y-83209523D02*
X130081342Y-83285713D01*
X130081342Y-83285713D02*
X130081342Y-83590475D01*
X129662295Y-82866666D02*
X129662295Y-82333332D01*
X129662295Y-82333332D02*
X130462295Y-82676190D01*
X172409524Y-95762295D02*
X172409524Y-94962295D01*
X172866667Y-95762295D02*
X172523809Y-95305152D01*
X172866667Y-94962295D02*
X172409524Y-95419438D01*
X173628571Y-95762295D02*
X173171428Y-95762295D01*
X173400000Y-95762295D02*
X173400000Y-94962295D01*
X173400000Y-94962295D02*
X173323809Y-95076580D01*
X173323809Y-95076580D02*
X173247619Y-95152771D01*
X173247619Y-95152771D02*
X173171428Y-95190866D01*
X156122024Y-105097295D02*
X156122024Y-104297295D01*
X156122024Y-104297295D02*
X156312500Y-104297295D01*
X156312500Y-104297295D02*
X156426786Y-104335390D01*
X156426786Y-104335390D02*
X156502976Y-104411580D01*
X156502976Y-104411580D02*
X156541071Y-104487771D01*
X156541071Y-104487771D02*
X156579167Y-104640152D01*
X156579167Y-104640152D02*
X156579167Y-104754438D01*
X156579167Y-104754438D02*
X156541071Y-104906819D01*
X156541071Y-104906819D02*
X156502976Y-104983009D01*
X156502976Y-104983009D02*
X156426786Y-105059200D01*
X156426786Y-105059200D02*
X156312500Y-105097295D01*
X156312500Y-105097295D02*
X156122024Y-105097295D01*
X157341071Y-105097295D02*
X156883928Y-105097295D01*
X157112500Y-105097295D02*
X157112500Y-104297295D01*
X157112500Y-104297295D02*
X157036309Y-104411580D01*
X157036309Y-104411580D02*
X156960119Y-104487771D01*
X156960119Y-104487771D02*
X156883928Y-104525866D01*
X130566667Y-84562295D02*
X130300000Y-84181342D01*
X130109524Y-84562295D02*
X130109524Y-83762295D01*
X130109524Y-83762295D02*
X130414286Y-83762295D01*
X130414286Y-83762295D02*
X130490476Y-83800390D01*
X130490476Y-83800390D02*
X130528571Y-83838485D01*
X130528571Y-83838485D02*
X130566667Y-83914676D01*
X130566667Y-83914676D02*
X130566667Y-84028961D01*
X130566667Y-84028961D02*
X130528571Y-84105152D01*
X130528571Y-84105152D02*
X130490476Y-84143247D01*
X130490476Y-84143247D02*
X130414286Y-84181342D01*
X130414286Y-84181342D02*
X130109524Y-84181342D01*
X131252381Y-84028961D02*
X131252381Y-84562295D01*
X131061905Y-83724200D02*
X130871428Y-84295628D01*
X130871428Y-84295628D02*
X131366667Y-84295628D01*
X175362295Y-96314285D02*
X174981342Y-96580952D01*
X175362295Y-96771428D02*
X174562295Y-96771428D01*
X174562295Y-96771428D02*
X174562295Y-96466666D01*
X174562295Y-96466666D02*
X174600390Y-96390476D01*
X174600390Y-96390476D02*
X174638485Y-96352381D01*
X174638485Y-96352381D02*
X174714676Y-96314285D01*
X174714676Y-96314285D02*
X174828961Y-96314285D01*
X174828961Y-96314285D02*
X174905152Y-96352381D01*
X174905152Y-96352381D02*
X174943247Y-96390476D01*
X174943247Y-96390476D02*
X174981342Y-96466666D01*
X174981342Y-96466666D02*
X174981342Y-96771428D01*
X175362295Y-95552381D02*
X175362295Y-96009524D01*
X175362295Y-95780952D02*
X174562295Y-95780952D01*
X174562295Y-95780952D02*
X174676580Y-95857143D01*
X174676580Y-95857143D02*
X174752771Y-95933333D01*
X174752771Y-95933333D02*
X174790866Y-96009524D01*
X174562295Y-95285714D02*
X174562295Y-94752380D01*
X174562295Y-94752380D02*
X175362295Y-95095238D01*
X134662295Y-77702975D02*
X133862295Y-77702975D01*
X133862295Y-77702975D02*
X133862295Y-77512499D01*
X133862295Y-77512499D02*
X133900390Y-77398213D01*
X133900390Y-77398213D02*
X133976580Y-77322023D01*
X133976580Y-77322023D02*
X134052771Y-77283928D01*
X134052771Y-77283928D02*
X134205152Y-77245832D01*
X134205152Y-77245832D02*
X134319438Y-77245832D01*
X134319438Y-77245832D02*
X134471819Y-77283928D01*
X134471819Y-77283928D02*
X134548009Y-77322023D01*
X134548009Y-77322023D02*
X134624200Y-77398213D01*
X134624200Y-77398213D02*
X134662295Y-77512499D01*
X134662295Y-77512499D02*
X134662295Y-77702975D01*
X133862295Y-76522023D02*
X133862295Y-76902975D01*
X133862295Y-76902975D02*
X134243247Y-76941071D01*
X134243247Y-76941071D02*
X134205152Y-76902975D01*
X134205152Y-76902975D02*
X134167057Y-76826785D01*
X134167057Y-76826785D02*
X134167057Y-76636309D01*
X134167057Y-76636309D02*
X134205152Y-76560118D01*
X134205152Y-76560118D02*
X134243247Y-76522023D01*
X134243247Y-76522023D02*
X134319438Y-76483928D01*
X134319438Y-76483928D02*
X134509914Y-76483928D01*
X134509914Y-76483928D02*
X134586104Y-76522023D01*
X134586104Y-76522023D02*
X134624200Y-76560118D01*
X134624200Y-76560118D02*
X134662295Y-76636309D01*
X134662295Y-76636309D02*
X134662295Y-76826785D01*
X134662295Y-76826785D02*
X134624200Y-76902975D01*
X134624200Y-76902975D02*
X134586104Y-76941071D01*
X136062295Y-80114285D02*
X135681342Y-80380952D01*
X136062295Y-80571428D02*
X135262295Y-80571428D01*
X135262295Y-80571428D02*
X135262295Y-80266666D01*
X135262295Y-80266666D02*
X135300390Y-80190476D01*
X135300390Y-80190476D02*
X135338485Y-80152381D01*
X135338485Y-80152381D02*
X135414676Y-80114285D01*
X135414676Y-80114285D02*
X135528961Y-80114285D01*
X135528961Y-80114285D02*
X135605152Y-80152381D01*
X135605152Y-80152381D02*
X135643247Y-80190476D01*
X135643247Y-80190476D02*
X135681342Y-80266666D01*
X135681342Y-80266666D02*
X135681342Y-80571428D01*
X135338485Y-79809524D02*
X135300390Y-79771428D01*
X135300390Y-79771428D02*
X135262295Y-79695238D01*
X135262295Y-79695238D02*
X135262295Y-79504762D01*
X135262295Y-79504762D02*
X135300390Y-79428571D01*
X135300390Y-79428571D02*
X135338485Y-79390476D01*
X135338485Y-79390476D02*
X135414676Y-79352381D01*
X135414676Y-79352381D02*
X135490866Y-79352381D01*
X135490866Y-79352381D02*
X135605152Y-79390476D01*
X135605152Y-79390476D02*
X136062295Y-79847619D01*
X136062295Y-79847619D02*
X136062295Y-79352381D01*
X135262295Y-78857142D02*
X135262295Y-78780952D01*
X135262295Y-78780952D02*
X135300390Y-78704761D01*
X135300390Y-78704761D02*
X135338485Y-78666666D01*
X135338485Y-78666666D02*
X135414676Y-78628571D01*
X135414676Y-78628571D02*
X135567057Y-78590476D01*
X135567057Y-78590476D02*
X135757533Y-78590476D01*
X135757533Y-78590476D02*
X135909914Y-78628571D01*
X135909914Y-78628571D02*
X135986104Y-78666666D01*
X135986104Y-78666666D02*
X136024200Y-78704761D01*
X136024200Y-78704761D02*
X136062295Y-78780952D01*
X136062295Y-78780952D02*
X136062295Y-78857142D01*
X136062295Y-78857142D02*
X136024200Y-78933333D01*
X136024200Y-78933333D02*
X135986104Y-78971428D01*
X135986104Y-78971428D02*
X135909914Y-79009523D01*
X135909914Y-79009523D02*
X135757533Y-79047619D01*
X135757533Y-79047619D02*
X135567057Y-79047619D01*
X135567057Y-79047619D02*
X135414676Y-79009523D01*
X135414676Y-79009523D02*
X135338485Y-78971428D01*
X135338485Y-78971428D02*
X135300390Y-78933333D01*
X135300390Y-78933333D02*
X135262295Y-78857142D01*
X123886104Y-91214285D02*
X123924200Y-91252381D01*
X123924200Y-91252381D02*
X123962295Y-91366666D01*
X123962295Y-91366666D02*
X123962295Y-91442857D01*
X123962295Y-91442857D02*
X123924200Y-91557143D01*
X123924200Y-91557143D02*
X123848009Y-91633333D01*
X123848009Y-91633333D02*
X123771819Y-91671428D01*
X123771819Y-91671428D02*
X123619438Y-91709524D01*
X123619438Y-91709524D02*
X123505152Y-91709524D01*
X123505152Y-91709524D02*
X123352771Y-91671428D01*
X123352771Y-91671428D02*
X123276580Y-91633333D01*
X123276580Y-91633333D02*
X123200390Y-91557143D01*
X123200390Y-91557143D02*
X123162295Y-91442857D01*
X123162295Y-91442857D02*
X123162295Y-91366666D01*
X123162295Y-91366666D02*
X123200390Y-91252381D01*
X123200390Y-91252381D02*
X123238485Y-91214285D01*
X123238485Y-90909524D02*
X123200390Y-90871428D01*
X123200390Y-90871428D02*
X123162295Y-90795238D01*
X123162295Y-90795238D02*
X123162295Y-90604762D01*
X123162295Y-90604762D02*
X123200390Y-90528571D01*
X123200390Y-90528571D02*
X123238485Y-90490476D01*
X123238485Y-90490476D02*
X123314676Y-90452381D01*
X123314676Y-90452381D02*
X123390866Y-90452381D01*
X123390866Y-90452381D02*
X123505152Y-90490476D01*
X123505152Y-90490476D02*
X123962295Y-90947619D01*
X123962295Y-90947619D02*
X123962295Y-90452381D01*
X123962295Y-90071428D02*
X123962295Y-89919047D01*
X123962295Y-89919047D02*
X123924200Y-89842857D01*
X123924200Y-89842857D02*
X123886104Y-89804761D01*
X123886104Y-89804761D02*
X123771819Y-89728571D01*
X123771819Y-89728571D02*
X123619438Y-89690476D01*
X123619438Y-89690476D02*
X123314676Y-89690476D01*
X123314676Y-89690476D02*
X123238485Y-89728571D01*
X123238485Y-89728571D02*
X123200390Y-89766666D01*
X123200390Y-89766666D02*
X123162295Y-89842857D01*
X123162295Y-89842857D02*
X123162295Y-89995238D01*
X123162295Y-89995238D02*
X123200390Y-90071428D01*
X123200390Y-90071428D02*
X123238485Y-90109523D01*
X123238485Y-90109523D02*
X123314676Y-90147619D01*
X123314676Y-90147619D02*
X123505152Y-90147619D01*
X123505152Y-90147619D02*
X123581342Y-90109523D01*
X123581342Y-90109523D02*
X123619438Y-90071428D01*
X123619438Y-90071428D02*
X123657533Y-89995238D01*
X123657533Y-89995238D02*
X123657533Y-89842857D01*
X123657533Y-89842857D02*
X123619438Y-89766666D01*
X123619438Y-89766666D02*
X123581342Y-89728571D01*
X123581342Y-89728571D02*
X123505152Y-89690476D01*
X149252295Y-72636666D02*
X149823723Y-72636666D01*
X149823723Y-72636666D02*
X149938009Y-72674761D01*
X149938009Y-72674761D02*
X150014200Y-72750952D01*
X150014200Y-72750952D02*
X150052295Y-72865237D01*
X150052295Y-72865237D02*
X150052295Y-72941428D01*
X149518961Y-71912856D02*
X150052295Y-71912856D01*
X149214200Y-72103332D02*
X149785628Y-72293809D01*
X149785628Y-72293809D02*
X149785628Y-71798570D01*
X147985714Y-111886104D02*
X147947618Y-111924200D01*
X147947618Y-111924200D02*
X147833333Y-111962295D01*
X147833333Y-111962295D02*
X147757142Y-111962295D01*
X147757142Y-111962295D02*
X147642856Y-111924200D01*
X147642856Y-111924200D02*
X147566666Y-111848009D01*
X147566666Y-111848009D02*
X147528571Y-111771819D01*
X147528571Y-111771819D02*
X147490475Y-111619438D01*
X147490475Y-111619438D02*
X147490475Y-111505152D01*
X147490475Y-111505152D02*
X147528571Y-111352771D01*
X147528571Y-111352771D02*
X147566666Y-111276580D01*
X147566666Y-111276580D02*
X147642856Y-111200390D01*
X147642856Y-111200390D02*
X147757142Y-111162295D01*
X147757142Y-111162295D02*
X147833333Y-111162295D01*
X147833333Y-111162295D02*
X147947618Y-111200390D01*
X147947618Y-111200390D02*
X147985714Y-111238485D01*
X148290475Y-111238485D02*
X148328571Y-111200390D01*
X148328571Y-111200390D02*
X148404761Y-111162295D01*
X148404761Y-111162295D02*
X148595237Y-111162295D01*
X148595237Y-111162295D02*
X148671428Y-111200390D01*
X148671428Y-111200390D02*
X148709523Y-111238485D01*
X148709523Y-111238485D02*
X148747618Y-111314676D01*
X148747618Y-111314676D02*
X148747618Y-111390866D01*
X148747618Y-111390866D02*
X148709523Y-111505152D01*
X148709523Y-111505152D02*
X148252380Y-111962295D01*
X148252380Y-111962295D02*
X148747618Y-111962295D01*
X149509523Y-111962295D02*
X149052380Y-111962295D01*
X149280952Y-111962295D02*
X149280952Y-111162295D01*
X149280952Y-111162295D02*
X149204761Y-111276580D01*
X149204761Y-111276580D02*
X149128571Y-111352771D01*
X149128571Y-111352771D02*
X149052380Y-111390866D01*
X151586104Y-91114285D02*
X151624200Y-91152381D01*
X151624200Y-91152381D02*
X151662295Y-91266666D01*
X151662295Y-91266666D02*
X151662295Y-91342857D01*
X151662295Y-91342857D02*
X151624200Y-91457143D01*
X151624200Y-91457143D02*
X151548009Y-91533333D01*
X151548009Y-91533333D02*
X151471819Y-91571428D01*
X151471819Y-91571428D02*
X151319438Y-91609524D01*
X151319438Y-91609524D02*
X151205152Y-91609524D01*
X151205152Y-91609524D02*
X151052771Y-91571428D01*
X151052771Y-91571428D02*
X150976580Y-91533333D01*
X150976580Y-91533333D02*
X150900390Y-91457143D01*
X150900390Y-91457143D02*
X150862295Y-91342857D01*
X150862295Y-91342857D02*
X150862295Y-91266666D01*
X150862295Y-91266666D02*
X150900390Y-91152381D01*
X150900390Y-91152381D02*
X150938485Y-91114285D01*
X151662295Y-90352381D02*
X151662295Y-90809524D01*
X151662295Y-90580952D02*
X150862295Y-90580952D01*
X150862295Y-90580952D02*
X150976580Y-90657143D01*
X150976580Y-90657143D02*
X151052771Y-90733333D01*
X151052771Y-90733333D02*
X151090866Y-90809524D01*
X151662295Y-89971428D02*
X151662295Y-89819047D01*
X151662295Y-89819047D02*
X151624200Y-89742857D01*
X151624200Y-89742857D02*
X151586104Y-89704761D01*
X151586104Y-89704761D02*
X151471819Y-89628571D01*
X151471819Y-89628571D02*
X151319438Y-89590476D01*
X151319438Y-89590476D02*
X151014676Y-89590476D01*
X151014676Y-89590476D02*
X150938485Y-89628571D01*
X150938485Y-89628571D02*
X150900390Y-89666666D01*
X150900390Y-89666666D02*
X150862295Y-89742857D01*
X150862295Y-89742857D02*
X150862295Y-89895238D01*
X150862295Y-89895238D02*
X150900390Y-89971428D01*
X150900390Y-89971428D02*
X150938485Y-90009523D01*
X150938485Y-90009523D02*
X151014676Y-90047619D01*
X151014676Y-90047619D02*
X151205152Y-90047619D01*
X151205152Y-90047619D02*
X151281342Y-90009523D01*
X151281342Y-90009523D02*
X151319438Y-89971428D01*
X151319438Y-89971428D02*
X151357533Y-89895238D01*
X151357533Y-89895238D02*
X151357533Y-89742857D01*
X151357533Y-89742857D02*
X151319438Y-89666666D01*
X151319438Y-89666666D02*
X151281342Y-89628571D01*
X151281342Y-89628571D02*
X151205152Y-89590476D01*
X123690476Y-84662295D02*
X123690476Y-85309914D01*
X123690476Y-85309914D02*
X123728571Y-85386104D01*
X123728571Y-85386104D02*
X123766666Y-85424200D01*
X123766666Y-85424200D02*
X123842857Y-85462295D01*
X123842857Y-85462295D02*
X123995238Y-85462295D01*
X123995238Y-85462295D02*
X124071428Y-85424200D01*
X124071428Y-85424200D02*
X124109523Y-85386104D01*
X124109523Y-85386104D02*
X124147619Y-85309914D01*
X124147619Y-85309914D02*
X124147619Y-84662295D01*
X124566666Y-85462295D02*
X124719047Y-85462295D01*
X124719047Y-85462295D02*
X124795237Y-85424200D01*
X124795237Y-85424200D02*
X124833333Y-85386104D01*
X124833333Y-85386104D02*
X124909523Y-85271819D01*
X124909523Y-85271819D02*
X124947618Y-85119438D01*
X124947618Y-85119438D02*
X124947618Y-84814676D01*
X124947618Y-84814676D02*
X124909523Y-84738485D01*
X124909523Y-84738485D02*
X124871428Y-84700390D01*
X124871428Y-84700390D02*
X124795237Y-84662295D01*
X124795237Y-84662295D02*
X124642856Y-84662295D01*
X124642856Y-84662295D02*
X124566666Y-84700390D01*
X124566666Y-84700390D02*
X124528571Y-84738485D01*
X124528571Y-84738485D02*
X124490475Y-84814676D01*
X124490475Y-84814676D02*
X124490475Y-85005152D01*
X124490475Y-85005152D02*
X124528571Y-85081342D01*
X124528571Y-85081342D02*
X124566666Y-85119438D01*
X124566666Y-85119438D02*
X124642856Y-85157533D01*
X124642856Y-85157533D02*
X124795237Y-85157533D01*
X124795237Y-85157533D02*
X124871428Y-85119438D01*
X124871428Y-85119438D02*
X124909523Y-85081342D01*
X124909523Y-85081342D02*
X124947618Y-85005152D01*
X173890476Y-108562295D02*
X173890476Y-109209914D01*
X173890476Y-109209914D02*
X173928571Y-109286104D01*
X173928571Y-109286104D02*
X173966666Y-109324200D01*
X173966666Y-109324200D02*
X174042857Y-109362295D01*
X174042857Y-109362295D02*
X174195238Y-109362295D01*
X174195238Y-109362295D02*
X174271428Y-109324200D01*
X174271428Y-109324200D02*
X174309523Y-109286104D01*
X174309523Y-109286104D02*
X174347619Y-109209914D01*
X174347619Y-109209914D02*
X174347619Y-108562295D01*
X174690475Y-108638485D02*
X174728571Y-108600390D01*
X174728571Y-108600390D02*
X174804761Y-108562295D01*
X174804761Y-108562295D02*
X174995237Y-108562295D01*
X174995237Y-108562295D02*
X175071428Y-108600390D01*
X175071428Y-108600390D02*
X175109523Y-108638485D01*
X175109523Y-108638485D02*
X175147618Y-108714676D01*
X175147618Y-108714676D02*
X175147618Y-108790866D01*
X175147618Y-108790866D02*
X175109523Y-108905152D01*
X175109523Y-108905152D02*
X174652380Y-109362295D01*
X174652380Y-109362295D02*
X175147618Y-109362295D01*
X146162295Y-83433332D02*
X145781342Y-83699999D01*
X146162295Y-83890475D02*
X145362295Y-83890475D01*
X145362295Y-83890475D02*
X145362295Y-83585713D01*
X145362295Y-83585713D02*
X145400390Y-83509523D01*
X145400390Y-83509523D02*
X145438485Y-83471428D01*
X145438485Y-83471428D02*
X145514676Y-83433332D01*
X145514676Y-83433332D02*
X145628961Y-83433332D01*
X145628961Y-83433332D02*
X145705152Y-83471428D01*
X145705152Y-83471428D02*
X145743247Y-83509523D01*
X145743247Y-83509523D02*
X145781342Y-83585713D01*
X145781342Y-83585713D02*
X145781342Y-83890475D01*
X145362295Y-82747618D02*
X145362295Y-82899999D01*
X145362295Y-82899999D02*
X145400390Y-82976190D01*
X145400390Y-82976190D02*
X145438485Y-83014285D01*
X145438485Y-83014285D02*
X145552771Y-83090475D01*
X145552771Y-83090475D02*
X145705152Y-83128571D01*
X145705152Y-83128571D02*
X146009914Y-83128571D01*
X146009914Y-83128571D02*
X146086104Y-83090475D01*
X146086104Y-83090475D02*
X146124200Y-83052380D01*
X146124200Y-83052380D02*
X146162295Y-82976190D01*
X146162295Y-82976190D02*
X146162295Y-82823809D01*
X146162295Y-82823809D02*
X146124200Y-82747618D01*
X146124200Y-82747618D02*
X146086104Y-82709523D01*
X146086104Y-82709523D02*
X146009914Y-82671428D01*
X146009914Y-82671428D02*
X145819438Y-82671428D01*
X145819438Y-82671428D02*
X145743247Y-82709523D01*
X145743247Y-82709523D02*
X145705152Y-82747618D01*
X145705152Y-82747618D02*
X145667057Y-82823809D01*
X145667057Y-82823809D02*
X145667057Y-82976190D01*
X145667057Y-82976190D02*
X145705152Y-83052380D01*
X145705152Y-83052380D02*
X145743247Y-83090475D01*
X145743247Y-83090475D02*
X145819438Y-83128571D01*
X146585714Y-110562295D02*
X146319047Y-110181342D01*
X146128571Y-110562295D02*
X146128571Y-109762295D01*
X146128571Y-109762295D02*
X146433333Y-109762295D01*
X146433333Y-109762295D02*
X146509523Y-109800390D01*
X146509523Y-109800390D02*
X146547618Y-109838485D01*
X146547618Y-109838485D02*
X146585714Y-109914676D01*
X146585714Y-109914676D02*
X146585714Y-110028961D01*
X146585714Y-110028961D02*
X146547618Y-110105152D01*
X146547618Y-110105152D02*
X146509523Y-110143247D01*
X146509523Y-110143247D02*
X146433333Y-110181342D01*
X146433333Y-110181342D02*
X146128571Y-110181342D01*
X147347618Y-110562295D02*
X146890475Y-110562295D01*
X147119047Y-110562295D02*
X147119047Y-109762295D01*
X147119047Y-109762295D02*
X147042856Y-109876580D01*
X147042856Y-109876580D02*
X146966666Y-109952771D01*
X146966666Y-109952771D02*
X146890475Y-109990866D01*
X147614285Y-109762295D02*
X148109523Y-109762295D01*
X148109523Y-109762295D02*
X147842857Y-110067057D01*
X147842857Y-110067057D02*
X147957142Y-110067057D01*
X147957142Y-110067057D02*
X148033333Y-110105152D01*
X148033333Y-110105152D02*
X148071428Y-110143247D01*
X148071428Y-110143247D02*
X148109523Y-110219438D01*
X148109523Y-110219438D02*
X148109523Y-110409914D01*
X148109523Y-110409914D02*
X148071428Y-110486104D01*
X148071428Y-110486104D02*
X148033333Y-110524200D01*
X148033333Y-110524200D02*
X147957142Y-110562295D01*
X147957142Y-110562295D02*
X147728571Y-110562295D01*
X147728571Y-110562295D02*
X147652380Y-110524200D01*
X147652380Y-110524200D02*
X147614285Y-110486104D01*
X133862295Y-80114285D02*
X133481342Y-80380952D01*
X133862295Y-80571428D02*
X133062295Y-80571428D01*
X133062295Y-80571428D02*
X133062295Y-80266666D01*
X133062295Y-80266666D02*
X133100390Y-80190476D01*
X133100390Y-80190476D02*
X133138485Y-80152381D01*
X133138485Y-80152381D02*
X133214676Y-80114285D01*
X133214676Y-80114285D02*
X133328961Y-80114285D01*
X133328961Y-80114285D02*
X133405152Y-80152381D01*
X133405152Y-80152381D02*
X133443247Y-80190476D01*
X133443247Y-80190476D02*
X133481342Y-80266666D01*
X133481342Y-80266666D02*
X133481342Y-80571428D01*
X133862295Y-79352381D02*
X133862295Y-79809524D01*
X133862295Y-79580952D02*
X133062295Y-79580952D01*
X133062295Y-79580952D02*
X133176580Y-79657143D01*
X133176580Y-79657143D02*
X133252771Y-79733333D01*
X133252771Y-79733333D02*
X133290866Y-79809524D01*
X133405152Y-78895238D02*
X133367057Y-78971428D01*
X133367057Y-78971428D02*
X133328961Y-79009523D01*
X133328961Y-79009523D02*
X133252771Y-79047619D01*
X133252771Y-79047619D02*
X133214676Y-79047619D01*
X133214676Y-79047619D02*
X133138485Y-79009523D01*
X133138485Y-79009523D02*
X133100390Y-78971428D01*
X133100390Y-78971428D02*
X133062295Y-78895238D01*
X133062295Y-78895238D02*
X133062295Y-78742857D01*
X133062295Y-78742857D02*
X133100390Y-78666666D01*
X133100390Y-78666666D02*
X133138485Y-78628571D01*
X133138485Y-78628571D02*
X133214676Y-78590476D01*
X133214676Y-78590476D02*
X133252771Y-78590476D01*
X133252771Y-78590476D02*
X133328961Y-78628571D01*
X133328961Y-78628571D02*
X133367057Y-78666666D01*
X133367057Y-78666666D02*
X133405152Y-78742857D01*
X133405152Y-78742857D02*
X133405152Y-78895238D01*
X133405152Y-78895238D02*
X133443247Y-78971428D01*
X133443247Y-78971428D02*
X133481342Y-79009523D01*
X133481342Y-79009523D02*
X133557533Y-79047619D01*
X133557533Y-79047619D02*
X133709914Y-79047619D01*
X133709914Y-79047619D02*
X133786104Y-79009523D01*
X133786104Y-79009523D02*
X133824200Y-78971428D01*
X133824200Y-78971428D02*
X133862295Y-78895238D01*
X133862295Y-78895238D02*
X133862295Y-78742857D01*
X133862295Y-78742857D02*
X133824200Y-78666666D01*
X133824200Y-78666666D02*
X133786104Y-78628571D01*
X133786104Y-78628571D02*
X133709914Y-78590476D01*
X133709914Y-78590476D02*
X133557533Y-78590476D01*
X133557533Y-78590476D02*
X133481342Y-78628571D01*
X133481342Y-78628571D02*
X133443247Y-78666666D01*
X133443247Y-78666666D02*
X133405152Y-78742857D01*
X136832295Y-105614285D02*
X136451342Y-105880952D01*
X136832295Y-106071428D02*
X136032295Y-106071428D01*
X136032295Y-106071428D02*
X136032295Y-105766666D01*
X136032295Y-105766666D02*
X136070390Y-105690476D01*
X136070390Y-105690476D02*
X136108485Y-105652381D01*
X136108485Y-105652381D02*
X136184676Y-105614285D01*
X136184676Y-105614285D02*
X136298961Y-105614285D01*
X136298961Y-105614285D02*
X136375152Y-105652381D01*
X136375152Y-105652381D02*
X136413247Y-105690476D01*
X136413247Y-105690476D02*
X136451342Y-105766666D01*
X136451342Y-105766666D02*
X136451342Y-106071428D01*
X136108485Y-105309524D02*
X136070390Y-105271428D01*
X136070390Y-105271428D02*
X136032295Y-105195238D01*
X136032295Y-105195238D02*
X136032295Y-105004762D01*
X136032295Y-105004762D02*
X136070390Y-104928571D01*
X136070390Y-104928571D02*
X136108485Y-104890476D01*
X136108485Y-104890476D02*
X136184676Y-104852381D01*
X136184676Y-104852381D02*
X136260866Y-104852381D01*
X136260866Y-104852381D02*
X136375152Y-104890476D01*
X136375152Y-104890476D02*
X136832295Y-105347619D01*
X136832295Y-105347619D02*
X136832295Y-104852381D01*
X136832295Y-104090476D02*
X136832295Y-104547619D01*
X136832295Y-104319047D02*
X136032295Y-104319047D01*
X136032295Y-104319047D02*
X136146580Y-104395238D01*
X136146580Y-104395238D02*
X136222771Y-104471428D01*
X136222771Y-104471428D02*
X136260866Y-104547619D01*
X131066667Y-92262295D02*
X130800000Y-91881342D01*
X130609524Y-92262295D02*
X130609524Y-91462295D01*
X130609524Y-91462295D02*
X130914286Y-91462295D01*
X130914286Y-91462295D02*
X130990476Y-91500390D01*
X130990476Y-91500390D02*
X131028571Y-91538485D01*
X131028571Y-91538485D02*
X131066667Y-91614676D01*
X131066667Y-91614676D02*
X131066667Y-91728961D01*
X131066667Y-91728961D02*
X131028571Y-91805152D01*
X131028571Y-91805152D02*
X130990476Y-91843247D01*
X130990476Y-91843247D02*
X130914286Y-91881342D01*
X130914286Y-91881342D02*
X130609524Y-91881342D01*
X131523809Y-91805152D02*
X131447619Y-91767057D01*
X131447619Y-91767057D02*
X131409524Y-91728961D01*
X131409524Y-91728961D02*
X131371428Y-91652771D01*
X131371428Y-91652771D02*
X131371428Y-91614676D01*
X131371428Y-91614676D02*
X131409524Y-91538485D01*
X131409524Y-91538485D02*
X131447619Y-91500390D01*
X131447619Y-91500390D02*
X131523809Y-91462295D01*
X131523809Y-91462295D02*
X131676190Y-91462295D01*
X131676190Y-91462295D02*
X131752381Y-91500390D01*
X131752381Y-91500390D02*
X131790476Y-91538485D01*
X131790476Y-91538485D02*
X131828571Y-91614676D01*
X131828571Y-91614676D02*
X131828571Y-91652771D01*
X131828571Y-91652771D02*
X131790476Y-91728961D01*
X131790476Y-91728961D02*
X131752381Y-91767057D01*
X131752381Y-91767057D02*
X131676190Y-91805152D01*
X131676190Y-91805152D02*
X131523809Y-91805152D01*
X131523809Y-91805152D02*
X131447619Y-91843247D01*
X131447619Y-91843247D02*
X131409524Y-91881342D01*
X131409524Y-91881342D02*
X131371428Y-91957533D01*
X131371428Y-91957533D02*
X131371428Y-92109914D01*
X131371428Y-92109914D02*
X131409524Y-92186104D01*
X131409524Y-92186104D02*
X131447619Y-92224200D01*
X131447619Y-92224200D02*
X131523809Y-92262295D01*
X131523809Y-92262295D02*
X131676190Y-92262295D01*
X131676190Y-92262295D02*
X131752381Y-92224200D01*
X131752381Y-92224200D02*
X131790476Y-92186104D01*
X131790476Y-92186104D02*
X131828571Y-92109914D01*
X131828571Y-92109914D02*
X131828571Y-91957533D01*
X131828571Y-91957533D02*
X131790476Y-91881342D01*
X131790476Y-91881342D02*
X131752381Y-91843247D01*
X131752381Y-91843247D02*
X131676190Y-91805152D01*
X125286104Y-91214285D02*
X125324200Y-91252381D01*
X125324200Y-91252381D02*
X125362295Y-91366666D01*
X125362295Y-91366666D02*
X125362295Y-91442857D01*
X125362295Y-91442857D02*
X125324200Y-91557143D01*
X125324200Y-91557143D02*
X125248009Y-91633333D01*
X125248009Y-91633333D02*
X125171819Y-91671428D01*
X125171819Y-91671428D02*
X125019438Y-91709524D01*
X125019438Y-91709524D02*
X124905152Y-91709524D01*
X124905152Y-91709524D02*
X124752771Y-91671428D01*
X124752771Y-91671428D02*
X124676580Y-91633333D01*
X124676580Y-91633333D02*
X124600390Y-91557143D01*
X124600390Y-91557143D02*
X124562295Y-91442857D01*
X124562295Y-91442857D02*
X124562295Y-91366666D01*
X124562295Y-91366666D02*
X124600390Y-91252381D01*
X124600390Y-91252381D02*
X124638485Y-91214285D01*
X124562295Y-90947619D02*
X124562295Y-90452381D01*
X124562295Y-90452381D02*
X124867057Y-90719047D01*
X124867057Y-90719047D02*
X124867057Y-90604762D01*
X124867057Y-90604762D02*
X124905152Y-90528571D01*
X124905152Y-90528571D02*
X124943247Y-90490476D01*
X124943247Y-90490476D02*
X125019438Y-90452381D01*
X125019438Y-90452381D02*
X125209914Y-90452381D01*
X125209914Y-90452381D02*
X125286104Y-90490476D01*
X125286104Y-90490476D02*
X125324200Y-90528571D01*
X125324200Y-90528571D02*
X125362295Y-90604762D01*
X125362295Y-90604762D02*
X125362295Y-90833333D01*
X125362295Y-90833333D02*
X125324200Y-90909524D01*
X125324200Y-90909524D02*
X125286104Y-90947619D01*
X124562295Y-89957142D02*
X124562295Y-89880952D01*
X124562295Y-89880952D02*
X124600390Y-89804761D01*
X124600390Y-89804761D02*
X124638485Y-89766666D01*
X124638485Y-89766666D02*
X124714676Y-89728571D01*
X124714676Y-89728571D02*
X124867057Y-89690476D01*
X124867057Y-89690476D02*
X125057533Y-89690476D01*
X125057533Y-89690476D02*
X125209914Y-89728571D01*
X125209914Y-89728571D02*
X125286104Y-89766666D01*
X125286104Y-89766666D02*
X125324200Y-89804761D01*
X125324200Y-89804761D02*
X125362295Y-89880952D01*
X125362295Y-89880952D02*
X125362295Y-89957142D01*
X125362295Y-89957142D02*
X125324200Y-90033333D01*
X125324200Y-90033333D02*
X125286104Y-90071428D01*
X125286104Y-90071428D02*
X125209914Y-90109523D01*
X125209914Y-90109523D02*
X125057533Y-90147619D01*
X125057533Y-90147619D02*
X124867057Y-90147619D01*
X124867057Y-90147619D02*
X124714676Y-90109523D01*
X124714676Y-90109523D02*
X124638485Y-90071428D01*
X124638485Y-90071428D02*
X124600390Y-90033333D01*
X124600390Y-90033333D02*
X124562295Y-89957142D01*
X148719048Y-88781342D02*
X148719048Y-89162295D01*
X148452381Y-88362295D02*
X148719048Y-88781342D01*
X148719048Y-88781342D02*
X148985714Y-88362295D01*
X149671428Y-89162295D02*
X149214285Y-89162295D01*
X149442857Y-89162295D02*
X149442857Y-88362295D01*
X149442857Y-88362295D02*
X149366666Y-88476580D01*
X149366666Y-88476580D02*
X149290476Y-88552771D01*
X149290476Y-88552771D02*
X149214285Y-88590866D01*
X128190476Y-80462295D02*
X128190476Y-81109914D01*
X128190476Y-81109914D02*
X128228571Y-81186104D01*
X128228571Y-81186104D02*
X128266666Y-81224200D01*
X128266666Y-81224200D02*
X128342857Y-81262295D01*
X128342857Y-81262295D02*
X128495238Y-81262295D01*
X128495238Y-81262295D02*
X128571428Y-81224200D01*
X128571428Y-81224200D02*
X128609523Y-81186104D01*
X128609523Y-81186104D02*
X128647619Y-81109914D01*
X128647619Y-81109914D02*
X128647619Y-80462295D01*
X129371428Y-80728961D02*
X129371428Y-81262295D01*
X129180952Y-80424200D02*
X128990475Y-80995628D01*
X128990475Y-80995628D02*
X129485714Y-80995628D01*
X165552380Y-77192295D02*
X165552380Y-77763723D01*
X165552380Y-77763723D02*
X165514285Y-77878009D01*
X165514285Y-77878009D02*
X165438094Y-77954200D01*
X165438094Y-77954200D02*
X165323809Y-77992295D01*
X165323809Y-77992295D02*
X165247618Y-77992295D01*
X166352380Y-77992295D02*
X165895237Y-77992295D01*
X166123809Y-77992295D02*
X166123809Y-77192295D01*
X166123809Y-77192295D02*
X166047618Y-77306580D01*
X166047618Y-77306580D02*
X165971428Y-77382771D01*
X165971428Y-77382771D02*
X165895237Y-77420866D01*
X166847619Y-77192295D02*
X166923809Y-77192295D01*
X166923809Y-77192295D02*
X167000000Y-77230390D01*
X167000000Y-77230390D02*
X167038095Y-77268485D01*
X167038095Y-77268485D02*
X167076190Y-77344676D01*
X167076190Y-77344676D02*
X167114285Y-77497057D01*
X167114285Y-77497057D02*
X167114285Y-77687533D01*
X167114285Y-77687533D02*
X167076190Y-77839914D01*
X167076190Y-77839914D02*
X167038095Y-77916104D01*
X167038095Y-77916104D02*
X167000000Y-77954200D01*
X167000000Y-77954200D02*
X166923809Y-77992295D01*
X166923809Y-77992295D02*
X166847619Y-77992295D01*
X166847619Y-77992295D02*
X166771428Y-77954200D01*
X166771428Y-77954200D02*
X166733333Y-77916104D01*
X166733333Y-77916104D02*
X166695238Y-77839914D01*
X166695238Y-77839914D02*
X166657142Y-77687533D01*
X166657142Y-77687533D02*
X166657142Y-77497057D01*
X166657142Y-77497057D02*
X166695238Y-77344676D01*
X166695238Y-77344676D02*
X166733333Y-77268485D01*
X166733333Y-77268485D02*
X166771428Y-77230390D01*
X166771428Y-77230390D02*
X166847619Y-77192295D01*
X129885714Y-85486104D02*
X129847618Y-85524200D01*
X129847618Y-85524200D02*
X129733333Y-85562295D01*
X129733333Y-85562295D02*
X129657142Y-85562295D01*
X129657142Y-85562295D02*
X129542856Y-85524200D01*
X129542856Y-85524200D02*
X129466666Y-85448009D01*
X129466666Y-85448009D02*
X129428571Y-85371819D01*
X129428571Y-85371819D02*
X129390475Y-85219438D01*
X129390475Y-85219438D02*
X129390475Y-85105152D01*
X129390475Y-85105152D02*
X129428571Y-84952771D01*
X129428571Y-84952771D02*
X129466666Y-84876580D01*
X129466666Y-84876580D02*
X129542856Y-84800390D01*
X129542856Y-84800390D02*
X129657142Y-84762295D01*
X129657142Y-84762295D02*
X129733333Y-84762295D01*
X129733333Y-84762295D02*
X129847618Y-84800390D01*
X129847618Y-84800390D02*
X129885714Y-84838485D01*
X130647618Y-85562295D02*
X130190475Y-85562295D01*
X130419047Y-85562295D02*
X130419047Y-84762295D01*
X130419047Y-84762295D02*
X130342856Y-84876580D01*
X130342856Y-84876580D02*
X130266666Y-84952771D01*
X130266666Y-84952771D02*
X130190475Y-84990866D01*
X131371428Y-84762295D02*
X130990476Y-84762295D01*
X130990476Y-84762295D02*
X130952380Y-85143247D01*
X130952380Y-85143247D02*
X130990476Y-85105152D01*
X130990476Y-85105152D02*
X131066666Y-85067057D01*
X131066666Y-85067057D02*
X131257142Y-85067057D01*
X131257142Y-85067057D02*
X131333333Y-85105152D01*
X131333333Y-85105152D02*
X131371428Y-85143247D01*
X131371428Y-85143247D02*
X131409523Y-85219438D01*
X131409523Y-85219438D02*
X131409523Y-85409914D01*
X131409523Y-85409914D02*
X131371428Y-85486104D01*
X131371428Y-85486104D02*
X131333333Y-85524200D01*
X131333333Y-85524200D02*
X131257142Y-85562295D01*
X131257142Y-85562295D02*
X131066666Y-85562295D01*
X131066666Y-85562295D02*
X130990476Y-85524200D01*
X130990476Y-85524200D02*
X130952380Y-85486104D01*
X104208333Y-75882295D02*
X104208333Y-76453723D01*
X104208333Y-76453723D02*
X104170238Y-76568009D01*
X104170238Y-76568009D02*
X104094047Y-76644200D01*
X104094047Y-76644200D02*
X103979762Y-76682295D01*
X103979762Y-76682295D02*
X103903571Y-76682295D01*
X104513095Y-75882295D02*
X105008333Y-75882295D01*
X105008333Y-75882295D02*
X104741667Y-76187057D01*
X104741667Y-76187057D02*
X104855952Y-76187057D01*
X104855952Y-76187057D02*
X104932143Y-76225152D01*
X104932143Y-76225152D02*
X104970238Y-76263247D01*
X104970238Y-76263247D02*
X105008333Y-76339438D01*
X105008333Y-76339438D02*
X105008333Y-76529914D01*
X105008333Y-76529914D02*
X104970238Y-76606104D01*
X104970238Y-76606104D02*
X104932143Y-76644200D01*
X104932143Y-76644200D02*
X104855952Y-76682295D01*
X104855952Y-76682295D02*
X104627381Y-76682295D01*
X104627381Y-76682295D02*
X104551190Y-76644200D01*
X104551190Y-76644200D02*
X104513095Y-76606104D01*
X131066667Y-93262295D02*
X130800000Y-92881342D01*
X130609524Y-93262295D02*
X130609524Y-92462295D01*
X130609524Y-92462295D02*
X130914286Y-92462295D01*
X130914286Y-92462295D02*
X130990476Y-92500390D01*
X130990476Y-92500390D02*
X131028571Y-92538485D01*
X131028571Y-92538485D02*
X131066667Y-92614676D01*
X131066667Y-92614676D02*
X131066667Y-92728961D01*
X131066667Y-92728961D02*
X131028571Y-92805152D01*
X131028571Y-92805152D02*
X130990476Y-92843247D01*
X130990476Y-92843247D02*
X130914286Y-92881342D01*
X130914286Y-92881342D02*
X130609524Y-92881342D01*
X131447619Y-93262295D02*
X131600000Y-93262295D01*
X131600000Y-93262295D02*
X131676190Y-93224200D01*
X131676190Y-93224200D02*
X131714286Y-93186104D01*
X131714286Y-93186104D02*
X131790476Y-93071819D01*
X131790476Y-93071819D02*
X131828571Y-92919438D01*
X131828571Y-92919438D02*
X131828571Y-92614676D01*
X131828571Y-92614676D02*
X131790476Y-92538485D01*
X131790476Y-92538485D02*
X131752381Y-92500390D01*
X131752381Y-92500390D02*
X131676190Y-92462295D01*
X131676190Y-92462295D02*
X131523809Y-92462295D01*
X131523809Y-92462295D02*
X131447619Y-92500390D01*
X131447619Y-92500390D02*
X131409524Y-92538485D01*
X131409524Y-92538485D02*
X131371428Y-92614676D01*
X131371428Y-92614676D02*
X131371428Y-92805152D01*
X131371428Y-92805152D02*
X131409524Y-92881342D01*
X131409524Y-92881342D02*
X131447619Y-92919438D01*
X131447619Y-92919438D02*
X131523809Y-92957533D01*
X131523809Y-92957533D02*
X131676190Y-92957533D01*
X131676190Y-92957533D02*
X131752381Y-92919438D01*
X131752381Y-92919438D02*
X131790476Y-92881342D01*
X131790476Y-92881342D02*
X131828571Y-92805152D01*
X133562295Y-77690475D02*
X132762295Y-77690475D01*
X132762295Y-77690475D02*
X132762295Y-77499999D01*
X132762295Y-77499999D02*
X132800390Y-77385713D01*
X132800390Y-77385713D02*
X132876580Y-77309523D01*
X132876580Y-77309523D02*
X132952771Y-77271428D01*
X132952771Y-77271428D02*
X133105152Y-77233332D01*
X133105152Y-77233332D02*
X133219438Y-77233332D01*
X133219438Y-77233332D02*
X133371819Y-77271428D01*
X133371819Y-77271428D02*
X133448009Y-77309523D01*
X133448009Y-77309523D02*
X133524200Y-77385713D01*
X133524200Y-77385713D02*
X133562295Y-77499999D01*
X133562295Y-77499999D02*
X133562295Y-77690475D01*
X133028961Y-76547618D02*
X133562295Y-76547618D01*
X132724200Y-76738094D02*
X133295628Y-76928571D01*
X133295628Y-76928571D02*
X133295628Y-76433332D01*
X158762295Y-77727619D02*
X159333723Y-77727619D01*
X159333723Y-77727619D02*
X159448009Y-77765714D01*
X159448009Y-77765714D02*
X159524200Y-77841905D01*
X159524200Y-77841905D02*
X159562295Y-77956190D01*
X159562295Y-77956190D02*
X159562295Y-78032381D01*
X159562295Y-76927619D02*
X159562295Y-77384762D01*
X159562295Y-77156190D02*
X158762295Y-77156190D01*
X158762295Y-77156190D02*
X158876580Y-77232381D01*
X158876580Y-77232381D02*
X158952771Y-77308571D01*
X158952771Y-77308571D02*
X158990866Y-77384762D01*
X158838485Y-76622857D02*
X158800390Y-76584761D01*
X158800390Y-76584761D02*
X158762295Y-76508571D01*
X158762295Y-76508571D02*
X158762295Y-76318095D01*
X158762295Y-76318095D02*
X158800390Y-76241904D01*
X158800390Y-76241904D02*
X158838485Y-76203809D01*
X158838485Y-76203809D02*
X158914676Y-76165714D01*
X158914676Y-76165714D02*
X158990866Y-76165714D01*
X158990866Y-76165714D02*
X159105152Y-76203809D01*
X159105152Y-76203809D02*
X159562295Y-76660952D01*
X159562295Y-76660952D02*
X159562295Y-76165714D01*
X146985714Y-88062295D02*
X146719047Y-87681342D01*
X146528571Y-88062295D02*
X146528571Y-87262295D01*
X146528571Y-87262295D02*
X146833333Y-87262295D01*
X146833333Y-87262295D02*
X146909523Y-87300390D01*
X146909523Y-87300390D02*
X146947618Y-87338485D01*
X146947618Y-87338485D02*
X146985714Y-87414676D01*
X146985714Y-87414676D02*
X146985714Y-87528961D01*
X146985714Y-87528961D02*
X146947618Y-87605152D01*
X146947618Y-87605152D02*
X146909523Y-87643247D01*
X146909523Y-87643247D02*
X146833333Y-87681342D01*
X146833333Y-87681342D02*
X146528571Y-87681342D01*
X147747618Y-88062295D02*
X147290475Y-88062295D01*
X147519047Y-88062295D02*
X147519047Y-87262295D01*
X147519047Y-87262295D02*
X147442856Y-87376580D01*
X147442856Y-87376580D02*
X147366666Y-87452771D01*
X147366666Y-87452771D02*
X147290475Y-87490866D01*
X148242857Y-87262295D02*
X148319047Y-87262295D01*
X148319047Y-87262295D02*
X148395238Y-87300390D01*
X148395238Y-87300390D02*
X148433333Y-87338485D01*
X148433333Y-87338485D02*
X148471428Y-87414676D01*
X148471428Y-87414676D02*
X148509523Y-87567057D01*
X148509523Y-87567057D02*
X148509523Y-87757533D01*
X148509523Y-87757533D02*
X148471428Y-87909914D01*
X148471428Y-87909914D02*
X148433333Y-87986104D01*
X148433333Y-87986104D02*
X148395238Y-88024200D01*
X148395238Y-88024200D02*
X148319047Y-88062295D01*
X148319047Y-88062295D02*
X148242857Y-88062295D01*
X148242857Y-88062295D02*
X148166666Y-88024200D01*
X148166666Y-88024200D02*
X148128571Y-87986104D01*
X148128571Y-87986104D02*
X148090476Y-87909914D01*
X148090476Y-87909914D02*
X148052380Y-87757533D01*
X148052380Y-87757533D02*
X148052380Y-87567057D01*
X148052380Y-87567057D02*
X148090476Y-87414676D01*
X148090476Y-87414676D02*
X148128571Y-87338485D01*
X148128571Y-87338485D02*
X148166666Y-87300390D01*
X148166666Y-87300390D02*
X148242857Y-87262295D01*
X177362295Y-106733332D02*
X176981342Y-106999999D01*
X177362295Y-107190475D02*
X176562295Y-107190475D01*
X176562295Y-107190475D02*
X176562295Y-106885713D01*
X176562295Y-106885713D02*
X176600390Y-106809523D01*
X176600390Y-106809523D02*
X176638485Y-106771428D01*
X176638485Y-106771428D02*
X176714676Y-106733332D01*
X176714676Y-106733332D02*
X176828961Y-106733332D01*
X176828961Y-106733332D02*
X176905152Y-106771428D01*
X176905152Y-106771428D02*
X176943247Y-106809523D01*
X176943247Y-106809523D02*
X176981342Y-106885713D01*
X176981342Y-106885713D02*
X176981342Y-107190475D01*
X176562295Y-106466666D02*
X176562295Y-105971428D01*
X176562295Y-105971428D02*
X176867057Y-106238094D01*
X176867057Y-106238094D02*
X176867057Y-106123809D01*
X176867057Y-106123809D02*
X176905152Y-106047618D01*
X176905152Y-106047618D02*
X176943247Y-106009523D01*
X176943247Y-106009523D02*
X177019438Y-105971428D01*
X177019438Y-105971428D02*
X177209914Y-105971428D01*
X177209914Y-105971428D02*
X177286104Y-106009523D01*
X177286104Y-106009523D02*
X177324200Y-106047618D01*
X177324200Y-106047618D02*
X177362295Y-106123809D01*
X177362295Y-106123809D02*
X177362295Y-106352380D01*
X177362295Y-106352380D02*
X177324200Y-106428571D01*
X177324200Y-106428571D02*
X177286104Y-106466666D01*
X167601309Y-98088485D02*
X167525119Y-98050390D01*
X167525119Y-98050390D02*
X167448928Y-97974200D01*
X167448928Y-97974200D02*
X167334642Y-97859914D01*
X167334642Y-97859914D02*
X167258452Y-97821819D01*
X167258452Y-97821819D02*
X167182261Y-97821819D01*
X167220357Y-98012295D02*
X167144166Y-97974200D01*
X167144166Y-97974200D02*
X167067976Y-97898009D01*
X167067976Y-97898009D02*
X167029880Y-97745628D01*
X167029880Y-97745628D02*
X167029880Y-97478961D01*
X167029880Y-97478961D02*
X167067976Y-97326580D01*
X167067976Y-97326580D02*
X167144166Y-97250390D01*
X167144166Y-97250390D02*
X167220357Y-97212295D01*
X167220357Y-97212295D02*
X167372738Y-97212295D01*
X167372738Y-97212295D02*
X167448928Y-97250390D01*
X167448928Y-97250390D02*
X167525119Y-97326580D01*
X167525119Y-97326580D02*
X167563214Y-97478961D01*
X167563214Y-97478961D02*
X167563214Y-97745628D01*
X167563214Y-97745628D02*
X167525119Y-97898009D01*
X167525119Y-97898009D02*
X167448928Y-97974200D01*
X167448928Y-97974200D02*
X167372738Y-98012295D01*
X167372738Y-98012295D02*
X167220357Y-98012295D01*
X168325118Y-98012295D02*
X167867975Y-98012295D01*
X168096547Y-98012295D02*
X168096547Y-97212295D01*
X168096547Y-97212295D02*
X168020356Y-97326580D01*
X168020356Y-97326580D02*
X167944166Y-97402771D01*
X167944166Y-97402771D02*
X167867975Y-97440866D01*
X148926104Y-114779285D02*
X148964200Y-114817381D01*
X148964200Y-114817381D02*
X149002295Y-114931666D01*
X149002295Y-114931666D02*
X149002295Y-115007857D01*
X149002295Y-115007857D02*
X148964200Y-115122143D01*
X148964200Y-115122143D02*
X148888009Y-115198333D01*
X148888009Y-115198333D02*
X148811819Y-115236428D01*
X148811819Y-115236428D02*
X148659438Y-115274524D01*
X148659438Y-115274524D02*
X148545152Y-115274524D01*
X148545152Y-115274524D02*
X148392771Y-115236428D01*
X148392771Y-115236428D02*
X148316580Y-115198333D01*
X148316580Y-115198333D02*
X148240390Y-115122143D01*
X148240390Y-115122143D02*
X148202295Y-115007857D01*
X148202295Y-115007857D02*
X148202295Y-114931666D01*
X148202295Y-114931666D02*
X148240390Y-114817381D01*
X148240390Y-114817381D02*
X148278485Y-114779285D01*
X148278485Y-114474524D02*
X148240390Y-114436428D01*
X148240390Y-114436428D02*
X148202295Y-114360238D01*
X148202295Y-114360238D02*
X148202295Y-114169762D01*
X148202295Y-114169762D02*
X148240390Y-114093571D01*
X148240390Y-114093571D02*
X148278485Y-114055476D01*
X148278485Y-114055476D02*
X148354676Y-114017381D01*
X148354676Y-114017381D02*
X148430866Y-114017381D01*
X148430866Y-114017381D02*
X148545152Y-114055476D01*
X148545152Y-114055476D02*
X149002295Y-114512619D01*
X149002295Y-114512619D02*
X149002295Y-114017381D01*
X148202295Y-113522142D02*
X148202295Y-113445952D01*
X148202295Y-113445952D02*
X148240390Y-113369761D01*
X148240390Y-113369761D02*
X148278485Y-113331666D01*
X148278485Y-113331666D02*
X148354676Y-113293571D01*
X148354676Y-113293571D02*
X148507057Y-113255476D01*
X148507057Y-113255476D02*
X148697533Y-113255476D01*
X148697533Y-113255476D02*
X148849914Y-113293571D01*
X148849914Y-113293571D02*
X148926104Y-113331666D01*
X148926104Y-113331666D02*
X148964200Y-113369761D01*
X148964200Y-113369761D02*
X149002295Y-113445952D01*
X149002295Y-113445952D02*
X149002295Y-113522142D01*
X149002295Y-113522142D02*
X148964200Y-113598333D01*
X148964200Y-113598333D02*
X148926104Y-113636428D01*
X148926104Y-113636428D02*
X148849914Y-113674523D01*
X148849914Y-113674523D02*
X148697533Y-113712619D01*
X148697533Y-113712619D02*
X148507057Y-113712619D01*
X148507057Y-113712619D02*
X148354676Y-113674523D01*
X148354676Y-113674523D02*
X148278485Y-113636428D01*
X148278485Y-113636428D02*
X148240390Y-113598333D01*
X148240390Y-113598333D02*
X148202295Y-113522142D01*
X152279166Y-102462295D02*
X151898214Y-102462295D01*
X151898214Y-102462295D02*
X151898214Y-101662295D01*
X152507737Y-101738485D02*
X152545833Y-101700390D01*
X152545833Y-101700390D02*
X152622023Y-101662295D01*
X152622023Y-101662295D02*
X152812499Y-101662295D01*
X152812499Y-101662295D02*
X152888690Y-101700390D01*
X152888690Y-101700390D02*
X152926785Y-101738485D01*
X152926785Y-101738485D02*
X152964880Y-101814676D01*
X152964880Y-101814676D02*
X152964880Y-101890866D01*
X152964880Y-101890866D02*
X152926785Y-102005152D01*
X152926785Y-102005152D02*
X152469642Y-102462295D01*
X152469642Y-102462295D02*
X152964880Y-102462295D01*
X123286104Y-100733332D02*
X123324200Y-100771428D01*
X123324200Y-100771428D02*
X123362295Y-100885713D01*
X123362295Y-100885713D02*
X123362295Y-100961904D01*
X123362295Y-100961904D02*
X123324200Y-101076190D01*
X123324200Y-101076190D02*
X123248009Y-101152380D01*
X123248009Y-101152380D02*
X123171819Y-101190475D01*
X123171819Y-101190475D02*
X123019438Y-101228571D01*
X123019438Y-101228571D02*
X122905152Y-101228571D01*
X122905152Y-101228571D02*
X122752771Y-101190475D01*
X122752771Y-101190475D02*
X122676580Y-101152380D01*
X122676580Y-101152380D02*
X122600390Y-101076190D01*
X122600390Y-101076190D02*
X122562295Y-100961904D01*
X122562295Y-100961904D02*
X122562295Y-100885713D01*
X122562295Y-100885713D02*
X122600390Y-100771428D01*
X122600390Y-100771428D02*
X122638485Y-100733332D01*
X122638485Y-100428571D02*
X122600390Y-100390475D01*
X122600390Y-100390475D02*
X122562295Y-100314285D01*
X122562295Y-100314285D02*
X122562295Y-100123809D01*
X122562295Y-100123809D02*
X122600390Y-100047618D01*
X122600390Y-100047618D02*
X122638485Y-100009523D01*
X122638485Y-100009523D02*
X122714676Y-99971428D01*
X122714676Y-99971428D02*
X122790866Y-99971428D01*
X122790866Y-99971428D02*
X122905152Y-100009523D01*
X122905152Y-100009523D02*
X123362295Y-100466666D01*
X123362295Y-100466666D02*
X123362295Y-99971428D01*
X129666667Y-86486104D02*
X129628571Y-86524200D01*
X129628571Y-86524200D02*
X129514286Y-86562295D01*
X129514286Y-86562295D02*
X129438095Y-86562295D01*
X129438095Y-86562295D02*
X129323809Y-86524200D01*
X129323809Y-86524200D02*
X129247619Y-86448009D01*
X129247619Y-86448009D02*
X129209524Y-86371819D01*
X129209524Y-86371819D02*
X129171428Y-86219438D01*
X129171428Y-86219438D02*
X129171428Y-86105152D01*
X129171428Y-86105152D02*
X129209524Y-85952771D01*
X129209524Y-85952771D02*
X129247619Y-85876580D01*
X129247619Y-85876580D02*
X129323809Y-85800390D01*
X129323809Y-85800390D02*
X129438095Y-85762295D01*
X129438095Y-85762295D02*
X129514286Y-85762295D01*
X129514286Y-85762295D02*
X129628571Y-85800390D01*
X129628571Y-85800390D02*
X129666667Y-85838485D01*
X130352381Y-85762295D02*
X130200000Y-85762295D01*
X130200000Y-85762295D02*
X130123809Y-85800390D01*
X130123809Y-85800390D02*
X130085714Y-85838485D01*
X130085714Y-85838485D02*
X130009524Y-85952771D01*
X130009524Y-85952771D02*
X129971428Y-86105152D01*
X129971428Y-86105152D02*
X129971428Y-86409914D01*
X129971428Y-86409914D02*
X130009524Y-86486104D01*
X130009524Y-86486104D02*
X130047619Y-86524200D01*
X130047619Y-86524200D02*
X130123809Y-86562295D01*
X130123809Y-86562295D02*
X130276190Y-86562295D01*
X130276190Y-86562295D02*
X130352381Y-86524200D01*
X130352381Y-86524200D02*
X130390476Y-86486104D01*
X130390476Y-86486104D02*
X130428571Y-86409914D01*
X130428571Y-86409914D02*
X130428571Y-86219438D01*
X130428571Y-86219438D02*
X130390476Y-86143247D01*
X130390476Y-86143247D02*
X130352381Y-86105152D01*
X130352381Y-86105152D02*
X130276190Y-86067057D01*
X130276190Y-86067057D02*
X130123809Y-86067057D01*
X130123809Y-86067057D02*
X130047619Y-86105152D01*
X130047619Y-86105152D02*
X130009524Y-86143247D01*
X130009524Y-86143247D02*
X129971428Y-86219438D01*
X117362295Y-104514285D02*
X116981342Y-104780952D01*
X117362295Y-104971428D02*
X116562295Y-104971428D01*
X116562295Y-104971428D02*
X116562295Y-104666666D01*
X116562295Y-104666666D02*
X116600390Y-104590476D01*
X116600390Y-104590476D02*
X116638485Y-104552381D01*
X116638485Y-104552381D02*
X116714676Y-104514285D01*
X116714676Y-104514285D02*
X116828961Y-104514285D01*
X116828961Y-104514285D02*
X116905152Y-104552381D01*
X116905152Y-104552381D02*
X116943247Y-104590476D01*
X116943247Y-104590476D02*
X116981342Y-104666666D01*
X116981342Y-104666666D02*
X116981342Y-104971428D01*
X117362295Y-103752381D02*
X117362295Y-104209524D01*
X117362295Y-103980952D02*
X116562295Y-103980952D01*
X116562295Y-103980952D02*
X116676580Y-104057143D01*
X116676580Y-104057143D02*
X116752771Y-104133333D01*
X116752771Y-104133333D02*
X116790866Y-104209524D01*
X116562295Y-103028571D02*
X116562295Y-103409523D01*
X116562295Y-103409523D02*
X116943247Y-103447619D01*
X116943247Y-103447619D02*
X116905152Y-103409523D01*
X116905152Y-103409523D02*
X116867057Y-103333333D01*
X116867057Y-103333333D02*
X116867057Y-103142857D01*
X116867057Y-103142857D02*
X116905152Y-103066666D01*
X116905152Y-103066666D02*
X116943247Y-103028571D01*
X116943247Y-103028571D02*
X117019438Y-102990476D01*
X117019438Y-102990476D02*
X117209914Y-102990476D01*
X117209914Y-102990476D02*
X117286104Y-103028571D01*
X117286104Y-103028571D02*
X117324200Y-103066666D01*
X117324200Y-103066666D02*
X117362295Y-103142857D01*
X117362295Y-103142857D02*
X117362295Y-103333333D01*
X117362295Y-103333333D02*
X117324200Y-103409523D01*
X117324200Y-103409523D02*
X117286104Y-103447619D01*
X177262295Y-114733332D02*
X176881342Y-114999999D01*
X177262295Y-115190475D02*
X176462295Y-115190475D01*
X176462295Y-115190475D02*
X176462295Y-114885713D01*
X176462295Y-114885713D02*
X176500390Y-114809523D01*
X176500390Y-114809523D02*
X176538485Y-114771428D01*
X176538485Y-114771428D02*
X176614676Y-114733332D01*
X176614676Y-114733332D02*
X176728961Y-114733332D01*
X176728961Y-114733332D02*
X176805152Y-114771428D01*
X176805152Y-114771428D02*
X176843247Y-114809523D01*
X176843247Y-114809523D02*
X176881342Y-114885713D01*
X176881342Y-114885713D02*
X176881342Y-115190475D01*
X177262295Y-113971428D02*
X177262295Y-114428571D01*
X177262295Y-114199999D02*
X176462295Y-114199999D01*
X176462295Y-114199999D02*
X176576580Y-114276190D01*
X176576580Y-114276190D02*
X176652771Y-114352380D01*
X176652771Y-114352380D02*
X176690866Y-114428571D01*
X182033333Y-104362295D02*
X182033333Y-104933723D01*
X182033333Y-104933723D02*
X181995238Y-105048009D01*
X181995238Y-105048009D02*
X181919047Y-105124200D01*
X181919047Y-105124200D02*
X181804762Y-105162295D01*
X181804762Y-105162295D02*
X181728571Y-105162295D01*
X182376190Y-104438485D02*
X182414286Y-104400390D01*
X182414286Y-104400390D02*
X182490476Y-104362295D01*
X182490476Y-104362295D02*
X182680952Y-104362295D01*
X182680952Y-104362295D02*
X182757143Y-104400390D01*
X182757143Y-104400390D02*
X182795238Y-104438485D01*
X182795238Y-104438485D02*
X182833333Y-104514676D01*
X182833333Y-104514676D02*
X182833333Y-104590866D01*
X182833333Y-104590866D02*
X182795238Y-104705152D01*
X182795238Y-104705152D02*
X182338095Y-105162295D01*
X182338095Y-105162295D02*
X182833333Y-105162295D01*
X151133333Y-79242295D02*
X151133333Y-79813723D01*
X151133333Y-79813723D02*
X151095238Y-79928009D01*
X151095238Y-79928009D02*
X151019047Y-80004200D01*
X151019047Y-80004200D02*
X150904762Y-80042295D01*
X150904762Y-80042295D02*
X150828571Y-80042295D01*
X151552381Y-80042295D02*
X151704762Y-80042295D01*
X151704762Y-80042295D02*
X151780952Y-80004200D01*
X151780952Y-80004200D02*
X151819048Y-79966104D01*
X151819048Y-79966104D02*
X151895238Y-79851819D01*
X151895238Y-79851819D02*
X151933333Y-79699438D01*
X151933333Y-79699438D02*
X151933333Y-79394676D01*
X151933333Y-79394676D02*
X151895238Y-79318485D01*
X151895238Y-79318485D02*
X151857143Y-79280390D01*
X151857143Y-79280390D02*
X151780952Y-79242295D01*
X151780952Y-79242295D02*
X151628571Y-79242295D01*
X151628571Y-79242295D02*
X151552381Y-79280390D01*
X151552381Y-79280390D02*
X151514286Y-79318485D01*
X151514286Y-79318485D02*
X151476190Y-79394676D01*
X151476190Y-79394676D02*
X151476190Y-79585152D01*
X151476190Y-79585152D02*
X151514286Y-79661342D01*
X151514286Y-79661342D02*
X151552381Y-79699438D01*
X151552381Y-79699438D02*
X151628571Y-79737533D01*
X151628571Y-79737533D02*
X151780952Y-79737533D01*
X151780952Y-79737533D02*
X151857143Y-79699438D01*
X151857143Y-79699438D02*
X151895238Y-79661342D01*
X151895238Y-79661342D02*
X151933333Y-79585152D01*
X150290476Y-109962295D02*
X150290476Y-110609914D01*
X150290476Y-110609914D02*
X150328571Y-110686104D01*
X150328571Y-110686104D02*
X150366666Y-110724200D01*
X150366666Y-110724200D02*
X150442857Y-110762295D01*
X150442857Y-110762295D02*
X150595238Y-110762295D01*
X150595238Y-110762295D02*
X150671428Y-110724200D01*
X150671428Y-110724200D02*
X150709523Y-110686104D01*
X150709523Y-110686104D02*
X150747619Y-110609914D01*
X150747619Y-110609914D02*
X150747619Y-109962295D01*
X151471428Y-109962295D02*
X151319047Y-109962295D01*
X151319047Y-109962295D02*
X151242856Y-110000390D01*
X151242856Y-110000390D02*
X151204761Y-110038485D01*
X151204761Y-110038485D02*
X151128571Y-110152771D01*
X151128571Y-110152771D02*
X151090475Y-110305152D01*
X151090475Y-110305152D02*
X151090475Y-110609914D01*
X151090475Y-110609914D02*
X151128571Y-110686104D01*
X151128571Y-110686104D02*
X151166666Y-110724200D01*
X151166666Y-110724200D02*
X151242856Y-110762295D01*
X151242856Y-110762295D02*
X151395237Y-110762295D01*
X151395237Y-110762295D02*
X151471428Y-110724200D01*
X151471428Y-110724200D02*
X151509523Y-110686104D01*
X151509523Y-110686104D02*
X151547618Y-110609914D01*
X151547618Y-110609914D02*
X151547618Y-110419438D01*
X151547618Y-110419438D02*
X151509523Y-110343247D01*
X151509523Y-110343247D02*
X151471428Y-110305152D01*
X151471428Y-110305152D02*
X151395237Y-110267057D01*
X151395237Y-110267057D02*
X151242856Y-110267057D01*
X151242856Y-110267057D02*
X151166666Y-110305152D01*
X151166666Y-110305152D02*
X151128571Y-110343247D01*
X151128571Y-110343247D02*
X151090475Y-110419438D01*
X126392295Y-72636666D02*
X126963723Y-72636666D01*
X126963723Y-72636666D02*
X127078009Y-72674761D01*
X127078009Y-72674761D02*
X127154200Y-72750952D01*
X127154200Y-72750952D02*
X127192295Y-72865237D01*
X127192295Y-72865237D02*
X127192295Y-72941428D01*
X126392295Y-71912856D02*
X126392295Y-72065237D01*
X126392295Y-72065237D02*
X126430390Y-72141428D01*
X126430390Y-72141428D02*
X126468485Y-72179523D01*
X126468485Y-72179523D02*
X126582771Y-72255713D01*
X126582771Y-72255713D02*
X126735152Y-72293809D01*
X126735152Y-72293809D02*
X127039914Y-72293809D01*
X127039914Y-72293809D02*
X127116104Y-72255713D01*
X127116104Y-72255713D02*
X127154200Y-72217618D01*
X127154200Y-72217618D02*
X127192295Y-72141428D01*
X127192295Y-72141428D02*
X127192295Y-71989047D01*
X127192295Y-71989047D02*
X127154200Y-71912856D01*
X127154200Y-71912856D02*
X127116104Y-71874761D01*
X127116104Y-71874761D02*
X127039914Y-71836666D01*
X127039914Y-71836666D02*
X126849438Y-71836666D01*
X126849438Y-71836666D02*
X126773247Y-71874761D01*
X126773247Y-71874761D02*
X126735152Y-71912856D01*
X126735152Y-71912856D02*
X126697057Y-71989047D01*
X126697057Y-71989047D02*
X126697057Y-72141428D01*
X126697057Y-72141428D02*
X126735152Y-72217618D01*
X126735152Y-72217618D02*
X126773247Y-72255713D01*
X126773247Y-72255713D02*
X126849438Y-72293809D01*
X158185714Y-108486104D02*
X158147618Y-108524200D01*
X158147618Y-108524200D02*
X158033333Y-108562295D01*
X158033333Y-108562295D02*
X157957142Y-108562295D01*
X157957142Y-108562295D02*
X157842856Y-108524200D01*
X157842856Y-108524200D02*
X157766666Y-108448009D01*
X157766666Y-108448009D02*
X157728571Y-108371819D01*
X157728571Y-108371819D02*
X157690475Y-108219438D01*
X157690475Y-108219438D02*
X157690475Y-108105152D01*
X157690475Y-108105152D02*
X157728571Y-107952771D01*
X157728571Y-107952771D02*
X157766666Y-107876580D01*
X157766666Y-107876580D02*
X157842856Y-107800390D01*
X157842856Y-107800390D02*
X157957142Y-107762295D01*
X157957142Y-107762295D02*
X158033333Y-107762295D01*
X158033333Y-107762295D02*
X158147618Y-107800390D01*
X158147618Y-107800390D02*
X158185714Y-107838485D01*
X158490475Y-107838485D02*
X158528571Y-107800390D01*
X158528571Y-107800390D02*
X158604761Y-107762295D01*
X158604761Y-107762295D02*
X158795237Y-107762295D01*
X158795237Y-107762295D02*
X158871428Y-107800390D01*
X158871428Y-107800390D02*
X158909523Y-107838485D01*
X158909523Y-107838485D02*
X158947618Y-107914676D01*
X158947618Y-107914676D02*
X158947618Y-107990866D01*
X158947618Y-107990866D02*
X158909523Y-108105152D01*
X158909523Y-108105152D02*
X158452380Y-108562295D01*
X158452380Y-108562295D02*
X158947618Y-108562295D01*
X159214285Y-107762295D02*
X159709523Y-107762295D01*
X159709523Y-107762295D02*
X159442857Y-108067057D01*
X159442857Y-108067057D02*
X159557142Y-108067057D01*
X159557142Y-108067057D02*
X159633333Y-108105152D01*
X159633333Y-108105152D02*
X159671428Y-108143247D01*
X159671428Y-108143247D02*
X159709523Y-108219438D01*
X159709523Y-108219438D02*
X159709523Y-108409914D01*
X159709523Y-108409914D02*
X159671428Y-108486104D01*
X159671428Y-108486104D02*
X159633333Y-108524200D01*
X159633333Y-108524200D02*
X159557142Y-108562295D01*
X159557142Y-108562295D02*
X159328571Y-108562295D01*
X159328571Y-108562295D02*
X159252380Y-108524200D01*
X159252380Y-108524200D02*
X159214285Y-108486104D01*
X147085714Y-94586104D02*
X147047618Y-94624200D01*
X147047618Y-94624200D02*
X146933333Y-94662295D01*
X146933333Y-94662295D02*
X146857142Y-94662295D01*
X146857142Y-94662295D02*
X146742856Y-94624200D01*
X146742856Y-94624200D02*
X146666666Y-94548009D01*
X146666666Y-94548009D02*
X146628571Y-94471819D01*
X146628571Y-94471819D02*
X146590475Y-94319438D01*
X146590475Y-94319438D02*
X146590475Y-94205152D01*
X146590475Y-94205152D02*
X146628571Y-94052771D01*
X146628571Y-94052771D02*
X146666666Y-93976580D01*
X146666666Y-93976580D02*
X146742856Y-93900390D01*
X146742856Y-93900390D02*
X146857142Y-93862295D01*
X146857142Y-93862295D02*
X146933333Y-93862295D01*
X146933333Y-93862295D02*
X147047618Y-93900390D01*
X147047618Y-93900390D02*
X147085714Y-93938485D01*
X147847618Y-94662295D02*
X147390475Y-94662295D01*
X147619047Y-94662295D02*
X147619047Y-93862295D01*
X147619047Y-93862295D02*
X147542856Y-93976580D01*
X147542856Y-93976580D02*
X147466666Y-94052771D01*
X147466666Y-94052771D02*
X147390475Y-94090866D01*
X148304761Y-94205152D02*
X148228571Y-94167057D01*
X148228571Y-94167057D02*
X148190476Y-94128961D01*
X148190476Y-94128961D02*
X148152380Y-94052771D01*
X148152380Y-94052771D02*
X148152380Y-94014676D01*
X148152380Y-94014676D02*
X148190476Y-93938485D01*
X148190476Y-93938485D02*
X148228571Y-93900390D01*
X148228571Y-93900390D02*
X148304761Y-93862295D01*
X148304761Y-93862295D02*
X148457142Y-93862295D01*
X148457142Y-93862295D02*
X148533333Y-93900390D01*
X148533333Y-93900390D02*
X148571428Y-93938485D01*
X148571428Y-93938485D02*
X148609523Y-94014676D01*
X148609523Y-94014676D02*
X148609523Y-94052771D01*
X148609523Y-94052771D02*
X148571428Y-94128961D01*
X148571428Y-94128961D02*
X148533333Y-94167057D01*
X148533333Y-94167057D02*
X148457142Y-94205152D01*
X148457142Y-94205152D02*
X148304761Y-94205152D01*
X148304761Y-94205152D02*
X148228571Y-94243247D01*
X148228571Y-94243247D02*
X148190476Y-94281342D01*
X148190476Y-94281342D02*
X148152380Y-94357533D01*
X148152380Y-94357533D02*
X148152380Y-94509914D01*
X148152380Y-94509914D02*
X148190476Y-94586104D01*
X148190476Y-94586104D02*
X148228571Y-94624200D01*
X148228571Y-94624200D02*
X148304761Y-94662295D01*
X148304761Y-94662295D02*
X148457142Y-94662295D01*
X148457142Y-94662295D02*
X148533333Y-94624200D01*
X148533333Y-94624200D02*
X148571428Y-94586104D01*
X148571428Y-94586104D02*
X148609523Y-94509914D01*
X148609523Y-94509914D02*
X148609523Y-94357533D01*
X148609523Y-94357533D02*
X148571428Y-94281342D01*
X148571428Y-94281342D02*
X148533333Y-94243247D01*
X148533333Y-94243247D02*
X148457142Y-94205152D01*
X169632024Y-97612295D02*
X169632024Y-96812295D01*
X169632024Y-96812295D02*
X169822500Y-96812295D01*
X169822500Y-96812295D02*
X169936786Y-96850390D01*
X169936786Y-96850390D02*
X170012976Y-96926580D01*
X170012976Y-96926580D02*
X170051071Y-97002771D01*
X170051071Y-97002771D02*
X170089167Y-97155152D01*
X170089167Y-97155152D02*
X170089167Y-97269438D01*
X170089167Y-97269438D02*
X170051071Y-97421819D01*
X170051071Y-97421819D02*
X170012976Y-97498009D01*
X170012976Y-97498009D02*
X169936786Y-97574200D01*
X169936786Y-97574200D02*
X169822500Y-97612295D01*
X169822500Y-97612295D02*
X169632024Y-97612295D01*
X170393928Y-96888485D02*
X170432024Y-96850390D01*
X170432024Y-96850390D02*
X170508214Y-96812295D01*
X170508214Y-96812295D02*
X170698690Y-96812295D01*
X170698690Y-96812295D02*
X170774881Y-96850390D01*
X170774881Y-96850390D02*
X170812976Y-96888485D01*
X170812976Y-96888485D02*
X170851071Y-96964676D01*
X170851071Y-96964676D02*
X170851071Y-97040866D01*
X170851071Y-97040866D02*
X170812976Y-97155152D01*
X170812976Y-97155152D02*
X170355833Y-97612295D01*
X170355833Y-97612295D02*
X170851071Y-97612295D01*
X111533332Y-79114200D02*
X111647618Y-79152295D01*
X111647618Y-79152295D02*
X111838094Y-79152295D01*
X111838094Y-79152295D02*
X111914285Y-79114200D01*
X111914285Y-79114200D02*
X111952380Y-79076104D01*
X111952380Y-79076104D02*
X111990475Y-78999914D01*
X111990475Y-78999914D02*
X111990475Y-78923723D01*
X111990475Y-78923723D02*
X111952380Y-78847533D01*
X111952380Y-78847533D02*
X111914285Y-78809438D01*
X111914285Y-78809438D02*
X111838094Y-78771342D01*
X111838094Y-78771342D02*
X111685713Y-78733247D01*
X111685713Y-78733247D02*
X111609523Y-78695152D01*
X111609523Y-78695152D02*
X111571428Y-78657057D01*
X111571428Y-78657057D02*
X111533332Y-78580866D01*
X111533332Y-78580866D02*
X111533332Y-78504676D01*
X111533332Y-78504676D02*
X111571428Y-78428485D01*
X111571428Y-78428485D02*
X111609523Y-78390390D01*
X111609523Y-78390390D02*
X111685713Y-78352295D01*
X111685713Y-78352295D02*
X111876190Y-78352295D01*
X111876190Y-78352295D02*
X111990475Y-78390390D01*
X112257142Y-78352295D02*
X112447618Y-79152295D01*
X112447618Y-79152295D02*
X112599999Y-78580866D01*
X112599999Y-78580866D02*
X112752380Y-79152295D01*
X112752380Y-79152295D02*
X112942857Y-78352295D01*
X113209523Y-78428485D02*
X113247619Y-78390390D01*
X113247619Y-78390390D02*
X113323809Y-78352295D01*
X113323809Y-78352295D02*
X113514285Y-78352295D01*
X113514285Y-78352295D02*
X113590476Y-78390390D01*
X113590476Y-78390390D02*
X113628571Y-78428485D01*
X113628571Y-78428485D02*
X113666666Y-78504676D01*
X113666666Y-78504676D02*
X113666666Y-78580866D01*
X113666666Y-78580866D02*
X113628571Y-78695152D01*
X113628571Y-78695152D02*
X113171428Y-79152295D01*
X113171428Y-79152295D02*
X113666666Y-79152295D01*
X160974200Y-85966667D02*
X161012295Y-85852381D01*
X161012295Y-85852381D02*
X161012295Y-85661905D01*
X161012295Y-85661905D02*
X160974200Y-85585714D01*
X160974200Y-85585714D02*
X160936104Y-85547619D01*
X160936104Y-85547619D02*
X160859914Y-85509524D01*
X160859914Y-85509524D02*
X160783723Y-85509524D01*
X160783723Y-85509524D02*
X160707533Y-85547619D01*
X160707533Y-85547619D02*
X160669438Y-85585714D01*
X160669438Y-85585714D02*
X160631342Y-85661905D01*
X160631342Y-85661905D02*
X160593247Y-85814286D01*
X160593247Y-85814286D02*
X160555152Y-85890476D01*
X160555152Y-85890476D02*
X160517057Y-85928571D01*
X160517057Y-85928571D02*
X160440866Y-85966667D01*
X160440866Y-85966667D02*
X160364676Y-85966667D01*
X160364676Y-85966667D02*
X160288485Y-85928571D01*
X160288485Y-85928571D02*
X160250390Y-85890476D01*
X160250390Y-85890476D02*
X160212295Y-85814286D01*
X160212295Y-85814286D02*
X160212295Y-85623809D01*
X160212295Y-85623809D02*
X160250390Y-85509524D01*
X160212295Y-85242857D02*
X161012295Y-85052381D01*
X161012295Y-85052381D02*
X160440866Y-84900000D01*
X160440866Y-84900000D02*
X161012295Y-84747619D01*
X161012295Y-84747619D02*
X160212295Y-84557143D01*
X160212295Y-84328571D02*
X160212295Y-83833333D01*
X160212295Y-83833333D02*
X160517057Y-84099999D01*
X160517057Y-84099999D02*
X160517057Y-83985714D01*
X160517057Y-83985714D02*
X160555152Y-83909523D01*
X160555152Y-83909523D02*
X160593247Y-83871428D01*
X160593247Y-83871428D02*
X160669438Y-83833333D01*
X160669438Y-83833333D02*
X160859914Y-83833333D01*
X160859914Y-83833333D02*
X160936104Y-83871428D01*
X160936104Y-83871428D02*
X160974200Y-83909523D01*
X160974200Y-83909523D02*
X161012295Y-83985714D01*
X161012295Y-83985714D02*
X161012295Y-84214285D01*
X161012295Y-84214285D02*
X160974200Y-84290476D01*
X160974200Y-84290476D02*
X160936104Y-84328571D01*
X148486104Y-106414285D02*
X148524200Y-106452381D01*
X148524200Y-106452381D02*
X148562295Y-106566666D01*
X148562295Y-106566666D02*
X148562295Y-106642857D01*
X148562295Y-106642857D02*
X148524200Y-106757143D01*
X148524200Y-106757143D02*
X148448009Y-106833333D01*
X148448009Y-106833333D02*
X148371819Y-106871428D01*
X148371819Y-106871428D02*
X148219438Y-106909524D01*
X148219438Y-106909524D02*
X148105152Y-106909524D01*
X148105152Y-106909524D02*
X147952771Y-106871428D01*
X147952771Y-106871428D02*
X147876580Y-106833333D01*
X147876580Y-106833333D02*
X147800390Y-106757143D01*
X147800390Y-106757143D02*
X147762295Y-106642857D01*
X147762295Y-106642857D02*
X147762295Y-106566666D01*
X147762295Y-106566666D02*
X147800390Y-106452381D01*
X147800390Y-106452381D02*
X147838485Y-106414285D01*
X147838485Y-106109524D02*
X147800390Y-106071428D01*
X147800390Y-106071428D02*
X147762295Y-105995238D01*
X147762295Y-105995238D02*
X147762295Y-105804762D01*
X147762295Y-105804762D02*
X147800390Y-105728571D01*
X147800390Y-105728571D02*
X147838485Y-105690476D01*
X147838485Y-105690476D02*
X147914676Y-105652381D01*
X147914676Y-105652381D02*
X147990866Y-105652381D01*
X147990866Y-105652381D02*
X148105152Y-105690476D01*
X148105152Y-105690476D02*
X148562295Y-106147619D01*
X148562295Y-106147619D02*
X148562295Y-105652381D01*
X148028961Y-104966666D02*
X148562295Y-104966666D01*
X147724200Y-105157142D02*
X148295628Y-105347619D01*
X148295628Y-105347619D02*
X148295628Y-104852380D01*
X111390476Y-102962295D02*
X111390476Y-103609914D01*
X111390476Y-103609914D02*
X111428571Y-103686104D01*
X111428571Y-103686104D02*
X111466666Y-103724200D01*
X111466666Y-103724200D02*
X111542857Y-103762295D01*
X111542857Y-103762295D02*
X111695238Y-103762295D01*
X111695238Y-103762295D02*
X111771428Y-103724200D01*
X111771428Y-103724200D02*
X111809523Y-103686104D01*
X111809523Y-103686104D02*
X111847619Y-103609914D01*
X111847619Y-103609914D02*
X111847619Y-102962295D01*
X112342856Y-103305152D02*
X112266666Y-103267057D01*
X112266666Y-103267057D02*
X112228571Y-103228961D01*
X112228571Y-103228961D02*
X112190475Y-103152771D01*
X112190475Y-103152771D02*
X112190475Y-103114676D01*
X112190475Y-103114676D02*
X112228571Y-103038485D01*
X112228571Y-103038485D02*
X112266666Y-103000390D01*
X112266666Y-103000390D02*
X112342856Y-102962295D01*
X112342856Y-102962295D02*
X112495237Y-102962295D01*
X112495237Y-102962295D02*
X112571428Y-103000390D01*
X112571428Y-103000390D02*
X112609523Y-103038485D01*
X112609523Y-103038485D02*
X112647618Y-103114676D01*
X112647618Y-103114676D02*
X112647618Y-103152771D01*
X112647618Y-103152771D02*
X112609523Y-103228961D01*
X112609523Y-103228961D02*
X112571428Y-103267057D01*
X112571428Y-103267057D02*
X112495237Y-103305152D01*
X112495237Y-103305152D02*
X112342856Y-103305152D01*
X112342856Y-103305152D02*
X112266666Y-103343247D01*
X112266666Y-103343247D02*
X112228571Y-103381342D01*
X112228571Y-103381342D02*
X112190475Y-103457533D01*
X112190475Y-103457533D02*
X112190475Y-103609914D01*
X112190475Y-103609914D02*
X112228571Y-103686104D01*
X112228571Y-103686104D02*
X112266666Y-103724200D01*
X112266666Y-103724200D02*
X112342856Y-103762295D01*
X112342856Y-103762295D02*
X112495237Y-103762295D01*
X112495237Y-103762295D02*
X112571428Y-103724200D01*
X112571428Y-103724200D02*
X112609523Y-103686104D01*
X112609523Y-103686104D02*
X112647618Y-103609914D01*
X112647618Y-103609914D02*
X112647618Y-103457533D01*
X112647618Y-103457533D02*
X112609523Y-103381342D01*
X112609523Y-103381342D02*
X112571428Y-103343247D01*
X112571428Y-103343247D02*
X112495237Y-103305152D01*
X129933333Y-116362295D02*
X129933333Y-116933723D01*
X129933333Y-116933723D02*
X129895238Y-117048009D01*
X129895238Y-117048009D02*
X129819047Y-117124200D01*
X129819047Y-117124200D02*
X129704762Y-117162295D01*
X129704762Y-117162295D02*
X129628571Y-117162295D01*
X130238095Y-116362295D02*
X130771429Y-116362295D01*
X130771429Y-116362295D02*
X130428571Y-117162295D01*
X126085714Y-79386104D02*
X126047618Y-79424200D01*
X126047618Y-79424200D02*
X125933333Y-79462295D01*
X125933333Y-79462295D02*
X125857142Y-79462295D01*
X125857142Y-79462295D02*
X125742856Y-79424200D01*
X125742856Y-79424200D02*
X125666666Y-79348009D01*
X125666666Y-79348009D02*
X125628571Y-79271819D01*
X125628571Y-79271819D02*
X125590475Y-79119438D01*
X125590475Y-79119438D02*
X125590475Y-79005152D01*
X125590475Y-79005152D02*
X125628571Y-78852771D01*
X125628571Y-78852771D02*
X125666666Y-78776580D01*
X125666666Y-78776580D02*
X125742856Y-78700390D01*
X125742856Y-78700390D02*
X125857142Y-78662295D01*
X125857142Y-78662295D02*
X125933333Y-78662295D01*
X125933333Y-78662295D02*
X126047618Y-78700390D01*
X126047618Y-78700390D02*
X126085714Y-78738485D01*
X126847618Y-79462295D02*
X126390475Y-79462295D01*
X126619047Y-79462295D02*
X126619047Y-78662295D01*
X126619047Y-78662295D02*
X126542856Y-78776580D01*
X126542856Y-78776580D02*
X126466666Y-78852771D01*
X126466666Y-78852771D02*
X126390475Y-78890866D01*
X127114285Y-78662295D02*
X127647619Y-78662295D01*
X127647619Y-78662295D02*
X127304761Y-79462295D01*
X121062295Y-82866666D02*
X121633723Y-82866666D01*
X121633723Y-82866666D02*
X121748009Y-82904761D01*
X121748009Y-82904761D02*
X121824200Y-82980952D01*
X121824200Y-82980952D02*
X121862295Y-83095237D01*
X121862295Y-83095237D02*
X121862295Y-83171428D01*
X121862295Y-82485713D02*
X121062295Y-82485713D01*
X121062295Y-82485713D02*
X121062295Y-82180951D01*
X121062295Y-82180951D02*
X121100390Y-82104761D01*
X121100390Y-82104761D02*
X121138485Y-82066666D01*
X121138485Y-82066666D02*
X121214676Y-82028570D01*
X121214676Y-82028570D02*
X121328961Y-82028570D01*
X121328961Y-82028570D02*
X121405152Y-82066666D01*
X121405152Y-82066666D02*
X121443247Y-82104761D01*
X121443247Y-82104761D02*
X121481342Y-82180951D01*
X121481342Y-82180951D02*
X121481342Y-82485713D01*
X121862295Y-81266666D02*
X121862295Y-81723809D01*
X121862295Y-81495237D02*
X121062295Y-81495237D01*
X121062295Y-81495237D02*
X121176580Y-81571428D01*
X121176580Y-81571428D02*
X121252771Y-81647618D01*
X121252771Y-81647618D02*
X121290866Y-81723809D01*
X116585714Y-108286104D02*
X116547618Y-108324200D01*
X116547618Y-108324200D02*
X116433333Y-108362295D01*
X116433333Y-108362295D02*
X116357142Y-108362295D01*
X116357142Y-108362295D02*
X116242856Y-108324200D01*
X116242856Y-108324200D02*
X116166666Y-108248009D01*
X116166666Y-108248009D02*
X116128571Y-108171819D01*
X116128571Y-108171819D02*
X116090475Y-108019438D01*
X116090475Y-108019438D02*
X116090475Y-107905152D01*
X116090475Y-107905152D02*
X116128571Y-107752771D01*
X116128571Y-107752771D02*
X116166666Y-107676580D01*
X116166666Y-107676580D02*
X116242856Y-107600390D01*
X116242856Y-107600390D02*
X116357142Y-107562295D01*
X116357142Y-107562295D02*
X116433333Y-107562295D01*
X116433333Y-107562295D02*
X116547618Y-107600390D01*
X116547618Y-107600390D02*
X116585714Y-107638485D01*
X116890475Y-107638485D02*
X116928571Y-107600390D01*
X116928571Y-107600390D02*
X117004761Y-107562295D01*
X117004761Y-107562295D02*
X117195237Y-107562295D01*
X117195237Y-107562295D02*
X117271428Y-107600390D01*
X117271428Y-107600390D02*
X117309523Y-107638485D01*
X117309523Y-107638485D02*
X117347618Y-107714676D01*
X117347618Y-107714676D02*
X117347618Y-107790866D01*
X117347618Y-107790866D02*
X117309523Y-107905152D01*
X117309523Y-107905152D02*
X116852380Y-108362295D01*
X116852380Y-108362295D02*
X117347618Y-108362295D01*
X117614285Y-107562295D02*
X118147619Y-107562295D01*
X118147619Y-107562295D02*
X117804761Y-108362295D01*
X132212295Y-94509523D02*
X132859914Y-94509523D01*
X132859914Y-94509523D02*
X132936104Y-94471428D01*
X132936104Y-94471428D02*
X132974200Y-94433333D01*
X132974200Y-94433333D02*
X133012295Y-94357142D01*
X133012295Y-94357142D02*
X133012295Y-94204761D01*
X133012295Y-94204761D02*
X132974200Y-94128571D01*
X132974200Y-94128571D02*
X132936104Y-94090476D01*
X132936104Y-94090476D02*
X132859914Y-94052380D01*
X132859914Y-94052380D02*
X132212295Y-94052380D01*
X132212295Y-93747619D02*
X132212295Y-93252381D01*
X132212295Y-93252381D02*
X132517057Y-93519047D01*
X132517057Y-93519047D02*
X132517057Y-93404762D01*
X132517057Y-93404762D02*
X132555152Y-93328571D01*
X132555152Y-93328571D02*
X132593247Y-93290476D01*
X132593247Y-93290476D02*
X132669438Y-93252381D01*
X132669438Y-93252381D02*
X132859914Y-93252381D01*
X132859914Y-93252381D02*
X132936104Y-93290476D01*
X132936104Y-93290476D02*
X132974200Y-93328571D01*
X132974200Y-93328571D02*
X133012295Y-93404762D01*
X133012295Y-93404762D02*
X133012295Y-93633333D01*
X133012295Y-93633333D02*
X132974200Y-93709524D01*
X132974200Y-93709524D02*
X132936104Y-93747619D01*
X153985714Y-111662295D02*
X153719047Y-111281342D01*
X153528571Y-111662295D02*
X153528571Y-110862295D01*
X153528571Y-110862295D02*
X153833333Y-110862295D01*
X153833333Y-110862295D02*
X153909523Y-110900390D01*
X153909523Y-110900390D02*
X153947618Y-110938485D01*
X153947618Y-110938485D02*
X153985714Y-111014676D01*
X153985714Y-111014676D02*
X153985714Y-111128961D01*
X153985714Y-111128961D02*
X153947618Y-111205152D01*
X153947618Y-111205152D02*
X153909523Y-111243247D01*
X153909523Y-111243247D02*
X153833333Y-111281342D01*
X153833333Y-111281342D02*
X153528571Y-111281342D01*
X154747618Y-111662295D02*
X154290475Y-111662295D01*
X154519047Y-111662295D02*
X154519047Y-110862295D01*
X154519047Y-110862295D02*
X154442856Y-110976580D01*
X154442856Y-110976580D02*
X154366666Y-111052771D01*
X154366666Y-111052771D02*
X154290475Y-111090866D01*
X155509523Y-111662295D02*
X155052380Y-111662295D01*
X155280952Y-111662295D02*
X155280952Y-110862295D01*
X155280952Y-110862295D02*
X155204761Y-110976580D01*
X155204761Y-110976580D02*
X155128571Y-111052771D01*
X155128571Y-111052771D02*
X155052380Y-111090866D01*
X165062295Y-96467926D02*
X164681342Y-96734593D01*
X165062295Y-96925069D02*
X164262295Y-96925069D01*
X164262295Y-96925069D02*
X164262295Y-96620307D01*
X164262295Y-96620307D02*
X164300390Y-96544117D01*
X164300390Y-96544117D02*
X164338485Y-96506022D01*
X164338485Y-96506022D02*
X164414676Y-96467926D01*
X164414676Y-96467926D02*
X164528961Y-96467926D01*
X164528961Y-96467926D02*
X164605152Y-96506022D01*
X164605152Y-96506022D02*
X164643247Y-96544117D01*
X164643247Y-96544117D02*
X164681342Y-96620307D01*
X164681342Y-96620307D02*
X164681342Y-96925069D01*
X165062295Y-95706022D02*
X165062295Y-96163165D01*
X165062295Y-95934593D02*
X164262295Y-95934593D01*
X164262295Y-95934593D02*
X164376580Y-96010784D01*
X164376580Y-96010784D02*
X164452771Y-96086974D01*
X164452771Y-96086974D02*
X164490866Y-96163165D01*
X164528961Y-95020307D02*
X165062295Y-95020307D01*
X164224200Y-95210783D02*
X164795628Y-95401260D01*
X164795628Y-95401260D02*
X164795628Y-94906021D01*
X116262295Y-104514285D02*
X115881342Y-104780952D01*
X116262295Y-104971428D02*
X115462295Y-104971428D01*
X115462295Y-104971428D02*
X115462295Y-104666666D01*
X115462295Y-104666666D02*
X115500390Y-104590476D01*
X115500390Y-104590476D02*
X115538485Y-104552381D01*
X115538485Y-104552381D02*
X115614676Y-104514285D01*
X115614676Y-104514285D02*
X115728961Y-104514285D01*
X115728961Y-104514285D02*
X115805152Y-104552381D01*
X115805152Y-104552381D02*
X115843247Y-104590476D01*
X115843247Y-104590476D02*
X115881342Y-104666666D01*
X115881342Y-104666666D02*
X115881342Y-104971428D01*
X116262295Y-103752381D02*
X116262295Y-104209524D01*
X116262295Y-103980952D02*
X115462295Y-103980952D01*
X115462295Y-103980952D02*
X115576580Y-104057143D01*
X115576580Y-104057143D02*
X115652771Y-104133333D01*
X115652771Y-104133333D02*
X115690866Y-104209524D01*
X115462295Y-103066666D02*
X115462295Y-103219047D01*
X115462295Y-103219047D02*
X115500390Y-103295238D01*
X115500390Y-103295238D02*
X115538485Y-103333333D01*
X115538485Y-103333333D02*
X115652771Y-103409523D01*
X115652771Y-103409523D02*
X115805152Y-103447619D01*
X115805152Y-103447619D02*
X116109914Y-103447619D01*
X116109914Y-103447619D02*
X116186104Y-103409523D01*
X116186104Y-103409523D02*
X116224200Y-103371428D01*
X116224200Y-103371428D02*
X116262295Y-103295238D01*
X116262295Y-103295238D02*
X116262295Y-103142857D01*
X116262295Y-103142857D02*
X116224200Y-103066666D01*
X116224200Y-103066666D02*
X116186104Y-103028571D01*
X116186104Y-103028571D02*
X116109914Y-102990476D01*
X116109914Y-102990476D02*
X115919438Y-102990476D01*
X115919438Y-102990476D02*
X115843247Y-103028571D01*
X115843247Y-103028571D02*
X115805152Y-103066666D01*
X115805152Y-103066666D02*
X115767057Y-103142857D01*
X115767057Y-103142857D02*
X115767057Y-103295238D01*
X115767057Y-103295238D02*
X115805152Y-103371428D01*
X115805152Y-103371428D02*
X115843247Y-103409523D01*
X115843247Y-103409523D02*
X115919438Y-103447619D01*
X135762295Y-77690475D02*
X134962295Y-77690475D01*
X134962295Y-77690475D02*
X134962295Y-77499999D01*
X134962295Y-77499999D02*
X135000390Y-77385713D01*
X135000390Y-77385713D02*
X135076580Y-77309523D01*
X135076580Y-77309523D02*
X135152771Y-77271428D01*
X135152771Y-77271428D02*
X135305152Y-77233332D01*
X135305152Y-77233332D02*
X135419438Y-77233332D01*
X135419438Y-77233332D02*
X135571819Y-77271428D01*
X135571819Y-77271428D02*
X135648009Y-77309523D01*
X135648009Y-77309523D02*
X135724200Y-77385713D01*
X135724200Y-77385713D02*
X135762295Y-77499999D01*
X135762295Y-77499999D02*
X135762295Y-77690475D01*
X134962295Y-76547618D02*
X134962295Y-76699999D01*
X134962295Y-76699999D02*
X135000390Y-76776190D01*
X135000390Y-76776190D02*
X135038485Y-76814285D01*
X135038485Y-76814285D02*
X135152771Y-76890475D01*
X135152771Y-76890475D02*
X135305152Y-76928571D01*
X135305152Y-76928571D02*
X135609914Y-76928571D01*
X135609914Y-76928571D02*
X135686104Y-76890475D01*
X135686104Y-76890475D02*
X135724200Y-76852380D01*
X135724200Y-76852380D02*
X135762295Y-76776190D01*
X135762295Y-76776190D02*
X135762295Y-76623809D01*
X135762295Y-76623809D02*
X135724200Y-76547618D01*
X135724200Y-76547618D02*
X135686104Y-76509523D01*
X135686104Y-76509523D02*
X135609914Y-76471428D01*
X135609914Y-76471428D02*
X135419438Y-76471428D01*
X135419438Y-76471428D02*
X135343247Y-76509523D01*
X135343247Y-76509523D02*
X135305152Y-76547618D01*
X135305152Y-76547618D02*
X135267057Y-76623809D01*
X135267057Y-76623809D02*
X135267057Y-76776190D01*
X135267057Y-76776190D02*
X135305152Y-76852380D01*
X135305152Y-76852380D02*
X135343247Y-76890475D01*
X135343247Y-76890475D02*
X135419438Y-76928571D01*
X184409524Y-95662295D02*
X184409524Y-94862295D01*
X184866667Y-95662295D02*
X184523809Y-95205152D01*
X184866667Y-94862295D02*
X184409524Y-95319438D01*
X185171428Y-94938485D02*
X185209524Y-94900390D01*
X185209524Y-94900390D02*
X185285714Y-94862295D01*
X185285714Y-94862295D02*
X185476190Y-94862295D01*
X185476190Y-94862295D02*
X185552381Y-94900390D01*
X185552381Y-94900390D02*
X185590476Y-94938485D01*
X185590476Y-94938485D02*
X185628571Y-95014676D01*
X185628571Y-95014676D02*
X185628571Y-95090866D01*
X185628571Y-95090866D02*
X185590476Y-95205152D01*
X185590476Y-95205152D02*
X185133333Y-95662295D01*
X185133333Y-95662295D02*
X185628571Y-95662295D01*
X136807295Y-103223332D02*
X136426342Y-103489999D01*
X136807295Y-103680475D02*
X136007295Y-103680475D01*
X136007295Y-103680475D02*
X136007295Y-103375713D01*
X136007295Y-103375713D02*
X136045390Y-103299523D01*
X136045390Y-103299523D02*
X136083485Y-103261428D01*
X136083485Y-103261428D02*
X136159676Y-103223332D01*
X136159676Y-103223332D02*
X136273961Y-103223332D01*
X136273961Y-103223332D02*
X136350152Y-103261428D01*
X136350152Y-103261428D02*
X136388247Y-103299523D01*
X136388247Y-103299523D02*
X136426342Y-103375713D01*
X136426342Y-103375713D02*
X136426342Y-103680475D01*
X136083485Y-102918571D02*
X136045390Y-102880475D01*
X136045390Y-102880475D02*
X136007295Y-102804285D01*
X136007295Y-102804285D02*
X136007295Y-102613809D01*
X136007295Y-102613809D02*
X136045390Y-102537618D01*
X136045390Y-102537618D02*
X136083485Y-102499523D01*
X136083485Y-102499523D02*
X136159676Y-102461428D01*
X136159676Y-102461428D02*
X136235866Y-102461428D01*
X136235866Y-102461428D02*
X136350152Y-102499523D01*
X136350152Y-102499523D02*
X136807295Y-102956666D01*
X136807295Y-102956666D02*
X136807295Y-102461428D01*
X158396295Y-120896666D02*
X158967723Y-120896666D01*
X158967723Y-120896666D02*
X159082009Y-120934761D01*
X159082009Y-120934761D02*
X159158200Y-121010952D01*
X159158200Y-121010952D02*
X159196295Y-121125237D01*
X159196295Y-121125237D02*
X159196295Y-121201428D01*
X158396295Y-120134761D02*
X158396295Y-120515713D01*
X158396295Y-120515713D02*
X158777247Y-120553809D01*
X158777247Y-120553809D02*
X158739152Y-120515713D01*
X158739152Y-120515713D02*
X158701057Y-120439523D01*
X158701057Y-120439523D02*
X158701057Y-120249047D01*
X158701057Y-120249047D02*
X158739152Y-120172856D01*
X158739152Y-120172856D02*
X158777247Y-120134761D01*
X158777247Y-120134761D02*
X158853438Y-120096666D01*
X158853438Y-120096666D02*
X159043914Y-120096666D01*
X159043914Y-120096666D02*
X159120104Y-120134761D01*
X159120104Y-120134761D02*
X159158200Y-120172856D01*
X159158200Y-120172856D02*
X159196295Y-120249047D01*
X159196295Y-120249047D02*
X159196295Y-120439523D01*
X159196295Y-120439523D02*
X159158200Y-120515713D01*
X159158200Y-120515713D02*
X159120104Y-120553809D01*
D13*
%TO.C,C26*%
X156892164Y-111240000D02*
X157107836Y-111240000D01*
X156892164Y-111960000D02*
X157107836Y-111960000D01*
%TO.C,R12*%
X149386141Y-108805000D02*
X149078859Y-108805000D01*
X149386141Y-109565000D02*
X149078859Y-109565000D01*
%TO.C,C8*%
X142640000Y-84107836D02*
X142640000Y-83892164D01*
X143360000Y-84107836D02*
X143360000Y-83892164D01*
%TO.C,U1*%
X127540000Y-96440000D02*
X127540000Y-96710000D01*
X127540000Y-101960000D02*
X127540000Y-101690000D01*
X130300000Y-96440000D02*
X127540000Y-96440000D01*
X130300000Y-96440000D02*
X133060000Y-96440000D01*
X130300000Y-101960000D02*
X127540000Y-101960000D01*
X130300000Y-101960000D02*
X133060000Y-101960000D01*
X133060000Y-96440000D02*
X133060000Y-96710000D01*
X133060000Y-101960000D02*
X133060000Y-101690000D01*
X134065000Y-102020000D02*
X133585000Y-102020000D01*
X133825000Y-101690000D01*
X134065000Y-102020000D01*
G36*
X134065000Y-102020000D02*
G01*
X133585000Y-102020000D01*
X133825000Y-101690000D01*
X134065000Y-102020000D01*
G37*
%TO.C,C28*%
X114892164Y-108640000D02*
X115107836Y-108640000D01*
X114892164Y-109360000D02*
X115107836Y-109360000D01*
%TO.C,C25*%
X154640000Y-114407836D02*
X154640000Y-114192164D01*
X155360000Y-114407836D02*
X155360000Y-114192164D01*
%TO.C,R19*%
X138420000Y-79558859D02*
X138420000Y-79866141D01*
X139180000Y-79558859D02*
X139180000Y-79866141D01*
%TO.C,R22*%
X158470000Y-90043641D02*
X158470000Y-89736359D01*
X159230000Y-90043641D02*
X159230000Y-89736359D01*
%TO.C,R5*%
X146146359Y-86220000D02*
X146453641Y-86220000D01*
X146146359Y-86980000D02*
X146453641Y-86980000D01*
%TO.C,SW1*%
X127850000Y-102650000D02*
X127850000Y-102700000D01*
X127850000Y-102650000D02*
X132750000Y-102650000D01*
X127850000Y-104350000D02*
X127850000Y-105850000D01*
X127850000Y-107550000D02*
X127850000Y-107500000D01*
X127850000Y-107550000D02*
X132750000Y-107550000D01*
X132750000Y-102650000D02*
X132750000Y-102700000D01*
X132750000Y-104350000D02*
X132750000Y-105850000D01*
X132750000Y-107550000D02*
X132750000Y-107500000D01*
%TO.C,Q2*%
X178650000Y-94950000D02*
X177350000Y-94950000D01*
X178650000Y-96750000D02*
X177350000Y-96750000D01*
D12*
X176825000Y-95340000D02*
G75*
G02*
X176675000Y-95340000I-75000J0D01*
G01*
X176675000Y-95340000D02*
G75*
G02*
X176825000Y-95340000I75000J0D01*
G01*
D13*
%TO.C,C22*%
X152304664Y-105625000D02*
X152520336Y-105625000D01*
X152304664Y-106345000D02*
X152520336Y-106345000D01*
%TO.C,JP2*%
X126100000Y-88100000D02*
X126100000Y-87500000D01*
X126800000Y-86800000D02*
X128200000Y-86800000D01*
X128200000Y-88800000D02*
X126800000Y-88800000D01*
X128900000Y-87500000D02*
X128900000Y-88100000D01*
X126100000Y-87500000D02*
G75*
G02*
X126800000Y-86800000I699999J1D01*
G01*
X126800000Y-88800000D02*
G75*
G02*
X126100000Y-88100000I-1J699999D01*
G01*
X128200000Y-86800000D02*
G75*
G02*
X128900000Y-87500000I0J-700000D01*
G01*
X128900000Y-88100000D02*
G75*
G02*
X128200000Y-88800000I-700000J0D01*
G01*
%TO.C,U5*%
X150705000Y-114510000D02*
X150705000Y-113100000D01*
X153025000Y-114500000D02*
X153025000Y-113100000D01*
X150755000Y-114880000D02*
X150425000Y-115120000D01*
X150425000Y-114640000D01*
X150755000Y-114880000D01*
G36*
X150755000Y-114880000D02*
G01*
X150425000Y-115120000D01*
X150425000Y-114640000D01*
X150755000Y-114880000D01*
G37*
%TO.C,U7*%
X155840000Y-114510000D02*
X155840000Y-113100000D01*
X158160000Y-114500000D02*
X158160000Y-113100000D01*
X155890000Y-114880000D02*
X155560000Y-115120000D01*
X155560000Y-114640000D01*
X155890000Y-114880000D01*
G36*
X155890000Y-114880000D02*
G01*
X155560000Y-115120000D01*
X155560000Y-114640000D01*
X155890000Y-114880000D01*
G37*
%TO.C,D3*%
X179800000Y-95250000D02*
X181760000Y-95250000D01*
X179800000Y-96450000D02*
X181760000Y-96450000D01*
X181760000Y-96450000D02*
X181760000Y-95250000D01*
%TO.C,C1*%
X123640000Y-100707836D02*
X123640000Y-100492164D01*
X124360000Y-100707836D02*
X124360000Y-100492164D01*
%TO.C,R7*%
X128620000Y-82846359D02*
X128620000Y-83153641D01*
X129380000Y-82846359D02*
X129380000Y-83153641D01*
%TO.C,K1*%
X165465000Y-79210000D02*
X173245000Y-79210000D01*
X165465000Y-79670000D02*
X165465000Y-79210000D01*
X165465000Y-92370000D02*
X165465000Y-88950000D01*
X165465000Y-94490000D02*
X165465000Y-94030000D01*
X165465000Y-94490000D02*
X173245000Y-94490000D01*
X169065000Y-92600000D02*
X169065000Y-93800000D01*
X169065000Y-93800000D02*
X169765000Y-93800000D01*
X169765000Y-92600000D02*
X169065000Y-92600000D01*
X169765000Y-93000000D02*
X169065000Y-93400000D01*
X169765000Y-93800000D02*
X169765000Y-92600000D01*
X173245000Y-79670000D02*
X173245000Y-79210000D01*
X173245000Y-92370000D02*
X173245000Y-88950000D01*
X173245000Y-92370000D02*
X174365000Y-92370000D01*
X173245000Y-94030000D02*
X174365000Y-94030000D01*
X173245000Y-94490000D02*
X173245000Y-94030000D01*
%TO.C,D1*%
X154572500Y-105475000D02*
X154572500Y-107095000D01*
X154572500Y-105475000D02*
X157812500Y-105475000D01*
X154572500Y-107095000D02*
X157812500Y-107095000D01*
%TO.C,R4*%
X132446359Y-83820000D02*
X132753641Y-83820000D01*
X132446359Y-84580000D02*
X132753641Y-84580000D01*
%TO.C,R17*%
X175720000Y-95696359D02*
X175720000Y-96003641D01*
X176480000Y-95696359D02*
X176480000Y-96003641D01*
%TO.C,D5*%
X138065000Y-75627500D02*
X138065000Y-77912500D01*
X139535000Y-75627500D02*
X138065000Y-75627500D01*
X139535000Y-77912500D02*
X139535000Y-75627500D01*
%TO.C,R20*%
X140420000Y-79546359D02*
X140420000Y-79853641D01*
X141180000Y-79546359D02*
X141180000Y-79853641D01*
%TO.C,C29*%
X123240000Y-88492164D02*
X123240000Y-88707836D01*
X123960000Y-88492164D02*
X123960000Y-88707836D01*
%TO.C,J4*%
X127610000Y-71040000D02*
X127610000Y-73700000D01*
X128280000Y-73700000D02*
X127610000Y-73700000D01*
X130820000Y-71040000D02*
X127610000Y-71040000D01*
X133360000Y-73700000D02*
X129800000Y-73700000D01*
X135900000Y-71040000D02*
X132340000Y-71040000D01*
X138440000Y-73700000D02*
X134880000Y-73700000D01*
X140980000Y-71040000D02*
X137420000Y-71040000D01*
X143520000Y-73700000D02*
X139960000Y-73700000D01*
X146060000Y-71040000D02*
X142500000Y-71040000D01*
X147580000Y-69830000D02*
X147580000Y-71040000D01*
X148250000Y-71040000D02*
X147580000Y-71040000D01*
X148250000Y-71040000D02*
X148250000Y-73700000D01*
X148250000Y-73700000D02*
X145040000Y-73700000D01*
%TO.C,C21*%
X150707836Y-111240000D02*
X150492164Y-111240000D01*
X150707836Y-111960000D02*
X150492164Y-111960000D01*
%TO.C,C19*%
X149840000Y-90707836D02*
X149840000Y-90492164D01*
X150560000Y-90707836D02*
X150560000Y-90492164D01*
%TO.C,U9*%
X124287500Y-85715000D02*
X123687500Y-85715000D01*
X124287500Y-85715000D02*
X124887500Y-85715000D01*
X124287500Y-87585000D02*
X123687500Y-87585000D01*
X124287500Y-87585000D02*
X124887500Y-87585000D01*
X122977500Y-86150000D02*
X122647500Y-86390000D01*
X122647500Y-85910000D01*
X122977500Y-86150000D01*
G36*
X122977500Y-86150000D02*
G01*
X122647500Y-86390000D01*
X122647500Y-85910000D01*
X122977500Y-86150000D01*
G37*
%TO.C,U2*%
X173890000Y-110550000D02*
X173890000Y-111950000D01*
X176210000Y-110540000D02*
X176210000Y-111950000D01*
X176490000Y-110410000D02*
X176160000Y-110170000D01*
X176490000Y-109930000D01*
X176490000Y-110410000D01*
G36*
X176490000Y-110410000D02*
G01*
X176160000Y-110170000D01*
X176490000Y-109930000D01*
X176490000Y-110410000D01*
G37*
%TO.C,R6*%
X145420000Y-84846359D02*
X145420000Y-85153641D01*
X146180000Y-84846359D02*
X146180000Y-85153641D01*
%TO.C,R13*%
X149068859Y-109805000D02*
X149376141Y-109805000D01*
X149068859Y-110565000D02*
X149376141Y-110565000D01*
%TO.C,R18*%
X136420000Y-79458859D02*
X136420000Y-79766141D01*
X137180000Y-79458859D02*
X137180000Y-79766141D01*
%TO.C,R21*%
X134920000Y-104946359D02*
X134920000Y-105253641D01*
X135680000Y-104946359D02*
X135680000Y-105253641D01*
%TO.C,R8*%
X131046359Y-89420000D02*
X131353641Y-89420000D01*
X131046359Y-90180000D02*
X131353641Y-90180000D01*
%TO.C,C30*%
X124640000Y-88492164D02*
X124640000Y-88707836D01*
X125360000Y-88492164D02*
X125360000Y-88707836D01*
%TO.C,Y1*%
X145600000Y-89350000D02*
X145600000Y-92650000D01*
X145600000Y-92650000D02*
X149600000Y-92650000D01*
%TO.C,U4*%
X125040000Y-82990000D02*
X125040000Y-82340000D01*
X125040000Y-82990000D02*
X125040000Y-83640000D01*
X128160000Y-82990000D02*
X128160000Y-82340000D01*
X128160000Y-82990000D02*
X128160000Y-83640000D01*
X128440000Y-82067500D02*
X128110000Y-81827500D01*
X128440000Y-81587500D01*
X128440000Y-82067500D01*
G36*
X128440000Y-82067500D02*
G01*
X128110000Y-81827500D01*
X128440000Y-81587500D01*
X128440000Y-82067500D01*
G37*
%TO.C,J10*%
X167940000Y-66140000D02*
X167940000Y-77860000D01*
X167940000Y-77860000D02*
X169360000Y-77860000D01*
X169360000Y-77860000D02*
X169360000Y-73360000D01*
X170250000Y-66750000D02*
X170250000Y-72250000D01*
X170250000Y-72250000D02*
X170750000Y-72250000D01*
X170750000Y-66750000D02*
X170250000Y-66750000D01*
X170750000Y-72250000D02*
X170750000Y-66750000D01*
X171750000Y-66140000D02*
X167940000Y-66140000D01*
X171750000Y-66140000D02*
X175560000Y-66140000D01*
X172700000Y-75950000D02*
X173000000Y-75350000D01*
X172750000Y-66750000D02*
X172750000Y-72250000D01*
X172750000Y-72250000D02*
X173250000Y-72250000D01*
X173000000Y-75350000D02*
X173300000Y-75950000D01*
X173250000Y-66750000D02*
X172750000Y-66750000D01*
X173250000Y-72250000D02*
X173250000Y-66750000D01*
X173300000Y-75950000D02*
X172700000Y-75950000D01*
X174140000Y-77860000D02*
X174140000Y-73360000D01*
X175560000Y-66140000D02*
X175560000Y-77860000D01*
X175560000Y-77860000D02*
X174140000Y-77860000D01*
%TO.C,C15*%
X132492164Y-84840000D02*
X132707836Y-84840000D01*
X132492164Y-85560000D02*
X132707836Y-85560000D01*
%TO.C,J3*%
X103095000Y-77320000D02*
X104475000Y-77320000D01*
X103095000Y-78700000D02*
X103095000Y-77320000D01*
X103095000Y-79970000D02*
X103095000Y-113100000D01*
X103095000Y-79970000D02*
X105855000Y-79970000D01*
X103095000Y-113100000D02*
X105855000Y-113100000D01*
X105855000Y-79970000D02*
X105855000Y-113100000D01*
%TO.C,R9*%
X131046359Y-90420000D02*
X131353641Y-90420000D01*
X131046359Y-91180000D02*
X131353641Y-91180000D01*
%TO.C,D4*%
X136065000Y-75627500D02*
X136065000Y-77912500D01*
X137535000Y-75627500D02*
X136065000Y-75627500D01*
X137535000Y-77912500D02*
X137535000Y-75627500D01*
%TO.C,J12*%
X150415000Y-66140000D02*
X150415000Y-77860000D01*
X150415000Y-77860000D02*
X151835000Y-77860000D01*
X151835000Y-77860000D02*
X151835000Y-73360000D01*
X152725000Y-66750000D02*
X152725000Y-72250000D01*
X152725000Y-72250000D02*
X153225000Y-72250000D01*
X153225000Y-66750000D02*
X152725000Y-66750000D01*
X153225000Y-72250000D02*
X153225000Y-66750000D01*
X154225000Y-66140000D02*
X150415000Y-66140000D01*
X154225000Y-66140000D02*
X158035000Y-66140000D01*
X155175000Y-75950000D02*
X155475000Y-75350000D01*
X155225000Y-66750000D02*
X155225000Y-72250000D01*
X155225000Y-72250000D02*
X155725000Y-72250000D01*
X155475000Y-75350000D02*
X155775000Y-75950000D01*
X155725000Y-66750000D02*
X155225000Y-66750000D01*
X155725000Y-72250000D02*
X155725000Y-66750000D01*
X155775000Y-75950000D02*
X155175000Y-75950000D01*
X156615000Y-77860000D02*
X156615000Y-73360000D01*
X158035000Y-66140000D02*
X158035000Y-77860000D01*
X158035000Y-77860000D02*
X156615000Y-77860000D01*
%TO.C,R10*%
X147653641Y-88420000D02*
X147346359Y-88420000D01*
X147653641Y-89180000D02*
X147346359Y-89180000D01*
%TO.C,R3*%
X176620000Y-108246359D02*
X176620000Y-108553641D01*
X177380000Y-108246359D02*
X177380000Y-108553641D01*
%TO.C,Q1*%
X168327500Y-94900000D02*
X167027500Y-94900000D01*
X168327500Y-96700000D02*
X167027500Y-96700000D01*
D12*
X166502500Y-95290000D02*
G75*
G02*
X166352500Y-95290000I-75000J0D01*
G01*
X166352500Y-95290000D02*
G75*
G02*
X166502500Y-95290000I75000J0D01*
G01*
D13*
%TO.C,C20*%
X149440000Y-114372836D02*
X149440000Y-114157164D01*
X150160000Y-114372836D02*
X150160000Y-114157164D01*
%TO.C,L2*%
X152673752Y-102975000D02*
X152151248Y-102975000D01*
X152673752Y-105195000D02*
X152151248Y-105195000D01*
%TO.C,C2*%
X124640000Y-100707836D02*
X124640000Y-100492164D01*
X125360000Y-100707836D02*
X125360000Y-100492164D01*
%TO.C,L1*%
X130700378Y-87050000D02*
X131499622Y-87050000D01*
X130700378Y-88550000D02*
X131499622Y-88550000D01*
D10*
X129200000Y-87800000D02*
G75*
G02*
X129000000Y-87800000I-100000J0D01*
G01*
X129000000Y-87800000D02*
G75*
G02*
X129200000Y-87800000I100000J0D01*
G01*
D13*
%TO.C,C6*%
X131392164Y-85840000D02*
X131607836Y-85840000D01*
X131392164Y-86560000D02*
X131607836Y-86560000D01*
%TO.C,R15*%
X116632500Y-105936359D02*
X116632500Y-106243641D01*
X117392500Y-105936359D02*
X117392500Y-106243641D01*
%TO.C,R1*%
X176620000Y-112546359D02*
X176620000Y-112853641D01*
X177380000Y-112546359D02*
X177380000Y-112853641D01*
%TO.C,J2*%
X182200000Y-106130000D02*
X180500000Y-106130000D01*
X182200000Y-115470000D02*
X180500000Y-115470000D01*
%TO.C,J9*%
X150020000Y-80680000D02*
X151400000Y-80680000D01*
X150020000Y-82060000D02*
X150020000Y-80680000D01*
X150020000Y-83330000D02*
X150020000Y-88520000D01*
X150020000Y-83330000D02*
X152780000Y-83330000D01*
X150020000Y-88520000D02*
X152780000Y-88520000D01*
X152780000Y-83330000D02*
X152780000Y-88520000D01*
%TO.C,U6*%
X152362500Y-106640000D02*
X151562500Y-106640000D01*
X152362500Y-106640000D02*
X153162500Y-106640000D01*
X152362500Y-109760000D02*
X151562500Y-109760000D01*
X152362500Y-109760000D02*
X153162500Y-109760000D01*
X151062500Y-106690000D02*
X150822500Y-106360000D01*
X151302500Y-106360000D01*
X151062500Y-106690000D01*
G36*
X151062500Y-106690000D02*
G01*
X150822500Y-106360000D01*
X151302500Y-106360000D01*
X151062500Y-106690000D01*
G37*
%TO.C,J6*%
X109830000Y-71040000D02*
X109830000Y-73700000D01*
X110500000Y-73700000D02*
X109830000Y-73700000D01*
X113040000Y-71040000D02*
X109830000Y-71040000D01*
X115580000Y-73700000D02*
X112020000Y-73700000D01*
X118120000Y-71040000D02*
X114560000Y-71040000D01*
X120660000Y-73700000D02*
X117100000Y-73700000D01*
X123200000Y-71040000D02*
X119640000Y-71040000D01*
X124720000Y-69830000D02*
X124720000Y-71040000D01*
X125390000Y-71040000D02*
X124720000Y-71040000D01*
X125390000Y-71040000D02*
X125390000Y-73700000D01*
X125390000Y-73700000D02*
X122180000Y-73700000D01*
%TO.C,C23*%
X156153080Y-107675000D02*
X155871920Y-107675000D01*
X156153080Y-108695000D02*
X155871920Y-108695000D01*
%TO.C,C18*%
X147492164Y-92840000D02*
X147707836Y-92840000D01*
X147492164Y-93560000D02*
X147707836Y-93560000D01*
%TO.C,D2*%
X169477500Y-95200000D02*
X171437500Y-95200000D01*
X169477500Y-96400000D02*
X171437500Y-96400000D01*
X171437500Y-96400000D02*
X171437500Y-95200000D01*
%TO.C,SW2*%
X107400000Y-80740000D02*
X109440000Y-80740000D01*
X109440000Y-79790000D02*
X109440000Y-80740000D01*
X109440000Y-79790000D02*
X115760000Y-79790000D01*
X109440000Y-91010000D02*
X109440000Y-89270000D01*
X109440000Y-91010000D02*
X115760000Y-91010000D01*
X115760000Y-79790000D02*
X115760000Y-81530000D01*
X115760000Y-91010000D02*
X115760000Y-89270000D01*
%TO.C,SW3*%
X154800000Y-82450000D02*
X154800000Y-87350000D01*
X154800000Y-82450000D02*
X154850000Y-82450000D01*
X154800000Y-87350000D02*
X154850000Y-87350000D01*
X158000000Y-82450000D02*
X156500000Y-82450000D01*
X158000000Y-87350000D02*
X156500000Y-87350000D01*
X159700000Y-82450000D02*
X159650000Y-82450000D01*
X159700000Y-82450000D02*
X159700000Y-87350000D01*
X159700000Y-87350000D02*
X159650000Y-87350000D01*
%TO.C,C24*%
X149002500Y-106025580D02*
X149002500Y-105744420D01*
X150022500Y-106025580D02*
X150022500Y-105744420D01*
%TO.C,U8*%
X112000000Y-103990000D02*
X110500000Y-103990000D01*
X112000000Y-103990000D02*
X113500000Y-103990000D01*
X112000000Y-107210000D02*
X110500000Y-107210000D01*
X112000000Y-107210000D02*
X113500000Y-107210000D01*
X114452500Y-107365000D02*
X113972500Y-107365000D01*
X114212500Y-107035000D01*
X114452500Y-107365000D01*
G36*
X114452500Y-107365000D02*
G01*
X113972500Y-107365000D01*
X114212500Y-107035000D01*
X114452500Y-107365000D01*
G37*
%TO.C,J7*%
X109830000Y-119300000D02*
X109830000Y-121960000D01*
X110500000Y-121960000D02*
X109830000Y-121960000D01*
X113040000Y-119300000D02*
X109830000Y-119300000D01*
X115580000Y-121960000D02*
X112020000Y-121960000D01*
X118120000Y-119300000D02*
X114560000Y-119300000D01*
X120660000Y-121960000D02*
X117100000Y-121960000D01*
X123200000Y-119300000D02*
X119640000Y-119300000D01*
X125740000Y-121960000D02*
X122180000Y-121960000D01*
X128280000Y-119300000D02*
X124720000Y-119300000D01*
X129800000Y-118090000D02*
X129800000Y-119300000D01*
X130470000Y-119300000D02*
X129800000Y-119300000D01*
X130470000Y-119300000D02*
X130470000Y-121960000D01*
X130470000Y-121960000D02*
X127260000Y-121960000D01*
%TO.C,C17*%
X126707836Y-79730000D02*
X126492164Y-79730000D01*
X126707836Y-80450000D02*
X126492164Y-80450000D01*
%TO.C,JP1*%
X122400000Y-82900000D02*
X122400000Y-81500000D01*
X123100000Y-80800000D02*
X123700000Y-80800000D01*
X123700000Y-83600000D02*
X123100000Y-83600000D01*
X124400000Y-81500000D02*
X124400000Y-82900000D01*
X122400000Y-81500000D02*
G75*
G02*
X123100000Y-80800000I699999J1D01*
G01*
X123100000Y-83600000D02*
G75*
G02*
X122400000Y-82900000I0J700000D01*
G01*
X123700000Y-80800000D02*
G75*
G02*
X124400000Y-81500000I1J-699999D01*
G01*
X124400000Y-82900000D02*
G75*
G02*
X123700000Y-83600000I-700000J0D01*
G01*
%TO.C,C27*%
X114884664Y-107640000D02*
X115100336Y-107640000D01*
X114884664Y-108360000D02*
X115100336Y-108360000D01*
%TO.C,U3*%
X133840000Y-85490000D02*
X134790000Y-85490000D01*
X133840000Y-86440000D02*
X133840000Y-85490000D01*
X133840000Y-94760000D02*
X133840000Y-95410000D01*
X134790000Y-95710000D02*
X134080000Y-95710000D01*
X144060000Y-85490000D02*
X143110000Y-85490000D01*
X144060000Y-86440000D02*
X144060000Y-85490000D01*
X144060000Y-94760000D02*
X144060000Y-95710000D01*
X144060000Y-95710000D02*
X143110000Y-95710000D01*
X133840000Y-95710000D02*
X133510000Y-95950000D01*
X133510000Y-95470000D01*
X133840000Y-95710000D01*
G36*
X133840000Y-95710000D02*
G01*
X133510000Y-95950000D01*
X133510000Y-95470000D01*
X133840000Y-95710000D01*
G37*
%TO.C,R11*%
X154656141Y-109905000D02*
X154348859Y-109905000D01*
X154656141Y-110665000D02*
X154348859Y-110665000D01*
%TO.C,R14*%
X165420000Y-95646359D02*
X165420000Y-95953641D01*
X166180000Y-95646359D02*
X166180000Y-95953641D01*
%TO.C,R16*%
X115532500Y-105936359D02*
X115532500Y-106243641D01*
X116292500Y-105936359D02*
X116292500Y-106243641D01*
%TO.C,D6*%
X140065000Y-75627500D02*
X140065000Y-77912500D01*
X141535000Y-75627500D02*
X140065000Y-75627500D01*
X141535000Y-77912500D02*
X141535000Y-75627500D01*
%TO.C,J11*%
X176940000Y-66140000D02*
X176940000Y-77860000D01*
X176940000Y-77860000D02*
X178360000Y-77860000D01*
X178360000Y-77860000D02*
X178360000Y-73360000D01*
X179250000Y-66750000D02*
X179250000Y-72250000D01*
X179250000Y-72250000D02*
X179750000Y-72250000D01*
X179750000Y-66750000D02*
X179250000Y-66750000D01*
X179750000Y-72250000D02*
X179750000Y-66750000D01*
X180750000Y-66140000D02*
X176940000Y-66140000D01*
X180750000Y-66140000D02*
X184560000Y-66140000D01*
X181700000Y-75950000D02*
X182000000Y-75350000D01*
X181750000Y-66750000D02*
X181750000Y-72250000D01*
X181750000Y-72250000D02*
X182250000Y-72250000D01*
X182000000Y-75350000D02*
X182300000Y-75950000D01*
X182250000Y-66750000D02*
X181750000Y-66750000D01*
X182250000Y-72250000D02*
X182250000Y-66750000D01*
X182300000Y-75950000D02*
X181700000Y-75950000D01*
X183140000Y-77860000D02*
X183140000Y-73360000D01*
X184560000Y-66140000D02*
X184560000Y-77860000D01*
X184560000Y-77860000D02*
X183140000Y-77860000D01*
%TO.C,K2*%
X176465000Y-79210000D02*
X184245000Y-79210000D01*
X176465000Y-79670000D02*
X176465000Y-79210000D01*
X176465000Y-92370000D02*
X176465000Y-88950000D01*
X176465000Y-94490000D02*
X176465000Y-94030000D01*
X176465000Y-94490000D02*
X184245000Y-94490000D01*
X180065000Y-92600000D02*
X180065000Y-93800000D01*
X180065000Y-93800000D02*
X180765000Y-93800000D01*
X180765000Y-92600000D02*
X180065000Y-92600000D01*
X180765000Y-93000000D02*
X180065000Y-93400000D01*
X180765000Y-93800000D02*
X180765000Y-92600000D01*
X184245000Y-79670000D02*
X184245000Y-79210000D01*
X184245000Y-92370000D02*
X184245000Y-88950000D01*
X184245000Y-92370000D02*
X185365000Y-92370000D01*
X184245000Y-94030000D02*
X185365000Y-94030000D01*
X184245000Y-94490000D02*
X184245000Y-94030000D01*
%TO.C,R2*%
X134895000Y-102936359D02*
X134895000Y-103243641D01*
X135655000Y-102936359D02*
X135655000Y-103243641D01*
%TO.C,J5*%
X131674000Y-119300000D02*
X131674000Y-121960000D01*
X132344000Y-121960000D02*
X131674000Y-121960000D01*
X134884000Y-119300000D02*
X131674000Y-119300000D01*
X137424000Y-121960000D02*
X133864000Y-121960000D01*
X139964000Y-119300000D02*
X136404000Y-119300000D01*
X142504000Y-121960000D02*
X138944000Y-121960000D01*
X145044000Y-119300000D02*
X141484000Y-119300000D01*
X147584000Y-121960000D02*
X144024000Y-121960000D01*
X150124000Y-119300000D02*
X146564000Y-119300000D01*
X152664000Y-121960000D02*
X149104000Y-121960000D01*
X155204000Y-119300000D02*
X151644000Y-119300000D01*
X156724000Y-118090000D02*
X156724000Y-119300000D01*
X157394000Y-119300000D02*
X156724000Y-119300000D01*
X157394000Y-119300000D02*
X157394000Y-121960000D01*
X157394000Y-121960000D02*
X154184000Y-121960000D01*
%TD*%
M02*
