%TF.GenerationSoftware,KiCad,Pcbnew,9.0.4*%
%TF.CreationDate,2025-09-01T14:16:20+02:00*%
%TF.ProjectId,blocky_breakout_pcb,626c6f63-6b79-45f6-9272-65616b6f7574,rev?*%
%TF.SameCoordinates,Original*%
%TF.FileFunction,Legend,Bot*%
%TF.FilePolarity,Positive*%
%FSLAX46Y46*%
G04 Gerber Fmt 4.6, Leading zero omitted, Abs format (unit mm)*
G04 Created by KiCad (PCBNEW 9.0.4) date 2025-09-01 14:16:20*
%MOMM*%
%LPD*%
G01*
G04 APERTURE LIST*
%ADD10C,0.150000*%
%ADD11C,0.120000*%
G04 APERTURE END LIST*
D10*
X160266666Y-117062295D02*
X160266666Y-117633723D01*
X160266666Y-117633723D02*
X160304761Y-117748009D01*
X160304761Y-117748009D02*
X160380952Y-117824200D01*
X160380952Y-117824200D02*
X160495237Y-117862295D01*
X160495237Y-117862295D02*
X160571428Y-117862295D01*
X159542856Y-117328961D02*
X159542856Y-117862295D01*
X159733332Y-117024200D02*
X159923809Y-117595628D01*
X159923809Y-117595628D02*
X159428570Y-117595628D01*
X143933332Y-93386104D02*
X143971428Y-93424200D01*
X143971428Y-93424200D02*
X144085713Y-93462295D01*
X144085713Y-93462295D02*
X144161904Y-93462295D01*
X144161904Y-93462295D02*
X144276190Y-93424200D01*
X144276190Y-93424200D02*
X144352380Y-93348009D01*
X144352380Y-93348009D02*
X144390475Y-93271819D01*
X144390475Y-93271819D02*
X144428571Y-93119438D01*
X144428571Y-93119438D02*
X144428571Y-93005152D01*
X144428571Y-93005152D02*
X144390475Y-92852771D01*
X144390475Y-92852771D02*
X144352380Y-92776580D01*
X144352380Y-92776580D02*
X144276190Y-92700390D01*
X144276190Y-92700390D02*
X144161904Y-92662295D01*
X144161904Y-92662295D02*
X144085713Y-92662295D01*
X144085713Y-92662295D02*
X143971428Y-92700390D01*
X143971428Y-92700390D02*
X143933332Y-92738485D01*
X143552380Y-93462295D02*
X143399999Y-93462295D01*
X143399999Y-93462295D02*
X143323809Y-93424200D01*
X143323809Y-93424200D02*
X143285713Y-93386104D01*
X143285713Y-93386104D02*
X143209523Y-93271819D01*
X143209523Y-93271819D02*
X143171428Y-93119438D01*
X143171428Y-93119438D02*
X143171428Y-92814676D01*
X143171428Y-92814676D02*
X143209523Y-92738485D01*
X143209523Y-92738485D02*
X143247618Y-92700390D01*
X143247618Y-92700390D02*
X143323809Y-92662295D01*
X143323809Y-92662295D02*
X143476190Y-92662295D01*
X143476190Y-92662295D02*
X143552380Y-92700390D01*
X143552380Y-92700390D02*
X143590475Y-92738485D01*
X143590475Y-92738485D02*
X143628571Y-92814676D01*
X143628571Y-92814676D02*
X143628571Y-93005152D01*
X143628571Y-93005152D02*
X143590475Y-93081342D01*
X143590475Y-93081342D02*
X143552380Y-93119438D01*
X143552380Y-93119438D02*
X143476190Y-93157533D01*
X143476190Y-93157533D02*
X143323809Y-93157533D01*
X143323809Y-93157533D02*
X143247618Y-93119438D01*
X143247618Y-93119438D02*
X143209523Y-93081342D01*
X143209523Y-93081342D02*
X143171428Y-93005152D01*
X140986104Y-95285714D02*
X141024200Y-95247618D01*
X141024200Y-95247618D02*
X141062295Y-95133333D01*
X141062295Y-95133333D02*
X141062295Y-95057142D01*
X141062295Y-95057142D02*
X141024200Y-94942856D01*
X141024200Y-94942856D02*
X140948009Y-94866666D01*
X140948009Y-94866666D02*
X140871819Y-94828571D01*
X140871819Y-94828571D02*
X140719438Y-94790475D01*
X140719438Y-94790475D02*
X140605152Y-94790475D01*
X140605152Y-94790475D02*
X140452771Y-94828571D01*
X140452771Y-94828571D02*
X140376580Y-94866666D01*
X140376580Y-94866666D02*
X140300390Y-94942856D01*
X140300390Y-94942856D02*
X140262295Y-95057142D01*
X140262295Y-95057142D02*
X140262295Y-95133333D01*
X140262295Y-95133333D02*
X140300390Y-95247618D01*
X140300390Y-95247618D02*
X140338485Y-95285714D01*
X141062295Y-96047618D02*
X141062295Y-95590475D01*
X141062295Y-95819047D02*
X140262295Y-95819047D01*
X140262295Y-95819047D02*
X140376580Y-95742856D01*
X140376580Y-95742856D02*
X140452771Y-95666666D01*
X140452771Y-95666666D02*
X140490866Y-95590475D01*
X140262295Y-96542857D02*
X140262295Y-96619047D01*
X140262295Y-96619047D02*
X140300390Y-96695238D01*
X140300390Y-96695238D02*
X140338485Y-96733333D01*
X140338485Y-96733333D02*
X140414676Y-96771428D01*
X140414676Y-96771428D02*
X140567057Y-96809523D01*
X140567057Y-96809523D02*
X140757533Y-96809523D01*
X140757533Y-96809523D02*
X140909914Y-96771428D01*
X140909914Y-96771428D02*
X140986104Y-96733333D01*
X140986104Y-96733333D02*
X141024200Y-96695238D01*
X141024200Y-96695238D02*
X141062295Y-96619047D01*
X141062295Y-96619047D02*
X141062295Y-96542857D01*
X141062295Y-96542857D02*
X141024200Y-96466666D01*
X141024200Y-96466666D02*
X140986104Y-96428571D01*
X140986104Y-96428571D02*
X140909914Y-96390476D01*
X140909914Y-96390476D02*
X140757533Y-96352380D01*
X140757533Y-96352380D02*
X140567057Y-96352380D01*
X140567057Y-96352380D02*
X140414676Y-96390476D01*
X140414676Y-96390476D02*
X140338485Y-96428571D01*
X140338485Y-96428571D02*
X140300390Y-96466666D01*
X140300390Y-96466666D02*
X140262295Y-96542857D01*
X138133332Y-86326104D02*
X138171428Y-86364200D01*
X138171428Y-86364200D02*
X138285713Y-86402295D01*
X138285713Y-86402295D02*
X138361904Y-86402295D01*
X138361904Y-86402295D02*
X138476190Y-86364200D01*
X138476190Y-86364200D02*
X138552380Y-86288009D01*
X138552380Y-86288009D02*
X138590475Y-86211819D01*
X138590475Y-86211819D02*
X138628571Y-86059438D01*
X138628571Y-86059438D02*
X138628571Y-85945152D01*
X138628571Y-85945152D02*
X138590475Y-85792771D01*
X138590475Y-85792771D02*
X138552380Y-85716580D01*
X138552380Y-85716580D02*
X138476190Y-85640390D01*
X138476190Y-85640390D02*
X138361904Y-85602295D01*
X138361904Y-85602295D02*
X138285713Y-85602295D01*
X138285713Y-85602295D02*
X138171428Y-85640390D01*
X138171428Y-85640390D02*
X138133332Y-85678485D01*
X137409523Y-85602295D02*
X137790475Y-85602295D01*
X137790475Y-85602295D02*
X137828571Y-85983247D01*
X137828571Y-85983247D02*
X137790475Y-85945152D01*
X137790475Y-85945152D02*
X137714285Y-85907057D01*
X137714285Y-85907057D02*
X137523809Y-85907057D01*
X137523809Y-85907057D02*
X137447618Y-85945152D01*
X137447618Y-85945152D02*
X137409523Y-85983247D01*
X137409523Y-85983247D02*
X137371428Y-86059438D01*
X137371428Y-86059438D02*
X137371428Y-86249914D01*
X137371428Y-86249914D02*
X137409523Y-86326104D01*
X137409523Y-86326104D02*
X137447618Y-86364200D01*
X137447618Y-86364200D02*
X137523809Y-86402295D01*
X137523809Y-86402295D02*
X137714285Y-86402295D01*
X137714285Y-86402295D02*
X137790475Y-86364200D01*
X137790475Y-86364200D02*
X137828571Y-86326104D01*
X134314285Y-92486104D02*
X134352381Y-92524200D01*
X134352381Y-92524200D02*
X134466666Y-92562295D01*
X134466666Y-92562295D02*
X134542857Y-92562295D01*
X134542857Y-92562295D02*
X134657143Y-92524200D01*
X134657143Y-92524200D02*
X134733333Y-92448009D01*
X134733333Y-92448009D02*
X134771428Y-92371819D01*
X134771428Y-92371819D02*
X134809524Y-92219438D01*
X134809524Y-92219438D02*
X134809524Y-92105152D01*
X134809524Y-92105152D02*
X134771428Y-91952771D01*
X134771428Y-91952771D02*
X134733333Y-91876580D01*
X134733333Y-91876580D02*
X134657143Y-91800390D01*
X134657143Y-91800390D02*
X134542857Y-91762295D01*
X134542857Y-91762295D02*
X134466666Y-91762295D01*
X134466666Y-91762295D02*
X134352381Y-91800390D01*
X134352381Y-91800390D02*
X134314285Y-91838485D01*
X133552381Y-92562295D02*
X134009524Y-92562295D01*
X133780952Y-92562295D02*
X133780952Y-91762295D01*
X133780952Y-91762295D02*
X133857143Y-91876580D01*
X133857143Y-91876580D02*
X133933333Y-91952771D01*
X133933333Y-91952771D02*
X134009524Y-91990866D01*
X133285714Y-91762295D02*
X132790476Y-91762295D01*
X132790476Y-91762295D02*
X133057142Y-92067057D01*
X133057142Y-92067057D02*
X132942857Y-92067057D01*
X132942857Y-92067057D02*
X132866666Y-92105152D01*
X132866666Y-92105152D02*
X132828571Y-92143247D01*
X132828571Y-92143247D02*
X132790476Y-92219438D01*
X132790476Y-92219438D02*
X132790476Y-92409914D01*
X132790476Y-92409914D02*
X132828571Y-92486104D01*
X132828571Y-92486104D02*
X132866666Y-92524200D01*
X132866666Y-92524200D02*
X132942857Y-92562295D01*
X132942857Y-92562295D02*
X133171428Y-92562295D01*
X133171428Y-92562295D02*
X133247619Y-92524200D01*
X133247619Y-92524200D02*
X133285714Y-92486104D01*
X138986104Y-95566667D02*
X139024200Y-95528571D01*
X139024200Y-95528571D02*
X139062295Y-95414286D01*
X139062295Y-95414286D02*
X139062295Y-95338095D01*
X139062295Y-95338095D02*
X139024200Y-95223809D01*
X139024200Y-95223809D02*
X138948009Y-95147619D01*
X138948009Y-95147619D02*
X138871819Y-95109524D01*
X138871819Y-95109524D02*
X138719438Y-95071428D01*
X138719438Y-95071428D02*
X138605152Y-95071428D01*
X138605152Y-95071428D02*
X138452771Y-95109524D01*
X138452771Y-95109524D02*
X138376580Y-95147619D01*
X138376580Y-95147619D02*
X138300390Y-95223809D01*
X138300390Y-95223809D02*
X138262295Y-95338095D01*
X138262295Y-95338095D02*
X138262295Y-95414286D01*
X138262295Y-95414286D02*
X138300390Y-95528571D01*
X138300390Y-95528571D02*
X138338485Y-95566667D01*
X138262295Y-95833333D02*
X138262295Y-96328571D01*
X138262295Y-96328571D02*
X138567057Y-96061905D01*
X138567057Y-96061905D02*
X138567057Y-96176190D01*
X138567057Y-96176190D02*
X138605152Y-96252381D01*
X138605152Y-96252381D02*
X138643247Y-96290476D01*
X138643247Y-96290476D02*
X138719438Y-96328571D01*
X138719438Y-96328571D02*
X138909914Y-96328571D01*
X138909914Y-96328571D02*
X138986104Y-96290476D01*
X138986104Y-96290476D02*
X139024200Y-96252381D01*
X139024200Y-96252381D02*
X139062295Y-96176190D01*
X139062295Y-96176190D02*
X139062295Y-95947619D01*
X139062295Y-95947619D02*
X139024200Y-95871428D01*
X139024200Y-95871428D02*
X138986104Y-95833333D01*
X141733332Y-87486104D02*
X141771428Y-87524200D01*
X141771428Y-87524200D02*
X141885713Y-87562295D01*
X141885713Y-87562295D02*
X141961904Y-87562295D01*
X141961904Y-87562295D02*
X142076190Y-87524200D01*
X142076190Y-87524200D02*
X142152380Y-87448009D01*
X142152380Y-87448009D02*
X142190475Y-87371819D01*
X142190475Y-87371819D02*
X142228571Y-87219438D01*
X142228571Y-87219438D02*
X142228571Y-87105152D01*
X142228571Y-87105152D02*
X142190475Y-86952771D01*
X142190475Y-86952771D02*
X142152380Y-86876580D01*
X142152380Y-86876580D02*
X142076190Y-86800390D01*
X142076190Y-86800390D02*
X141961904Y-86762295D01*
X141961904Y-86762295D02*
X141885713Y-86762295D01*
X141885713Y-86762295D02*
X141771428Y-86800390D01*
X141771428Y-86800390D02*
X141733332Y-86838485D01*
X141466666Y-86762295D02*
X140933332Y-86762295D01*
X140933332Y-86762295D02*
X141276190Y-87562295D01*
X136986104Y-95385714D02*
X137024200Y-95347618D01*
X137024200Y-95347618D02*
X137062295Y-95233333D01*
X137062295Y-95233333D02*
X137062295Y-95157142D01*
X137062295Y-95157142D02*
X137024200Y-95042856D01*
X137024200Y-95042856D02*
X136948009Y-94966666D01*
X136948009Y-94966666D02*
X136871819Y-94928571D01*
X136871819Y-94928571D02*
X136719438Y-94890475D01*
X136719438Y-94890475D02*
X136605152Y-94890475D01*
X136605152Y-94890475D02*
X136452771Y-94928571D01*
X136452771Y-94928571D02*
X136376580Y-94966666D01*
X136376580Y-94966666D02*
X136300390Y-95042856D01*
X136300390Y-95042856D02*
X136262295Y-95157142D01*
X136262295Y-95157142D02*
X136262295Y-95233333D01*
X136262295Y-95233333D02*
X136300390Y-95347618D01*
X136300390Y-95347618D02*
X136338485Y-95385714D01*
X137062295Y-96147618D02*
X137062295Y-95690475D01*
X137062295Y-95919047D02*
X136262295Y-95919047D01*
X136262295Y-95919047D02*
X136376580Y-95842856D01*
X136376580Y-95842856D02*
X136452771Y-95766666D01*
X136452771Y-95766666D02*
X136490866Y-95690475D01*
X137062295Y-96909523D02*
X137062295Y-96452380D01*
X137062295Y-96680952D02*
X136262295Y-96680952D01*
X136262295Y-96680952D02*
X136376580Y-96604761D01*
X136376580Y-96604761D02*
X136452771Y-96528571D01*
X136452771Y-96528571D02*
X136490866Y-96452380D01*
X140233332Y-91486104D02*
X140271428Y-91524200D01*
X140271428Y-91524200D02*
X140385713Y-91562295D01*
X140385713Y-91562295D02*
X140461904Y-91562295D01*
X140461904Y-91562295D02*
X140576190Y-91524200D01*
X140576190Y-91524200D02*
X140652380Y-91448009D01*
X140652380Y-91448009D02*
X140690475Y-91371819D01*
X140690475Y-91371819D02*
X140728571Y-91219438D01*
X140728571Y-91219438D02*
X140728571Y-91105152D01*
X140728571Y-91105152D02*
X140690475Y-90952771D01*
X140690475Y-90952771D02*
X140652380Y-90876580D01*
X140652380Y-90876580D02*
X140576190Y-90800390D01*
X140576190Y-90800390D02*
X140461904Y-90762295D01*
X140461904Y-90762295D02*
X140385713Y-90762295D01*
X140385713Y-90762295D02*
X140271428Y-90800390D01*
X140271428Y-90800390D02*
X140233332Y-90838485D01*
X139547618Y-90762295D02*
X139699999Y-90762295D01*
X139699999Y-90762295D02*
X139776190Y-90800390D01*
X139776190Y-90800390D02*
X139814285Y-90838485D01*
X139814285Y-90838485D02*
X139890475Y-90952771D01*
X139890475Y-90952771D02*
X139928571Y-91105152D01*
X139928571Y-91105152D02*
X139928571Y-91409914D01*
X139928571Y-91409914D02*
X139890475Y-91486104D01*
X139890475Y-91486104D02*
X139852380Y-91524200D01*
X139852380Y-91524200D02*
X139776190Y-91562295D01*
X139776190Y-91562295D02*
X139623809Y-91562295D01*
X139623809Y-91562295D02*
X139547618Y-91524200D01*
X139547618Y-91524200D02*
X139509523Y-91486104D01*
X139509523Y-91486104D02*
X139471428Y-91409914D01*
X139471428Y-91409914D02*
X139471428Y-91219438D01*
X139471428Y-91219438D02*
X139509523Y-91143247D01*
X139509523Y-91143247D02*
X139547618Y-91105152D01*
X139547618Y-91105152D02*
X139623809Y-91067057D01*
X139623809Y-91067057D02*
X139776190Y-91067057D01*
X139776190Y-91067057D02*
X139852380Y-91105152D01*
X139852380Y-91105152D02*
X139890475Y-91143247D01*
X139890475Y-91143247D02*
X139928571Y-91219438D01*
X140533332Y-90286104D02*
X140571428Y-90324200D01*
X140571428Y-90324200D02*
X140685713Y-90362295D01*
X140685713Y-90362295D02*
X140761904Y-90362295D01*
X140761904Y-90362295D02*
X140876190Y-90324200D01*
X140876190Y-90324200D02*
X140952380Y-90248009D01*
X140952380Y-90248009D02*
X140990475Y-90171819D01*
X140990475Y-90171819D02*
X141028571Y-90019438D01*
X141028571Y-90019438D02*
X141028571Y-89905152D01*
X141028571Y-89905152D02*
X140990475Y-89752771D01*
X140990475Y-89752771D02*
X140952380Y-89676580D01*
X140952380Y-89676580D02*
X140876190Y-89600390D01*
X140876190Y-89600390D02*
X140761904Y-89562295D01*
X140761904Y-89562295D02*
X140685713Y-89562295D01*
X140685713Y-89562295D02*
X140571428Y-89600390D01*
X140571428Y-89600390D02*
X140533332Y-89638485D01*
X139847618Y-89828961D02*
X139847618Y-90362295D01*
X140038094Y-89524200D02*
X140228571Y-90095628D01*
X140228571Y-90095628D02*
X139733332Y-90095628D01*
X137714285Y-88886104D02*
X137752381Y-88924200D01*
X137752381Y-88924200D02*
X137866666Y-88962295D01*
X137866666Y-88962295D02*
X137942857Y-88962295D01*
X137942857Y-88962295D02*
X138057143Y-88924200D01*
X138057143Y-88924200D02*
X138133333Y-88848009D01*
X138133333Y-88848009D02*
X138171428Y-88771819D01*
X138171428Y-88771819D02*
X138209524Y-88619438D01*
X138209524Y-88619438D02*
X138209524Y-88505152D01*
X138209524Y-88505152D02*
X138171428Y-88352771D01*
X138171428Y-88352771D02*
X138133333Y-88276580D01*
X138133333Y-88276580D02*
X138057143Y-88200390D01*
X138057143Y-88200390D02*
X137942857Y-88162295D01*
X137942857Y-88162295D02*
X137866666Y-88162295D01*
X137866666Y-88162295D02*
X137752381Y-88200390D01*
X137752381Y-88200390D02*
X137714285Y-88238485D01*
X136952381Y-88962295D02*
X137409524Y-88962295D01*
X137180952Y-88962295D02*
X137180952Y-88162295D01*
X137180952Y-88162295D02*
X137257143Y-88276580D01*
X137257143Y-88276580D02*
X137333333Y-88352771D01*
X137333333Y-88352771D02*
X137409524Y-88390866D01*
X136647619Y-88238485D02*
X136609523Y-88200390D01*
X136609523Y-88200390D02*
X136533333Y-88162295D01*
X136533333Y-88162295D02*
X136342857Y-88162295D01*
X136342857Y-88162295D02*
X136266666Y-88200390D01*
X136266666Y-88200390D02*
X136228571Y-88238485D01*
X136228571Y-88238485D02*
X136190476Y-88314676D01*
X136190476Y-88314676D02*
X136190476Y-88390866D01*
X136190476Y-88390866D02*
X136228571Y-88505152D01*
X136228571Y-88505152D02*
X136685714Y-88962295D01*
X136685714Y-88962295D02*
X136190476Y-88962295D01*
X135786104Y-85385714D02*
X135824200Y-85347618D01*
X135824200Y-85347618D02*
X135862295Y-85233333D01*
X135862295Y-85233333D02*
X135862295Y-85157142D01*
X135862295Y-85157142D02*
X135824200Y-85042856D01*
X135824200Y-85042856D02*
X135748009Y-84966666D01*
X135748009Y-84966666D02*
X135671819Y-84928571D01*
X135671819Y-84928571D02*
X135519438Y-84890475D01*
X135519438Y-84890475D02*
X135405152Y-84890475D01*
X135405152Y-84890475D02*
X135252771Y-84928571D01*
X135252771Y-84928571D02*
X135176580Y-84966666D01*
X135176580Y-84966666D02*
X135100390Y-85042856D01*
X135100390Y-85042856D02*
X135062295Y-85157142D01*
X135062295Y-85157142D02*
X135062295Y-85233333D01*
X135062295Y-85233333D02*
X135100390Y-85347618D01*
X135100390Y-85347618D02*
X135138485Y-85385714D01*
X135862295Y-86147618D02*
X135862295Y-85690475D01*
X135862295Y-85919047D02*
X135062295Y-85919047D01*
X135062295Y-85919047D02*
X135176580Y-85842856D01*
X135176580Y-85842856D02*
X135252771Y-85766666D01*
X135252771Y-85766666D02*
X135290866Y-85690475D01*
X135328961Y-86833333D02*
X135862295Y-86833333D01*
X135024200Y-86642857D02*
X135595628Y-86452380D01*
X135595628Y-86452380D02*
X135595628Y-86947619D01*
D11*
%TO.C,J4*%
X108540000Y-123600000D02*
X108540000Y-118400000D01*
X109110000Y-118400000D02*
X108540000Y-118400000D01*
X109110000Y-123600000D02*
X108540000Y-123600000D01*
X111650000Y-118400000D02*
X110630000Y-118400000D01*
X111650000Y-123600000D02*
X110630000Y-123600000D01*
X114190000Y-118400000D02*
X113170000Y-118400000D01*
X114190000Y-123600000D02*
X113170000Y-123600000D01*
X116730000Y-118400000D02*
X115710000Y-118400000D01*
X116730000Y-123600000D02*
X115710000Y-123600000D01*
X119270000Y-118400000D02*
X118250000Y-118400000D01*
X119270000Y-123600000D02*
X118250000Y-123600000D01*
X121810000Y-118400000D02*
X120790000Y-118400000D01*
X121810000Y-123600000D02*
X120790000Y-123600000D01*
X124350000Y-118400000D02*
X123330000Y-118400000D01*
X124350000Y-123600000D02*
X123330000Y-123600000D01*
X126890000Y-118400000D02*
X125870000Y-118400000D01*
X126890000Y-123600000D02*
X125870000Y-123600000D01*
X129430000Y-118400000D02*
X128410000Y-118400000D01*
X129430000Y-123600000D02*
X128410000Y-123600000D01*
X131970000Y-118400000D02*
X130950000Y-118400000D01*
X131970000Y-123600000D02*
X130950000Y-123600000D01*
X134510000Y-118400000D02*
X133490000Y-118400000D01*
X134510000Y-123600000D02*
X133490000Y-123600000D01*
X137050000Y-118400000D02*
X136030000Y-118400000D01*
X137050000Y-123600000D02*
X136030000Y-123600000D01*
X139590000Y-118400000D02*
X138570000Y-118400000D01*
X139590000Y-123600000D02*
X138570000Y-123600000D01*
X142130000Y-118400000D02*
X141110000Y-118400000D01*
X142130000Y-123600000D02*
X141110000Y-123600000D01*
X144670000Y-118400000D02*
X143650000Y-118400000D01*
X144670000Y-123600000D02*
X143650000Y-123600000D01*
X147210000Y-118400000D02*
X146190000Y-118400000D01*
X147210000Y-123600000D02*
X146190000Y-123600000D01*
X149750000Y-118400000D02*
X148730000Y-118400000D01*
X149750000Y-123600000D02*
X148730000Y-123600000D01*
X152290000Y-118400000D02*
X151270000Y-118400000D01*
X152290000Y-123600000D02*
X151270000Y-123600000D01*
X154830000Y-118400000D02*
X153810000Y-118400000D01*
X154830000Y-123600000D02*
X153810000Y-123600000D01*
X157370000Y-118400000D02*
X156350000Y-118400000D01*
X157370000Y-123600000D02*
X156350000Y-123600000D01*
X158890000Y-118400000D02*
X158890000Y-117040000D01*
X159460000Y-118400000D02*
X158890000Y-118400000D01*
X159460000Y-123600000D02*
X158890000Y-123600000D01*
X159460000Y-123600000D02*
X159460000Y-118400000D01*
%TO.C,C9*%
X142207836Y-92740000D02*
X141992164Y-92740000D01*
X142207836Y-93460000D02*
X141992164Y-93460000D01*
%TO.C,C10*%
X140340000Y-93927836D02*
X140340000Y-93712164D01*
X141060000Y-93927836D02*
X141060000Y-93712164D01*
%TO.C,C5*%
X138107836Y-86840000D02*
X137892164Y-86840000D01*
X138107836Y-87560000D02*
X137892164Y-87560000D01*
%TO.C,C13*%
X135792164Y-91840000D02*
X136007836Y-91840000D01*
X135792164Y-92560000D02*
X136007836Y-92560000D01*
%TO.C,C3*%
X138340000Y-93927836D02*
X138340000Y-93712164D01*
X139060000Y-93927836D02*
X139060000Y-93712164D01*
%TO.C,C7*%
X139892164Y-86840000D02*
X140107836Y-86840000D01*
X139892164Y-87560000D02*
X140107836Y-87560000D01*
%TO.C,C11*%
X136340000Y-93907836D02*
X136340000Y-93692164D01*
X137060000Y-93907836D02*
X137060000Y-93692164D01*
%TO.C,C6*%
X142107836Y-90840000D02*
X141892164Y-90840000D01*
X142107836Y-91560000D02*
X141892164Y-91560000D01*
%TO.C,C4*%
X142107836Y-89640000D02*
X141892164Y-89640000D01*
X142107836Y-90360000D02*
X141892164Y-90360000D01*
%TO.C,C12*%
X135892164Y-89240000D02*
X136107836Y-89240000D01*
X135892164Y-89960000D02*
X136107836Y-89960000D01*
%TO.C,C14*%
X135140000Y-87907836D02*
X135140000Y-87692164D01*
X135860000Y-87907836D02*
X135860000Y-87692164D01*
%TD*%
M02*
